<?xml version="1.0" encoding="utf-8"?>
<!-- Generator: Adobe Illustrator 25.2.1, SVG Export Plug-In . SVG Version: 6.00 Build 0)  -->
<svg version="1.1" id="Camada_1" xmlns="http://www.w3.org/2000/svg" xmlns:xlink="http://www.w3.org/1999/xlink" x="0px" y="0px"
	 viewBox="0 0 2000 2000" style="enable-background:new 0 0 2000 2000;" xml:space="preserve">
<style type="text/css">
	.st0{stroke:#1D1D1B;stroke-width:2;stroke-miterlimit:10;}
</style>
<g>
	<path class="st0" d="M715.3,1078.6h49.1v1.5h-50.8v-77.6h1.8V1078.6z"/>
	<path class="st0" d="M787.9,1002.5h51.3v1.5h-49.5v38.1h44.9v1.5h-44.9v34.9h51.5v1.5h-53.3V1002.5z"/>
	<path class="st0" d="M922.6,1004h-29.8v76.1h-1.8V1004h-29.8v-1.5h61.3V1004z"/>
	<path class="st0" d="M951.4,1080.2h-1.8v-77.6h1.8V1080.2z M959.3,975.3h1.8l-8.8,17.4h-1.8L959.3,975.3z"/>
	<path class="st0" d="M1022.7,1000.5c12.8,0,24.1,5.9,31.5,14.9l-1.4,1.2c-7.2-8.7-17.9-14.2-30.1-14.2c-21.5,0-38.8,17.3-38.8,38.9
		c0,21.6,17.3,38.9,38.8,38.9c12.2,0,22.9-5.5,30.1-14.2l1.4,1.2c-7.4,9.2-18.8,14.9-31.5,14.9c-22.6,0-40.7-18.2-40.7-40.8
		C982,1018.8,1000.3,1000.5,1022.7,1000.5z"/>
	<path class="st0" d="M1090,1080.2h-1.8v-77.6h1.8V1080.2z"/>
	<path class="st0" d="M1148.1,1002.5h2l32,77.6h-1.9l-11.2-27.1h-39.9l-11.2,27.1h-1.9L1148.1,1002.5z M1168.4,1051.6l-17.2-41.6
		l-2-5.4l-2,5.3l-17.3,41.8H1168.4z"/>
	<path class="st0" d="M1305.3,1040.2c0,22.7-13.1,40-38.2,40h-27.4v-77.6h27.4C1292.2,1002.5,1305.3,1019,1305.3,1040.2z
		 M1267.1,1078.6c23.9,0,36.5-16.8,36.5-38.5c0-20.1-12.6-36.1-36.5-36.1h-25.6v74.6H1267.1z"/>
	<path class="st0" d="M1354.6,1002.5h2l32,77.6h-1.9l-11.2-27.1h-39.9l-11.2,27.1h-1.9L1354.6,1002.5z M1374.8,1051.6l-17.2-41.6
		l-2-5.4l-2,5.3l-17.3,41.8H1374.8z"/>
	<path class="st0" d="M1456,1004h-29.8v76.1h-1.8V1004h-29.8v-1.5h61.3V1004z"/>
	<path class="st0" d="M1533.7,1004H1504v76.1h-1.8V1004h-29.8v-1.5h61.3V1004z"/>
	<path class="st0" d="M1562.6,1080.2h-1.8v-77.6h1.8V1080.2z"/>
	<path class="st0" d="M1600.7,1078.6h49.1v1.5h-50.8v-77.6h1.8V1078.6z"/>
	<path class="st0" d="M1703.6,1000.5c22.7,0,40.8,18.2,40.8,40.8c0,22.6-18.2,40.8-40.8,40.8s-40.7-18.2-40.7-40.8
		C1662.9,1018.8,1681.1,1000.5,1703.6,1000.5z M1703.6,1080.3c21.5,0,38.9-17.4,38.9-38.9c0-21.5-17.4-38.9-38.9-38.9
		c-21.4,0-38.9,17.4-38.9,38.9C1664.7,1062.9,1682.2,1080.3,1703.6,1080.3z"/>
</g>
<g>
	<path d="M1007.5,1133.3c0.3,0.5,0.6,0.8,0.9,1c0.3,0.2,0.7,0.3,1.1,0.3v0.3h-4.2v-0.3c0.6,0,0.9-0.2,1.1-0.5l-4.3-11.6h-15.9
		c-0.5,1.4-0.7,2.5-0.7,3.3c0,2.3,0.7,4.2,2.1,5.6c0.3,0.4,0.8,0.7,1.3,1.1c0.5,0.3,1.2,0.7,2,1c0.8,0.3,1.7,0.5,2.7,0.7
		c1,0.2,2.2,0.3,3.6,0.3h0.2c0.6,0,1.1-0.2,1.5-0.5c0.4-0.3,0.7-0.6,0.9-0.8h0.5l-1.2,1.8h-1.7h-0.1h-0.1c-1.4,0-2.6-0.1-3.7-0.3
		c-1.1-0.2-2-0.4-2.8-0.7c-0.8-0.3-1.5-0.6-2-1c-0.5-0.4-1-0.7-1.4-1.1c-1.5-1.5-2.3-3.4-2.3-5.9c0-1,0.2-2.1,0.7-3.6
		c0.5-1.4,1.1-2.9,1.8-4.5s1.5-3.2,2.4-4.8c0.9-1.6,1.7-3.1,2.4-4.4c0.8-1.3,1.4-2.4,1.9-3.2c0.5-0.9,0.8-1.3,0.9-1.5h0h3v0.4
		c-0.3,0-0.5,0-0.7,0.1c-0.2,0-0.4,0.2-0.5,0.5l10.2,27.6L1007.5,1133.3L1007.5,1133.3z M1001.8,1122l-6.4-17.5
		c-0.2,0.3-0.5,0.8-0.9,1.5c-0.4,0.7-0.9,1.5-1.5,2.5c-0.6,0.9-1.1,2-1.8,3.1c-0.6,1.1-1.2,2.3-1.8,3.5c-0.6,1.2-1.2,2.4-1.7,3.6
		c-0.5,1.2-1,2.3-1.3,3.3H1001.8z"/>
	<path d="M1038.8,1132.7c0.4,0.6,0.8,1,1.3,1.4c0.5,0.4,1,0.6,1.4,0.6v0.3h-2.9l0-0.1v0.1h-1.5v-0.3c0.5,0,0.7-0.2,0.7-0.5
		c0-0.3-0.2-0.8-0.5-1.4l-5.9-9.5h-11.2v9.3c0,0.9,0.1,1.5,0.3,1.7c0.2,0.2,0.6,0.4,1,0.4v0.3h-4.2v-0.3c0.5,0,0.8-0.1,1-0.3
		c0.2-0.2,0.3-0.7,0.4-1.5v-26.7c0-0.8-0.2-1.2-0.4-1.5c-0.2-0.2-0.5-0.3-1-0.3v-0.3h2.4h13.2c1.3,0,2.6,0.3,3.8,0.8
		c1.2,0.5,2.2,1.2,3.1,2c0.9,0.9,1.5,1.9,2,3.1c0.5,1.1,0.8,2.4,0.8,3.7c0,1.3-0.3,2.6-0.8,3.7c-0.5,1.2-1.2,2.2-2,3.1
		c-0.9,0.9-1.9,1.6-3,2.1c-1.1,0.5-2.4,0.8-3.7,0.8L1038.8,1132.7L1038.8,1132.7z M1032,1122.7c1.2,0,2.4-0.2,3.6-0.7
		c1.1-0.5,2.1-1.1,2.9-1.9c0.8-0.8,1.5-1.8,1.9-2.9c0.5-1.1,0.7-2.3,0.7-3.5c0-1.2-0.2-2.4-0.7-3.5c-0.5-1.1-1.1-2.1-1.9-2.9
		c-0.8-0.8-1.8-1.5-2.9-1.9c-1.1-0.5-2.3-0.7-3.6-0.7h-11.8v18.2H1032z"/>
	<path d="M1071.1,1134.8c0.5,0.8,1,1.5,1.5,2.3c0.5,0.7,1,1.3,1.6,1.9c0.6,0.5,1.2,0.9,1.9,1.2c0.7,0.2,1.6,0.3,2.6,0.1l0.1,0.4
		c-1.1,0.2-2.1,0.2-3,0c-0.9-0.2-1.8-0.6-2.6-1.2c-0.8-0.5-1.6-1.2-2.3-1.9c-0.7-0.7-1.3-1.5-1.8-2.3c-0.4,0.1-0.7,0.1-1.1,0.1
		c-0.4,0-0.8,0-1.2,0c-2.1,0-4.1-0.4-6-1.3c-1.9-0.8-3.5-2-4.9-3.4c-1.4-1.4-2.5-3.1-3.3-5c-0.8-1.9-1.2-4-1.2-6.2
		c0-2.2,0.4-4.3,1.2-6.2c0.8-1.9,1.9-3.6,3.3-5.1c1.4-1.4,3-2.6,4.9-3.4c1.9-0.8,3.9-1.3,6-1.3c2.1,0,4.1,0.4,5.9,1.3
		c1.9,0.8,3.5,2,4.9,3.4c1.4,1.4,2.5,3.1,3.3,5.1c0.8,1.9,1.2,4,1.2,6.2c0,1.8-0.3,3.5-0.8,5.2c-0.6,1.6-1.3,3.1-2.3,4.5
		c-1,1.3-2.1,2.5-3.5,3.4C1074.1,1133.6,1072.7,1134.3,1071.1,1134.8z M1070.4,1133.8c2.2-0.4,4.2-1.3,5.9-2.6
		c1.8-1.3,3.1-3.1,4.1-5.2c0.8-1.8,1.2-3.7,1.2-5.6s-0.4-3.8-1.1-5.5c-0.7-1.8-1.7-3.4-3.1-4.8c-1.4-1.5-3-2.6-4.8-3.5
		c-1.9-0.9-3.8-1.4-5.7-1.5c-2-0.1-3.8,0.1-5.5,0.7c-1.7,0.6-3.3,1.5-4.7,2.8c-1.4,1.2-2.5,2.8-3.3,4.6c-0.8,1.8-1.2,3.7-1.2,5.6
		s0.4,3.8,1.1,5.5c0.7,1.8,1.7,3.4,3.1,4.9c1.4,1.5,3,2.7,4.8,3.5c2.4,1.1,4.8,1.6,7.3,1.5c-0.4-0.7-0.8-1.3-1.2-1.9
		c-0.4-0.6-0.8-1.1-1.3-1.5c-0.5-0.4-1-0.7-1.6-0.9c-0.6-0.2-1.3-0.2-2.2,0l-0.1-0.4c1-0.2,1.8-0.2,2.6,0c0.8,0.2,1.5,0.5,2.2,0.9
		c0.7,0.4,1.3,1,1.9,1.6C1069.3,1132.5,1069.9,1133.1,1070.4,1133.8L1070.4,1133.8z"/>
	<path d="M1118.2,1103.9v0.3c-0.5,0-0.9,0.1-1.1,0.4c-0.2,0.2-0.3,0.8-0.3,1.7v18.7c0,1.4-0.3,2.7-0.8,3.9c-0.5,1.2-1.3,2.2-2.2,3.1
		c-1,0.9-2.1,1.6-3.3,2.1c-1.3,0.5-2.6,0.8-4.1,0.8h-3.1c-1.4,0-2.8-0.3-4.1-0.8c-1.3-0.5-2.4-1.2-3.3-2.1c-1-0.9-1.7-1.9-2.3-3.1
		c-0.6-1.2-0.8-2.5-0.8-3.9v-19.1c-0.1-0.7-0.2-1.1-0.4-1.3c-0.2-0.2-0.5-0.3-1-0.3v-0.3h4.5v0.3c-0.4,0-0.7,0.1-0.9,0.2
		c-0.2,0.2-0.4,0.5-0.4,1l0.2,19.5c0,1.3,0.3,2.5,0.9,3.6c0.6,1.1,1.4,2,2.2,2.8c0.9,0.8,1.8,1.4,2.8,1.8c1,0.4,1.9,0.7,2.7,0.7
		l3.1,0c1.4,0,2.7-0.2,3.9-0.7c1.2-0.4,2.3-1.1,3.2-1.8c0.9-0.8,1.6-1.7,2.1-2.8c0.5-1.1,0.8-2.3,0.8-3.6V1106
		c-0.1-0.7-0.2-1.1-0.4-1.4c-0.2-0.2-0.6-0.3-1-0.3v-0.3L1118.2,1103.9z"/>
	<path d="M1130,1132.6c0,0.9,0.1,1.5,0.3,1.7c0.2,0.2,0.6,0.4,1,0.4v0.3h-4.2v-0.3c0.5,0,0.8-0.1,1-0.3c0.2-0.2,0.3-0.8,0.4-1.6
		v-26.3c0-0.9-0.1-1.4-0.3-1.6c-0.2-0.2-0.6-0.4-1-0.4v-0.3h4.2v0.3c-0.5,0-0.8,0.1-1,0.4c-0.2,0.2-0.3,0.8-0.3,1.6L1130,1132.6
		L1130,1132.6z"/>
	<path d="M1164.3,1104v1.9h-0.3c0-0.5-0.1-0.8-0.3-1c-0.2-0.2-0.8-0.3-1.7-0.3h-9.4v28.1c0,0.9,0.1,1.5,0.3,1.7
		c0.2,0.2,0.6,0.4,1,0.4v0.3h-4.2v-0.3c0.5,0,0.8-0.1,1-0.3c0.2-0.2,0.3-0.8,0.4-1.6v-28.2h-9.4c-0.9,0-1.5,0.1-1.7,0.3
		c-0.2,0.2-0.4,0.6-0.4,1h-0.3v-1.9H1164.3z"/>
	<path d="M1194.6,1133.2h0.5l-1.1,1.8H1174h-1.8v-0.3c0.5,0,0.8-0.1,1-0.3c0.2-0.2,0.4-0.8,0.4-1.6v-26.6c0-0.8-0.2-1.2-0.4-1.5
		c-0.2-0.2-0.5-0.3-1-0.3v-0.3h2h19.8l1.1,1.8h-0.5c-0.2-0.2-0.4-0.4-0.5-0.6c-0.1-0.2-0.2-0.3-0.4-0.4c-0.1-0.1-0.3-0.2-0.6-0.2
		c-0.2-0.1-0.6-0.1-1-0.1H1175v15.1h13c0.9,0,1.5-0.1,1.7-0.3c0.2-0.2,0.4-0.6,0.4-1h0.3v3.2h-0.3c0-0.5-0.1-0.8-0.4-1
		c-0.2-0.2-0.8-0.3-1.7-0.3h-13v14.6h17.2c0.4,0,0.7-0.1,0.9-0.1c0.2-0.1,0.4-0.1,0.6-0.2c0.1-0.1,0.3-0.2,0.4-0.4
		C1194.2,1133.6,1194.4,1133.4,1194.6,1133.2L1194.6,1133.2z"/>
	<path d="M1226.7,1104v1.9h-0.3c0-0.5-0.1-0.8-0.3-1c-0.2-0.2-0.8-0.3-1.7-0.3h-9.4v28.1c0,0.9,0.1,1.5,0.3,1.7
		c0.2,0.2,0.6,0.4,1,0.4v0.3h-4.2v-0.3c0.5,0,0.8-0.1,1-0.3c0.2-0.2,0.3-0.8,0.4-1.6v-28.2h-9.4c-0.9,0-1.5,0.1-1.7,0.3
		c-0.2,0.2-0.4,0.6-0.4,1h-0.3v-1.9H1226.7z"/>
	<path d="M1261.2,1103.9v0.3c-0.5,0-0.9,0.1-1.1,0.4c-0.2,0.2-0.3,0.8-0.3,1.7v18.7c0,1.4-0.3,2.7-0.8,3.9c-0.5,1.2-1.3,2.2-2.2,3.1
		c-1,0.9-2.1,1.6-3.3,2.1c-1.3,0.5-2.6,0.8-4.1,0.8h-3.1c-1.4,0-2.8-0.3-4.1-0.8c-1.3-0.5-2.4-1.2-3.3-2.1c-1-0.9-1.7-1.9-2.3-3.1
		c-0.6-1.2-0.8-2.5-0.8-3.9v-19.1c-0.1-0.7-0.2-1.1-0.4-1.3c-0.2-0.2-0.5-0.3-1-0.3v-0.3h4.5v0.3c-0.4,0-0.7,0.1-0.9,0.2
		c-0.2,0.2-0.4,0.5-0.4,1l0.2,19.5c0,1.3,0.3,2.5,0.9,3.6c0.6,1.1,1.4,2,2.2,2.8c0.9,0.8,1.8,1.4,2.8,1.8c1,0.4,1.9,0.7,2.7,0.7
		l3.1,0c1.4,0,2.7-0.2,3.9-0.7c1.2-0.4,2.3-1.1,3.2-1.8c0.9-0.8,1.6-1.7,2.1-2.8c0.5-1.1,0.8-2.3,0.8-3.6V1106
		c-0.1-0.7-0.2-1.1-0.4-1.4c-0.2-0.2-0.6-0.3-1-0.3v-0.3L1261.2,1103.9z"/>
	<path d="M1291.7,1132.7c0.4,0.6,0.8,1,1.3,1.4c0.5,0.4,1,0.6,1.4,0.6v0.3h-2.9l0-0.1v0.1h-1.5v-0.3c0.5,0,0.7-0.2,0.7-0.5
		c0-0.3-0.2-0.8-0.5-1.4l-5.9-9.5H1273v9.3c0,0.9,0.1,1.5,0.3,1.7c0.2,0.2,0.6,0.4,1,0.4v0.3h-4.2v-0.3c0.5,0,0.8-0.1,1-0.3
		c0.2-0.2,0.3-0.7,0.4-1.5v-26.7c0-0.8-0.2-1.2-0.4-1.5c-0.2-0.2-0.5-0.3-1-0.3v-0.3h2.4h13.2c1.3,0,2.6,0.3,3.8,0.8
		c1.2,0.5,2.2,1.2,3.1,2c0.9,0.9,1.5,1.9,2,3.1c0.5,1.1,0.8,2.4,0.8,3.7c0,1.3-0.3,2.6-0.8,3.7c-0.5,1.2-1.2,2.2-2,3.1
		c-0.9,0.9-1.9,1.6-3,2.1c-1.1,0.5-2.4,0.8-3.7,0.8L1291.7,1132.7L1291.7,1132.7z M1284.9,1122.7c1.2,0,2.4-0.2,3.6-0.7
		c1.1-0.5,2.1-1.1,2.9-1.9c0.8-0.8,1.5-1.8,1.9-2.9c0.5-1.1,0.7-2.3,0.7-3.5c0-1.2-0.2-2.4-0.7-3.5c-0.5-1.1-1.1-2.1-1.9-2.9
		c-0.8-0.8-1.8-1.5-2.9-1.9c-1.1-0.5-2.3-0.7-3.6-0.7h-11.8v18.2H1284.9z"/>
	<path d="M1325.7,1133.3c0.3,0.5,0.6,0.8,0.9,1c0.3,0.2,0.7,0.3,1.1,0.3v0.3h-4.2v-0.3c0.6,0,0.9-0.2,1.1-0.5l-4.3-11.6h-15.9
		c-0.5,1.4-0.7,2.5-0.7,3.3c0,2.3,0.7,4.2,2.1,5.6c0.3,0.4,0.8,0.7,1.3,1.1c0.5,0.3,1.2,0.7,2,1c0.8,0.3,1.7,0.5,2.7,0.7
		c1,0.2,2.2,0.3,3.6,0.3h0.2c0.6,0,1.1-0.2,1.5-0.5c0.4-0.3,0.7-0.6,0.9-0.8h0.5l-1.2,1.8h-1.7h-0.1h-0.1c-1.4,0-2.6-0.1-3.7-0.3
		c-1.1-0.2-2-0.4-2.8-0.7c-0.8-0.3-1.5-0.6-2-1c-0.5-0.4-1-0.7-1.4-1.1c-1.5-1.5-2.3-3.4-2.3-5.9c0-1,0.2-2.1,0.7-3.6
		c0.5-1.4,1.1-2.9,1.8-4.5c0.7-1.6,1.5-3.2,2.4-4.8c0.9-1.6,1.7-3.1,2.4-4.4c0.8-1.3,1.4-2.4,1.9-3.2c0.5-0.9,0.8-1.3,0.9-1.5h0h3
		v0.4c-0.3,0-0.5,0-0.7,0.1c-0.2,0-0.4,0.2-0.5,0.5l10.2,27.6L1325.7,1133.3L1325.7,1133.3z M1320,1122l-6.4-17.5
		c-0.2,0.3-0.5,0.8-0.9,1.5c-0.4,0.7-0.9,1.5-1.5,2.5c-0.6,0.9-1.1,2-1.8,3.1c-0.6,1.1-1.2,2.3-1.8,3.5c-0.6,1.2-1.2,2.4-1.7,3.6
		c-0.5,1.2-1,2.3-1.3,3.3H1320z"/>
	<path d="M1378,1133.2h0.5l-1.1,1.8h-20.1h-1.8v-0.3c0.5,0,0.8-0.1,1-0.3c0.2-0.2,0.4-0.8,0.4-1.6v-26.6c0-0.8-0.2-1.2-0.4-1.5
		c-0.2-0.2-0.5-0.3-1-0.3v-0.3h2h19.8l1.1,1.8h-0.5c-0.2-0.2-0.4-0.4-0.5-0.6c-0.1-0.2-0.2-0.3-0.4-0.4c-0.1-0.1-0.3-0.2-0.6-0.2
		c-0.2-0.1-0.6-0.1-1-0.1h-17.1v15.1h13c0.9,0,1.5-0.1,1.7-0.3c0.2-0.2,0.4-0.6,0.4-1h0.3v3.2h-0.3c0-0.5-0.1-0.8-0.4-1
		c-0.2-0.2-0.8-0.3-1.7-0.3h-13v14.6h17.2c0.4,0,0.7-0.1,0.9-0.1c0.2-0.1,0.4-0.1,0.6-0.2c0.1-0.1,0.3-0.2,0.4-0.4
		C1377.6,1133.6,1377.8,1133.4,1378,1133.2L1378,1133.2z"/>
	<path d="M1409.8,1132.6c0,0.9,0.1,1.5,0.3,1.7c0.2,0.2,0.6,0.4,1,0.4v0.3h-4.2v-0.3c0.5,0,0.8-0.1,1-0.3c0.2-0.2,0.3-0.8,0.4-1.6
		v-26.3c0-0.9-0.1-1.4-0.3-1.6c-0.2-0.2-0.6-0.4-1-0.4v-0.3h4.2v0.3c-0.5,0-0.8,0.1-1,0.4c-0.2,0.2-0.3,0.8-0.3,1.6L1409.8,1132.6
		L1409.8,1132.6z"/>
	<path d="M1448.8,1104v0.3c-0.5,0-0.8,0.1-1,0.3c-0.2,0.2-0.4,0.8-0.4,1.6v28.7h-2l-21.8-29.4c-0.1-0.1-0.1-0.1-0.2-0.2
		c-0.1-0.1-0.2-0.2-0.2-0.2v27.5c0,0.9,0.1,1.5,0.3,1.7c0.2,0.2,0.6,0.4,1,0.4v0.3h-3.2v-0.3c0.5,0,0.8-0.1,1-0.3
		c0.2-0.2,0.3-0.7,0.4-1.5v-28c-0.5-0.2-1-0.3-1.3-0.4c-0.2,0-0.4-0.1-0.6-0.1v-0.3h3.6l22.6,30.5v-28.1c0-0.9-0.2-1.4-0.4-1.6
		c-0.2-0.2-0.6-0.3-1-0.3v-0.3H1448.8z"/>
	<path d="M1481.5,1104v1.9h-0.3c0-0.5-0.1-0.8-0.3-1c-0.2-0.2-0.8-0.3-1.7-0.3h-9.4v28.1c0,0.9,0.1,1.5,0.3,1.7s0.6,0.4,1,0.4v0.3
		h-4.2v-0.3c0.5,0,0.8-0.1,1-0.3c0.2-0.2,0.3-0.8,0.4-1.6v-28.2h-9.4c-0.9,0-1.5,0.1-1.7,0.3c-0.2,0.2-0.4,0.6-0.4,1h-0.3v-1.9
		H1481.5z"/>
	<path d="M1511.8,1133.2h0.5l-1.1,1.8h-20.1h-1.8v-0.3c0.5,0,0.8-0.1,1-0.3c0.2-0.2,0.4-0.8,0.4-1.6v-26.6c0-0.8-0.2-1.2-0.4-1.5
		s-0.5-0.3-1-0.3v-0.3h2h19.8l1.1,1.8h-0.5c-0.2-0.2-0.4-0.4-0.5-0.6c-0.1-0.2-0.2-0.3-0.4-0.4c-0.1-0.1-0.3-0.2-0.6-0.2
		c-0.2-0.1-0.6-0.1-1-0.1h-17.1v15.1h13c0.9,0,1.5-0.1,1.7-0.3c0.2-0.2,0.4-0.6,0.4-1h0.3v3.2h-0.3c0-0.5-0.1-0.8-0.4-1
		c-0.2-0.2-0.8-0.3-1.7-0.3h-13v14.6h17.2c0.4,0,0.7-0.1,0.9-0.1c0.2-0.1,0.4-0.1,0.6-0.2c0.1-0.1,0.3-0.2,0.4-0.4
		C1511.4,1133.6,1511.6,1133.4,1511.8,1133.2L1511.8,1133.2z"/>
	<path d="M1542.3,1132.7c0.4,0.6,0.8,1,1.3,1.4c0.5,0.4,1,0.6,1.4,0.6v0.3h-2.9l0-0.1v0.1h-1.5v-0.3c0.5,0,0.7-0.2,0.7-0.5
		s-0.2-0.8-0.5-1.4l-5.9-9.5h-11.2v9.3c0,0.9,0.1,1.5,0.3,1.7c0.2,0.2,0.6,0.4,1,0.4v0.3h-4.2v-0.3c0.5,0,0.8-0.1,1-0.3
		c0.2-0.2,0.3-0.7,0.4-1.5v-26.7c0-0.8-0.2-1.2-0.4-1.5c-0.2-0.2-0.5-0.3-1-0.3v-0.3h2.4h13.2c1.3,0,2.6,0.3,3.8,0.8
		c1.2,0.5,2.2,1.2,3.1,2c0.9,0.9,1.5,1.9,2,3.1c0.5,1.1,0.8,2.4,0.8,3.7c0,1.3-0.3,2.6-0.8,3.7c-0.5,1.2-1.2,2.2-2,3.1
		c-0.9,0.9-1.9,1.6-3,2.1c-1.1,0.5-2.4,0.8-3.7,0.8L1542.3,1132.7L1542.3,1132.7z M1535.4,1122.7c1.2,0,2.4-0.2,3.6-0.7
		c1.1-0.5,2.1-1.1,2.9-1.9c0.8-0.8,1.5-1.8,1.9-2.9c0.5-1.1,0.7-2.3,0.7-3.5c0-1.2-0.2-2.4-0.7-3.5c-0.5-1.1-1.1-2.1-1.9-2.9
		c-0.8-0.8-1.8-1.5-2.9-1.9c-1.1-0.5-2.3-0.7-3.6-0.7h-11.8v18.2H1535.4z"/>
	<path d="M1558.1,1132.6c0,0.9,0.1,1.5,0.3,1.7c0.2,0.2,0.6,0.4,1,0.4v0.3h-4.2v-0.3c0.5,0,0.8-0.1,1-0.3c0.2-0.2,0.3-0.8,0.4-1.6
		v-26.3c0-0.9-0.1-1.4-0.3-1.6c-0.2-0.2-0.6-0.4-1-0.4v-0.3h4.2v0.3c-0.5,0-0.8,0.1-1,0.4c-0.2,0.2-0.3,0.8-0.3,1.6L1558.1,1132.6
		L1558.1,1132.6z"/>
	<path d="M1584.3,1103.6c2.1,0,4.1,0.4,6,1.3c1.9,0.8,3.5,2,4.9,3.4c1.4,1.4,2.5,3.1,3.3,5c0.8,1.9,1.2,4,1.2,6.2
		c0,2.2-0.4,4.3-1.2,6.2c-0.8,1.9-1.9,3.6-3.3,5c-1.4,1.4-3,2.6-4.9,3.4c-1.9,0.8-3.9,1.3-6,1.3c-2.1,0-4.1-0.4-6-1.3
		c-1.9-0.8-3.5-2-4.9-3.4c-1.4-1.4-2.5-3.1-3.3-5c-0.8-1.9-1.2-4-1.2-6.2c0-2.2,0.4-4.3,1.2-6.2c0.8-1.9,1.9-3.6,3.3-5
		c1.4-1.4,3-2.6,4.9-3.4C1580.2,1104,1582.2,1103.6,1584.3,1103.6z M1578.5,1132.5c1.9,0.9,3.8,1.4,5.7,1.5c2,0.1,3.8-0.1,5.5-0.7
		c1.7-0.6,3.3-1.5,4.7-2.8c1.4-1.2,2.5-2.8,3.3-4.5c0.8-1.8,1.2-3.7,1.2-5.6s-0.4-3.8-1.1-5.5c-0.7-1.8-1.7-3.4-3.1-4.8
		c-1.3-1.5-3-2.6-4.8-3.5c-1.9-0.9-3.8-1.4-5.8-1.5c-2-0.1-3.8,0.1-5.6,0.7c-1.7,0.6-3.3,1.5-4.7,2.8c-1.4,1.2-2.5,2.8-3.3,4.6
		c-0.8,1.8-1.2,3.6-1.2,5.5s0.4,3.8,1.1,5.5c0.7,1.8,1.8,3.4,3.1,4.8C1575,1130.4,1576.7,1131.6,1578.5,1132.5z"/>
	<path d="M1630.4,1132.7c0.4,0.6,0.8,1,1.3,1.4c0.5,0.4,1,0.6,1.4,0.6v0.3h-2.9l0-0.1v0.1h-1.5v-0.3c0.5,0,0.7-0.2,0.7-0.5
		s-0.2-0.8-0.5-1.4l-5.9-9.5h-11.2v9.3c0,0.9,0.1,1.5,0.3,1.7c0.2,0.2,0.6,0.4,1,0.4v0.3h-4.2v-0.3c0.5,0,0.8-0.1,1-0.3
		c0.2-0.2,0.3-0.7,0.4-1.5v-26.7c0-0.8-0.2-1.2-0.4-1.5c-0.2-0.2-0.5-0.3-1-0.3v-0.3h2.4h13.2c1.3,0,2.6,0.3,3.8,0.8
		c1.2,0.5,2.2,1.2,3.1,2c0.9,0.9,1.5,1.9,2,3.1c0.5,1.1,0.8,2.4,0.8,3.7c0,1.3-0.3,2.6-0.8,3.7c-0.5,1.2-1.2,2.2-2,3.1
		c-0.9,0.9-1.9,1.6-3,2.1c-1.1,0.5-2.4,0.8-3.7,0.8L1630.4,1132.7L1630.4,1132.7z M1623.6,1122.7c1.2,0,2.4-0.2,3.6-0.7
		c1.1-0.5,2.1-1.1,2.9-1.9c0.8-0.8,1.5-1.8,1.9-2.9c0.5-1.1,0.7-2.3,0.7-3.5c0-1.2-0.2-2.4-0.7-3.5c-0.5-1.1-1.1-2.1-1.9-2.9
		c-0.8-0.8-1.8-1.5-2.9-1.9c-1.1-0.5-2.3-0.7-3.6-0.7h-11.8v18.2H1623.6z"/>
	<path d="M1665.9,1133.2h0.5l-1.1,1.8h-20.1h-1.8v-0.3c0.5,0,0.8-0.1,1-0.3c0.2-0.2,0.4-0.8,0.4-1.6v-26.6c0-0.8-0.2-1.2-0.4-1.5
		c-0.2-0.2-0.5-0.3-1-0.3v-0.3h2h19.8l1.1,1.8h-0.5c-0.2-0.2-0.4-0.4-0.5-0.6c-0.1-0.2-0.2-0.3-0.4-0.4c-0.1-0.1-0.3-0.2-0.6-0.2
		c-0.2-0.1-0.6-0.1-1-0.1h-17.1v15.1h13c0.9,0,1.5-0.1,1.7-0.3c0.2-0.2,0.4-0.6,0.4-1h0.3v3.2h-0.3c0-0.5-0.1-0.8-0.4-1
		c-0.2-0.2-0.8-0.3-1.7-0.3h-13v14.6h17.2c0.4,0,0.7-0.1,0.9-0.1c0.2-0.1,0.4-0.1,0.6-0.2c0.1-0.1,0.3-0.2,0.4-0.4
		C1665.5,1133.6,1665.7,1133.4,1665.9,1133.2L1665.9,1133.2z"/>
	<path d="M1676.4,1111.3c0,1.6,0.5,2.9,1.5,3.9c1,1,2.3,1.8,3.8,2.5c1.5,0.7,3.2,1.3,4.9,1.7c1.8,0.5,3.4,1.1,4.9,1.7
		c1.5,0.6,2.8,1.4,3.8,2.4c1,1,1.5,2.2,1.5,3.7c0,2.5-1,4.5-3,6c-2,1.5-5.1,2.2-9.2,2.2c-1.9,0-3.5-0.1-4.7-0.3
		c-1.3-0.2-2.4-0.5-3.2-0.8c-1-0.3-1.9-0.7-2.5-1.1l0.9-1.6c0,0.2,0.1,0.5,0.2,0.7c0.1,0.2,0.2,0.4,0.4,0.6c0.2,0.2,0.4,0.4,0.7,0.5
		c0.9,0.4,1.9,0.8,3.2,1.1c1.3,0.3,3,0.5,5,0.5c1.9,0,3.6-0.2,4.8-0.5c1.3-0.3,2.3-0.8,3.1-1.5c0.8-0.6,1.3-1.4,1.6-2.2
		c0.3-0.9,0.5-1.8,0.5-2.9c0-1.5-0.5-2.7-1.4-3.5c-1-0.8-2.1-1.5-3.6-2c-1.4-0.5-3-1-4.6-1.4c-1.7-0.4-3.2-0.9-4.6-1.6
		c-1.4-0.6-2.6-1.5-3.6-2.6c-1-1.1-1.4-2.5-1.4-4.4c0-1.5,0.2-2.7,0.7-3.7c0.5-1,1.1-1.9,1.9-2.5s1.6-1.2,2.5-1.5
		c0.9-0.4,1.8-0.6,2.6-0.8c0.9-0.2,1.6-0.3,2.2-0.3c0.6,0,1.1,0,1.4,0c1.2,0,2.3,0.1,3.1,0.3c0.9,0.2,1.6,0.5,2.1,0.7
		c0.6,0.3,1.1,0.7,1.6,1.1l-0.5,1.1c-0.5-0.5-1-1-1.6-1.4c-0.6-0.4-1.2-0.7-2-1c-0.8-0.3-1.7-0.4-2.8-0.4c-0.5,0-1.1,0-1.8,0.1
		c-0.7,0.1-1.4,0.2-2.2,0.4c-0.8,0.2-1.5,0.5-2.3,0.8c-0.8,0.3-1.4,0.8-2,1.3c-0.6,0.6-1.1,1.2-1.5,2
		C1676.5,1109.3,1676.3,1110.2,1676.4,1111.3L1676.4,1111.3z"/>
</g>
<path d="M1715,1118.2c4.1-5.2,8.1-10.5,12.3-15.7c4.4,5.4,8.7,10.8,13.1,16.2c0.3,0.4,1,1,0.4,1.6c-4.5,5.7-8.9,11.4-13.5,17
	c-4.7-5.6-9.3-11.2-13.9-16.9C1713.8,1119.5,1714.5,1118.9,1715,1118.2 M1715,1120.3c4.2,4.8,8.1,10,12.4,14.8
	c1-0.9,1.7-2.1,2.6-3.1c3.2-4.1,6.5-8.2,9.7-12.4c-4.2-5-8.3-10.2-12.4-15.3C1723.2,1109.7,1719,1115,1715,1120.3z"/>
<path d="M1727,1109c0.1,0,0.4,0.1,0.6,0.1c2.7,3.3,5.3,6.6,8,9.9c0.4,0.5,0.7,1.1,0.1,1.6c-2.7,3.4-5.4,6.8-8.1,10.3l-0.3,0.1
	c-2.9-3.3-5.7-6.9-8.5-10.3c-0.5-0.5,0.1-1.1,0.4-1.6C1721.9,1115.8,1724.5,1112.4,1727,1109 M1726,1111.8c-2.1,2.9-4.5,5.6-6.5,8.5
	c2.8,3,5.1,6.3,7.8,9.3c2.8-3,5.1-6.5,7.8-9.6c-2.1-2.9-4.5-5.6-6.7-8.4c-0.4-0.4-0.6-1-1.2-1.2
	C1726.8,1110.7,1726.4,1111.3,1726,1111.8z"/>
<path d="M943.2,1117.7c4.1-5.2,8.1-10.5,12.3-15.7c4.4,5.4,8.7,10.8,13.1,16.2c0.3,0.4,1,1,0.4,1.6c-4.5,5.7-8.9,11.4-13.5,17
	c-4.7-5.6-9.3-11.2-13.9-16.9C942,1119.1,942.6,1118.4,943.2,1117.7 M943.1,1119.9c4.2,4.8,8.1,10,12.4,14.8c1-0.9,1.7-2.1,2.6-3.1
	c3.2-4.1,6.5-8.2,9.7-12.4c-4.2-5-8.3-10.2-12.4-15.3C951.3,1109.2,947.2,1114.5,943.1,1119.9z"/>
<path d="M955.2,1108.6c0.1,0,0.4,0.1,0.6,0.1c2.7,3.3,5.3,6.6,8,9.9c0.4,0.5,0.7,1.1,0.1,1.6c-2.7,3.4-5.4,6.8-8.1,10.3l-0.3,0.1
	c-2.9-3.3-5.7-6.9-8.5-10.3c-0.5-0.5,0.1-1.1,0.4-1.6C950,1115.3,952.6,1111.9,955.2,1108.6 M954.2,1111.3c-2.1,2.9-4.5,5.6-6.5,8.5
	c2.8,3,5.1,6.3,7.8,9.3c2.8-3,5.1-6.5,7.8-9.6c-2.1-2.9-4.5-5.6-6.7-8.4c-0.4-0.4-0.6-1-1.2-1.2
	C954.9,1110.2,954.6,1110.8,954.2,1111.3z"/>
<g>
	<g>
		<path d="M578.3,878.1c-1.5-4.6-3.1-9-5-13.2c-4.1-9.1-9-15.5-14.7-19.1c-5.8-3.6-11.3-4.5-16.7-2.8c-4.6,1.5-8.5,4.9-11.6,10.2
			c-6.5,12.3-10.1,35.2-10.8,68.6c-0.7,23.5,0.1,52.7,2.5,87.1c-12.4,0.2-25.5-3.4-39.2-10.7c-13.7-7.3-31.1-18.3-52.1-32.9
			c-19.7-13.5-36.1-24-49-31.5S355,921,340.3,917.4c-14.7-3.5-28.8-3.1-42.6,1.5c-15.7,5.2-30.9,16.5-45.4,33.8
			c0.8,0.7,1.4,1.6,1.7,2.6c14-16.9,28.9-28,44.7-33.2c13.7-4.5,27.8-5.1,42.3-1.6s28.2,8.9,41.2,16.5c13,7.5,29.1,17.9,48.3,31
			c21,14.6,38.4,25.6,52.1,32.9c13.7,7.3,26.9,11,39.5,11c1.1,16.4,2.5,32.6,4.1,48.5c1.9,19.4,4.4,42.1,7.5,68
			c0.4,2.9,1.2,6.1,2.3,9.5c1.3,4.1,2.9,7.4,5,10c2.7,3.3,6,4.3,9.9,3.1c2.9-1,5.5-2.9,7.7-5.6c4.3-6.2,8.1-17.5,11.3-33.8
			c3.2-16.3,5.2-38.2,6.1-65.8c0-0.5-0.2-1.1-0.7-1.6c-0.4-0.4-0.8-0.7-1.1-0.6l-0.2,1c-0.9,33.6-3.7,58.7-8.1,75.4
			c-4.4,16.7-9.3,26-14.7,27.8c-2.8,0.9-5.4-0.2-7.7-3.3c-1.2-1.7-2.4-4.3-3.5-7.8c-0.9-2.7-1.5-5.5-1.9-8.4
			c-4.7-38.2-8.4-76.4-10.6-114.6c9,2.7,17.1,2.9,24.4,0.5c14-4.6,24-18.4,29.8-41.2c3.3-12.8,4.7-28.1,4.3-45.9
			C585.6,909.3,583,893,578.3,878.1z M584.1,926.2c0.4,17.4-0.9,32.2-4,44.7c-5.5,22.4-15.3,36-29.3,40.7c-6.8,2.3-14.6,2-23.5-0.8
			c-1.8-25.4-2.8-50.4-3-74.9c-0.3-40.3,2.3-66.8,7.8-79.4c2.5-5.9,6.1-9.6,10.8-11.2c4.9-1.6,10.1-0.7,15.5,3
			c5.4,3.6,9.9,9.6,13.6,17.9c1.8,3.9,3.3,8.1,4.7,12.4C581.2,892.9,583.6,908.8,584.1,926.2z"/>
		<path d="M917.3,927.3c-0.2-0.1-0.4-0.2-0.6-0.2c-0.2,0-0.5,0.1-0.5,0.3c-11.2,13-24.6,21.5-40.3,25.5c-9.8,2.5-20,3.6-30.4,3
			c-10.4-0.5-23.8-1.9-40.1-4.1c-15-2.1-27.1-3.4-36.4-3.9c-9.3-0.5-18.1,0.3-26.4,2.5c-12.7,3.3-23.3,10.2-31.6,20.6
			c-3.7,5.1-9,15.2-16,30.2c-1.8,3.7-3.5,7.3-5.2,10.6c0.4,0.8,0.6,1.6,0.8,2.5c2.2-4.2,4.5-8.9,6.8-13.9c3.7-7.7,6.6-13.8,8.7-18.2
			c2.2-4.4,4.3-7.8,6.4-10.3c7.8-9.8,17.9-16.3,30.4-19.6c8.4-2.2,17.2-3,26.6-2.5c9.3,0.5,21.2,1.7,35.7,3.8
			c16.5,2.2,29.9,3.5,40.4,4c10.5,0.5,20.8-0.5,30.8-3.1c16-4.2,29.7-12.8,40.9-26C917.6,928.2,917.6,927.8,917.3,927.3z"/>
	</g>
	<path d="M686.9,1017.2c-6.4,12.4-13.4,24.2-20.8,35.4c-7.4,11.1-13.7,18.7-18.9,22.8c-1.5,1.2-3.3,2-5.4,2.6
		c-1.9,0.4-3.5,0.1-4.8-0.9c-2.2-1.9-4.1-6.4-5.8-13.4c-2.9-12.3-4.9-31.8-6-58.7c16-31.1,29.1-61.2,39.2-90.5
		c9.5-28.1,12.8-48.1,10.1-60.1c-1.1-5-3.5-8.5-7-10.5c-2.8-1.6-6.1-1.9-10.1-1c-3.3,0.8-6.2,2.3-8.4,4.6
		c-5.2,4.9-9.8,13.6-13.8,26.1c-4,12.4-7.2,27.2-9.6,44.4c-4.5,29.9-6.2,60.8-5.2,92.5c-12.5,23.7-20.8,37.8-25,42.3
		c-1.8,1.9-3.6,3.2-5.4,3.6c-1.6,0.3-3.3,0-4.9-1.2c-3-2.4-5.3-7.1-6.9-14.2c-0.8-3.5-1.1-6.4-1-8.6c0.1-8.1,1.3-14.7,3.7-19.6
		c2.2-4.5,5.7-7.2,10.3-8.2c2.9-0.7,6-0.6,9.2,0.2c4.9,1.5,8.6,3.5,10.9,6c0.5,0.4,1,0.3,1.7,0c0.1-0.2,0.3-0.6,0.3-0.9
		c0.1-0.3-0.1-0.5-0.4-0.8c-3.3-2.9-7.3-5.1-12-6.5c-3.1-1.1-6.8-1-11.2,0c-6.4,1.5-11,4.7-13.5,9.7c-1.1,1.8-1.9,3.5-2.4,5.1
		c-1.1,3.8-1.8,9-1.9,15.9c-0.2,2.2,0.2,5.1,1,8.6c0.8,3.6,2,6.9,3.7,10c1.6,3.1,3.4,5.4,5.5,6.7c2.1,1.3,4.3,1.6,6.8,1
		c2.9-0.7,5.7-2.4,8.3-5.2c4.6-4.8,12.4-17.8,23.4-39.2c0.1,4.3,0.6,11.7,1.5,22c1.1,11.1,2.3,20,3.8,26.4c2.2,9.3,4.8,15,7.8,16.9
		c2.1,1.3,4.4,1.6,7.2,0.9c2.5-0.6,5-1.9,7.6-4.1c5.4-4.1,11.8-11.7,19.4-22.9c7.5-11.1,14.6-23,21.1-35.8
		c6.5-12.6,11.1-22.4,13.6-29.5C701.8,988.7,693.4,1004.8,686.9,1017.2z M632.2,909.3c1.6-11.1,4-22.2,7.3-33.4
		c3.2-11.2,7.2-19.6,11.9-25.6c2.5-3.2,5.2-5.2,7.9-5.7c2.1-0.5,4.5-0.1,7.2,0.9c2.9,1.3,4.9,4.3,6,9.1c2.6,11.4-0.7,31-10.1,58.9
		c-9.2,26.6-21.5,55.4-36.9,86.3C625.2,968,627.4,937.8,632.2,909.3z"/>
</g>
</svg>
