<?xml version="1.0" encoding="utf-8"?>
<!-- Generator: Adobe Illustrator 25.2.1, SVG Export Plug-In . SVG Version: 6.00 Build 0)  -->
<svg version="1.1" id="Camada_1" xmlns="http://www.w3.org/2000/svg" xmlns:xlink="http://www.w3.org/1999/xlink" x="0px" y="0px"
	 viewBox="0 0 2000 2000" style="enable-background:new 0 0 2000 2000;" xml:space="preserve">
<style type="text/css">
	.st0{font-family:'ArialMT';}
	.st1{font-size:12px;}
	.st2{stroke:#1D1D1B;stroke-width:2;stroke-miterlimit:10;}
</style>
<g>
	<path d="M1005.1,775.9c0.8,0.7,1.7,0.8,2.6,0.5l0.1,0.3l-4.3,1.8l-0.1-0.3c0.6-0.2,0.9-0.6,0.9-1l-9.6-10.1l-14.3,6.3l0.3,12.8
		c0,0.6,0.1,1.1,0.4,1.3s0.6,0.2,0.9,0l0.1,0.3l-3.1,1.4l-0.1-0.3c0.7-0.3,1.2-0.9,1.4-1.8l0-1.4l-1-34.4l3.1-1.4l0.1,0.3
		c-0.3,0.1-0.5,0.3-0.7,0.4c-0.2,0.2-0.2,0.5-0.3,0.7l22.7,23.7L1005.1,775.9L1005.1,775.9z M994.3,766.9l-14.4-15.1l0.5,21.1
		L994.3,766.9z"/>
	<path d="M1032.1,766.7c0.6,0.5,1.2,0.9,1.9,1.1c0.6,0.3,1.3,0.3,1.7,0.2l0.1,0.3l-3.1,0.9l-0.1-0.1l0.1,0.1l-1.6,0.5l-0.1-0.3
		c0.5-0.2,0.7-0.4,0.6-0.7c-0.1-0.3-0.4-0.7-1-1.2l-9.3-8.3l-12,3.6l3,10c0.3,1,0.6,1.5,0.9,1.7c0.4,0.2,0.8,0.2,1.2,0.1l0.1,0.3
		l-4.5,1.4l-0.1-0.3c0.5-0.2,0.8-0.4,0.9-0.7c0.2-0.3,0.2-0.9-0.1-1.7l-8.5-28.5c-0.3-0.8-0.5-1.3-0.8-1.5c-0.3-0.2-0.7-0.2-1.2-0.1
		l-0.1-0.3l2.6-0.8l14.1-4.2c1.5-0.4,2.9-0.6,4.3-0.4s2.7,0.6,3.9,1.2c1.2,0.7,2.3,1.5,3.2,2.6s1.6,2.4,2,3.7
		c0.4,1.4,0.5,2.8,0.4,4.2c-0.2,1.4-0.6,2.7-1.2,3.9c-0.7,1.2-1.5,2.3-2.5,3.2c-1.1,0.9-2.3,1.6-3.7,2L1032.1,766.7L1032.1,766.7z
		 M1021.7,758.1c1.4-0.4,2.5-1,3.6-1.8c1.1-0.8,1.9-1.8,2.5-3c0.7-1.2,1-2.4,1.1-3.7c0.2-1.3,0.1-2.7-0.3-4.1
		c-0.4-1.4-1-2.5-1.8-3.6c-0.9-1-1.9-1.8-3-2.5c-1.2-0.7-2.4-1-3.7-1.2c-1.3-0.2-2.7-0.1-4.1,0.3l-12.6,3.7l5.7,19.5L1021.7,758.1z"
		/>
	<path d="M1061.7,763.4c0.7,0.7,1.4,1.6,2.2,2.2c0.7,0.7,1.4,1.3,2.1,1.8c0.7,0.5,1.5,0.8,2.3,0.9c0.8,0.1,1.8,0,2.8-0.4l0.2,0.5
		c-1.2,0.4-2.3,0.6-3.4,0.5c-1.1-0.1-2.1-0.3-3.1-0.8c-1-0.5-2-1-2.8-1.7s-1.7-1.4-2.4-2.2c-0.3,0.1-0.8,0.3-1.3,0.4
		c-0.4,0.1-0.9,0.2-1.3,0.2c-2.4,0.3-4.7,0.3-6.9-0.4c-2.2-0.6-4.2-1.6-6-2.9s-3.3-3-4.6-5s-2-4.1-2.4-6.6c-0.4-2.4-0.3-4.8,0.2-7
		c0.6-2.2,1.5-4.3,2.8-6.2s2.9-3.4,4.8-4.6c1.9-1.2,4.1-2,6.4-2.5c2.3-0.4,4.5-0.2,6.8,0.4c2.2,0.7,4.2,1.6,6,2.9s3.3,3.1,4.6,5
		c1.2,2,2,4.2,2.4,6.7c0.3,2,0.3,3.9-0.1,5.8c-0.4,1.9-0.9,3.7-1.8,5.3c-0.9,1.6-2,3.1-3.3,4.4
		C1064.9,761.6,1063.4,762.7,1061.7,763.4z M1060.9,762.4c2.3-0.9,4.4-2.1,6.1-3.9c1.7-1.8,2.9-3.9,3.6-6.4c0.5-2.1,0.7-4.3,0.3-6.4
		c-0.3-2.1-1.1-4.1-2.1-5.9c-1.1-1.8-2.5-3.5-4.3-4.8s-3.8-2.4-6-3c-2.2-0.7-4.4-0.9-6.6-0.6c-2.1,0.2-4.2,0.8-6,1.8
		c-1.9,1-3.4,2.2-4.7,3.9c-1.3,1.6-2.3,3.5-2.8,5.6s-0.7,4.3-0.3,6.4c0.3,2.1,1.1,4.1,2.1,5.9c1.1,1.8,2.5,3.5,4.3,4.8s3.8,2.4,6,3
		c2.8,0.8,5.6,0.9,8.3,0.4c-0.5-0.7-1.2-1.3-1.6-1.8c-0.6-0.6-1.1-1.1-1.7-1.4c-0.6-0.4-1.3-0.7-2-0.7c-0.7-0.1-1.5,0.1-2.4,0.3
		l-0.2-0.5c1-0.3,2-0.4,2.9-0.4c0.9,0.1,1.8,0.3,2.6,0.7c0.8,0.4,1.6,0.9,2.4,1.4C1059.4,761.2,1060.1,761.8,1060.9,762.4
		L1060.9,762.4z"/>
	<path d="M1107,726.4l0,0.4c-0.6,0-1,0.1-1.3,0.5c-0.3,0.2-0.4,0.9-0.4,2l0.3,20.9c0,1.6-0.3,3-0.9,4.3c-0.6,1.4-1.4,2.5-2.4,3.6
		c-1,1-2.3,1.8-3.7,2.5c-1.4,0.6-2.9,0.9-4.6,0.9l-3.6,0.1c-1.6,0-3.2-0.2-4.5-0.8c-1.4-0.5-2.7-1.3-3.8-2.3c-1.1-0.9-2-2.2-2.6-3.5
		c-0.6-1.3-0.9-2.8-1-4.3l-0.4-21.4c-0.1-0.8-0.3-1.2-0.5-1.5c-0.3-0.2-0.6-0.3-1.1-0.3l0-0.4l5-0.1l0,0.4c-0.4,0-0.8,0.1-1,0.3
		c-0.3,0.2-0.4,0.6-0.5,1.2l0.6,21.8c0,1.5,0.4,2.8,1.1,4c0.7,1.1,1.5,2.2,2.5,3.1c1,0.8,2,1.6,3.2,2c1.1,0.4,2.1,0.7,3,0.7l3.5,0
		c1.6,0,3-0.2,4.3-0.8c1.4-0.5,2.6-1.2,3.6-2.2c1-0.9,1.7-2,2.3-3.2c0.6-1.2,0.9-2.6,0.8-4l-0.4-21.3c-0.1-0.8-0.3-1.2-0.5-1.5
		c-0.3-0.2-0.6-0.3-1.1-0.3l0-0.4L1107,726.4z"/>
	<path d="M1114.6,759.3c-0.1,1,0,1.7,0.2,2c0.2,0.3,0.6,0.5,1.1,0.4l0,0.4l-4.7-0.3l0-0.4c0.5,0,0.9-0.1,1.1-0.3s0.5-0.8,0.5-1.8
		l1.9-29.4c0.1-0.9,0-1.6-0.3-1.9c-0.2-0.3-0.6-0.5-1.1-0.4l0-0.4l4.7,0.3l0,0.4c-0.5,0-0.9,0.1-1.2,0.4c-0.3,0.3-0.5,0.9-0.5,1.8
		L1114.6,759.3L1114.6,759.3z"/>
	<path d="M1151.1,731.4l-0.3,2.1l-0.4,0c0-0.5,0-0.9-0.3-1.2c-0.2-0.3-0.8-0.5-1.9-0.7l-10.4-1.5l-4.3,31.1c-0.1,1-0.1,1.6,0.2,1.9
		c0.2,0.3,0.6,0.5,1.1,0.5l0,0.4l-4.7-0.7l0-0.4c0.5,0,0.9,0,1.2-0.3c0.3-0.2,0.5-0.8,0.6-1.7l4.3-31.3l-10.3-1.4
		c-1-0.1-1.6-0.1-1.9,0.2c-0.3,0.2-0.5,0.6-0.5,1.1l-0.4,0l0.3-2.1L1151.1,731.4z"/>
	<path d="M1173.4,770.4l0.6,0.2l-1.8,1.7l-21.7-5.5l-1.9-0.5l0.1-0.4c0.5,0.1,0.9,0.1,1.2-0.1c0.3-0.2,0.6-0.7,0.9-1.6l7.2-28.9
		c0.1-0.8,0.2-1.4,0-1.7c-0.1-0.2-0.5-0.6-1-0.6l0.1-0.4l2.2,0.6l21.5,5.4l0.8,2.3l-0.6-0.2c-0.2-0.3-0.3-0.6-0.4-0.7
		c0-0.2-0.2-0.4-0.4-0.5c-0.2-0.2-0.3-0.3-0.5-0.4c-0.3-0.2-0.5-0.3-1-0.4l-18.6-4.6l-4.1,16.3l14.2,3.5c1,0.3,1.6,0.3,2,0.1
		c0.4-0.2,0.6-0.6,0.7-1l0.4,0.1l-0.8,3.5l-0.4-0.1c0.1-0.5,0.1-0.9-0.2-1.2c-0.2-0.3-0.8-0.5-1.7-0.8L1156,751l-3.9,15.8l18.6,4.7
		c0.4,0,0.8,0.1,1,0.1c0.3,0,0.5,0,0.7-0.1c0.2,0,0.4-0.2,0.5-0.4C1172.9,770.7,1173.2,770.5,1173.4,770.4L1173.4,770.4z"/>
	<path d="M1212.5,749.8l-0.7,2l-0.4-0.1c0.1-0.5,0.2-0.9,0.1-1.2c-0.1-0.3-0.7-0.6-1.7-1l-9.9-3.6l-10.8,29.4
		c-0.4,0.9-0.5,1.5-0.3,1.9c0.2,0.4,0.4,0.7,0.9,0.8l-0.1,0.4l-4.4-1.6l0.1-0.4c0.5,0.1,0.9,0.2,1.1,0c0.3-0.1,0.6-0.7,1-1.5
		l10.9-29.6l-9.8-3.6c-0.9-0.4-1.5-0.5-1.9-0.3c-0.3,0.1-0.7,0.4-0.8,0.9l-0.4-0.1l0.7-2L1212.5,749.8z"/>
	<path d="M1244.9,765.7l-0.2,0.4c-0.5-0.3-1-0.3-1.3-0.2c-0.3,0.1-0.7,0.6-1.2,1.6l-9.4,18.6c-0.7,1.4-1.6,2.5-2.8,3.4
		c-1.1,0.9-2.5,1.6-3.8,2c-1.4,0.4-2.9,0.5-4.4,0.5c-1.5-0.1-3.1-0.6-4.4-1.2l-3.2-1.6c-1.4-0.7-2.6-1.6-3.6-2.9
		c-1-1.1-1.8-2.4-2.3-3.8s-0.7-2.8-0.7-4.3c0-1.5,0.4-2.9,1.2-4.2l9.7-19.1c0.3-0.7,0.4-1.2,0.2-1.5c-0.1-0.3-0.4-0.5-0.8-0.8
		l0.2-0.4l4.4,2.3l-0.2,0.4c-0.4-0.2-0.7-0.3-1.1-0.2c-0.3,0-0.6,0.3-1,0.8l-9.7,19.5c-0.7,1.3-1,2.6-0.9,4s0.3,2.7,0.8,3.9
		s1.1,2.3,1.8,3.3c0.8,1,1.6,1.6,2.3,2l3.2,1.7c1.4,0.7,2.8,1.1,4.2,1.3c1.4,0.2,2.8,0.1,4.1-0.2c1.3-0.4,2.5-0.9,3.6-1.8
		c1.1-0.8,1.9-1.9,2.6-3.2l9.7-19c0.3-0.7,0.4-1.2,0.3-1.6c-0.1-0.3-0.4-0.7-0.9-0.9l0.2-0.4L1244.9,765.7z"/>
	<path d="M1276.5,829.9c-0.1,1.1,0.2,1.9,0.8,2.4l-0.2,0.4l-3.8-2.8l0.2-0.4c0.5,0.4,0.9,0.5,1.3,0.3l4-13.3l-14.1-10.6
		c-0.7,0.4-1.2,0.9-1.7,1.3c-0.5,0.4-0.9,0.8-1.2,1.2c-1.6,2-2.2,4.2-1.9,6.5c0,0.5,0.2,1.1,0.4,1.8c0.2,0.7,0.6,1.4,1.1,2.2
		c0.5,0.8,1.2,1.6,2,2.5c0.8,0.9,1.9,1.8,3.1,2.7l0.2,0.2c0.6,0.4,1.2,0.7,1.7,0.5c0.6,0,1.1-0.1,1.4-0.1l0.4,0.3l-2.3,0.9l-1.6-1.2
		l-0.1,0l-0.2-0.2c-0.2-0.2-0.4-0.3-0.6-0.5s-0.3-0.3-0.5-0.5l0,0.1c-3-2.3-5.3-4.3-6.8-6.1s-2.6-3.5-3.3-5c-0.6-1.4-0.9-2.9-0.9-4
		c0.1-1.2,0.2-2.3,0.3-3.4c0.1-0.7,0.2-1.3,0.3-1.9s0.1-1.2,0-1.8s-0.3-1.2-0.6-1.8c-0.3-0.6-0.9-1.2-1.6-1.8l-10.4-7.8l-6.3,8.4
		c-0.5,0.8-0.8,1.3-0.7,1.8c0.1,0.3,0.3,0.7,0.7,1.1l-0.2,0.4l-1.4-1l-1.1-0.9l-1.4-1l0.2-0.4c0.4,0.3,0.8,0.5,1.1,0.3
		c0.3-0.1,0.9-0.5,1.4-1.2l17.5-23.3c0.5-0.8,0.8-1.4,0.8-1.7c0-0.3-0.3-0.7-0.6-1l0.2-0.4l1.2,0.9l12.7,9.5c1.2,0.9,2.1,2,2.9,3.3
		c0.7,1.2,1.1,2.5,1.4,3.9c0.2,1.4,0.1,2.7-0.2,4.1s-0.9,2.7-1.8,3.9c-0.9,1.1-1.8,2-2.9,2.7c-1.1,0.7-2.3,1.2-3.6,1.4
		c-1.2,0.3-2.5,0.3-3.8,0.1s-2.5-0.5-3.7-1.2c0.9,1.2,1.4,2.3,1.6,3.5c0.2,1.2,0.1,2.3-0.1,3.3c-0.2,0.9-0.3,1.8-0.5,2.8
		c-0.2,1-0.1,2.1,0.2,3.2c0.3,1.1,1,2.4,1.8,3.8c0.9,1.4,2.4,3,4.4,4.8c-0.8-1.1-1.4-2-1.8-3c-0.3-0.9-0.6-1.8-0.7-2.4
		c-0.3-2.4,0.3-4.6,1.9-6.8c0.7-0.8,1.7-1.8,3-2.7c1.3-1,3-1.8,4.7-2.8c1.7-0.9,3.5-1.8,5.4-2.7c1.8-0.9,3.5-1.7,5.1-2.3
		s2.9-1.2,3.9-1.6c1.1-0.4,1.7-0.7,1.8-0.7l0.1,0l2.7,1.9l-0.2,0.3c-0.5-0.4-1-0.5-1.5-0.2l-9.5,31.5l-0.3,0.9L1276.5,829.9z
		 M1252.8,797.1c1.1,0.9,2.3,1.4,3.7,1.7c1.3,0.3,2.6,0.4,3.9,0.2c1.3-0.1,2.5-0.6,3.7-1.3c1.1-0.7,2.1-1.6,3-2.7
		c0.9-1.1,1.4-2.3,1.7-3.7c0.3-1.3,0.4-2.6,0.2-3.9c-0.1-1.3-0.6-2.6-1.2-3.7c-0.7-1.1-1.6-2.1-2.7-3l-10.6-8l-12.2,16.2
		L1252.8,797.1z M1278.9,815.9l6-20c-0.3,0.1-0.9,0.3-1.8,0.7c-0.8,0.4-1.8,0.7-2.9,1.2c-1.1,0.5-2.4,1.1-3.6,1.6
		c-1.3,0.5-2.7,1.2-4,1.8c-1.3,0.6-2.7,1.4-4,2.1c-1.3,0.8-2.4,1.5-3.4,2.1L1278.9,815.9z"/>
	<path d="M1307.3,863.7l0.4,0.4l-2.4,0.3l-14.3-17.2l-1.3-1.5l0.3-0.2c0.3,0.4,0.7,0.6,1.1,0.6c0.4,0,0.9-0.2,1.7-0.8l22.8-19
		c0.6-0.6,0.9-1.1,1-1.4c0-0.3-0.1-0.8-0.4-1.1l0.3-0.2l1.5,1.7l14.1,17l-0.8,2.3l-0.4-0.4c0-0.4,0.1-0.6,0.2-0.9
		c0.1-0.2,0.1-0.4,0.1-0.6c0-0.2-0.1-0.4-0.2-0.7c-0.1-0.2-0.3-0.6-0.6-0.9l-12.2-14.6l-12.9,10.7l9.4,11.2c0.6,0.7,1.1,1.2,1.5,1.2
		s0.8-0.1,1.2-0.4l0.2,0.3l-2.8,2.3l-0.2-0.3c0.4-0.3,0.6-0.7,0.6-1.1s-0.2-0.9-0.9-1.7l-9.4-11.2l-12.5,10.4l12.3,14.7
		c0.3,0.3,0.6,0.6,0.8,0.7c0.3,0.2,0.5,0.2,0.6,0.3s0.4,0.1,0.6,0.1C1306.7,863.6,1306.9,863.7,1307.3,863.7L1307.3,863.7z"/>
	<path d="M1320.9,882.9c-0.9,0.5-1.3,1-1.4,1.3c-0.1,0.4,0,0.7,0.3,1.2l-0.4,0.2l-2.5-4l0.4-0.2c0.3,0.4,0.6,0.7,0.9,0.8
		s0.9-0.2,1.8-0.6l24.9-15.6c0.8-0.5,1.2-1,1.3-1.3c0.1-0.4,0-0.7-0.3-1.2l0.4-0.2l2.6,4l-0.4,0.2c-0.3-0.4-0.6-0.7-0.9-0.8
		c-0.4-0.1-1,0.1-1.8,0.6L1320.9,882.9L1320.9,882.9z"/>
	<path d="M1367.2,901l-0.4,0.2c-0.3-0.5-0.5-0.8-0.9-0.9c-0.4-0.1-0.9,0-1.8,0.5l-28.5,14.8l-1-2l17.9-36.8c0-0.1,0.1-0.2,0.1-0.4
		c0-0.1,0.1-0.3,0.1-0.4l-27.2,14.2c-0.9,0.5-1.4,0.8-1.5,1.2c-0.1,0.4,0,0.7,0.2,1.2l-0.4,0.2l-1.6-3.2l0.4-0.2
		c0.3,0.5,0.5,0.7,0.9,0.8c0.3,0.1,0.9,0,1.7-0.4l27.7-14.4c-0.1-0.7-0.2-1.1-0.3-1.5c0-0.2-0.2-0.5-0.2-0.6l0.4-0.2l1.8,3.6
		l-18.5,38.1l27.9-14.5c0.9-0.5,1.3-0.9,1.4-1.2c0.1-0.4,0-0.7-0.2-1.2l0.4-0.2L1367.2,901z"/>
	<path d="M1379.4,933.3l-2,0.8l-0.1-0.3c0.5-0.2,0.7-0.4,1-0.8c0.1-0.4,0.1-0.9-0.3-2l-3.6-9.9l-29.5,10.9c-0.9,0.3-1.5,0.7-1.6,1
		c-0.2,0.4-0.1,0.8,0,1.3l-0.3,0.1l-1.6-4.4l0.3-0.1c0.2,0.5,0.4,0.7,0.8,1c0.3,0.1,0.9,0.1,1.8-0.2l29.6-11l-3.7-9.8
		c-0.3-0.9-0.7-1.5-1-1.6c-0.4-0.2-0.8-0.1-1.3,0l-0.1-0.3l2-0.8L1379.4,933.3z"/>
	<path d="M1355.5,971.3l0.1,0.6l-2.3-0.7l-5.4-21.8l-0.5-1.9l0.3-0.1c0.2,0.5,0.4,0.8,0.6,1c0.3,0.2,0.9,0.2,1.9-0.1l28.8-7.2
		c0.8-0.3,1.3-0.5,1.5-0.8c0.2-0.3,0.2-0.7,0.2-1.2l0.3-0.1l0.6,2.2l5.4,21.4l-1.7,1.7l-0.1-0.6c0.2-0.4,0.4-0.5,0.5-0.7
		c0.2-0.2,0.2-0.4,0.4-0.5c0.1-0.2,0.1-0.4,0.1-0.7c0-0.3,0-0.6-0.1-1.1l-4.7-18.5l-16.4,4.1l3.6,14.1c0.2,1,0.5,1.5,0.8,1.7
		c0.4,0.2,0.8,0.2,1.2,0.2l0.1,0.3l-3.5,0.9l-0.1-0.3c0.5-0.2,0.8-0.4,1-0.6c0.2-0.4,0.2-1-0.1-1.9l-3.6-14.1l-15.8,3.9l4.6,18.6
		c0.2,0.5,0.3,0.7,0.4,1s0.3,0.4,0.5,0.6c0.2,0.2,0.4,0.2,0.5,0.4C1354.9,971,1355.2,971.1,1355.5,971.3L1355.5,971.3z"/>
	<path d="M1359.9,998.6c-0.6,0.5-1,1-1.3,1.6c-0.4,0.6-0.4,1.1-0.4,1.7l-0.4,0.1l-0.4-3.2l0.1-0.1l-0.1,0l-0.2-1.7l0.4-0.1
		c0,0.5,0.3,0.7,0.7,0.7c0.4,0,0.8-0.3,1.4-0.7l9.7-8l-1.6-12.4l-10.3,1.3c-1,0.1-1.7,0.3-1.8,0.6c-0.2,0.3-0.3,0.7-0.2,1.2
		l-0.4,0.1l-0.6-4.7l0.4-0.1c0,0.5,0.2,0.9,0.5,1.1c0.3,0.2,0.9,0.3,1.7,0.2l29.6-3.9c0.9-0.2,1.4-0.3,1.5-0.6
		c0.2-0.3,0.3-0.6,0.2-1.2l0.4-0.1l0.3,2.7l1.9,14.7c0.2,1.5,0.1,2.9-0.3,4.3c-0.4,1.3-1,2.6-1.8,3.7c-0.9,1.1-1.8,2-3.1,2.7
		c-1.1,0.7-2.6,1.2-4.1,1.4c-1.4,0.2-2.8,0.1-4.2-0.3c-1.3-0.4-2.6-1-3.6-1.8c-1.1-0.9-2-1.8-2.7-3c-0.7-1.1-1.2-2.6-1.4-4
		L1359.9,998.6L1359.9,998.6z M1370,989.6c0.2,1.4,0.7,2.7,1.3,3.8c0.7,1.1,1.6,2.1,2.6,3c1,0.8,2.2,1.4,3.5,1.8
		c1.3,0.4,2.7,0.5,4,0.3c1.4-0.2,2.7-0.6,3.8-1.3s2.1-1.6,2.9-2.6c0.8-1,1.4-2.2,1.8-3.4s0.5-2.7,0.3-4.1l-1.7-13l-20.1,2.6
		L1370,989.6z"/>
	<path d="M1360.6,1010.2c-0.9,0-1.6,0.2-1.9,0.5c-0.3,0.2-0.4,0.6-0.3,1.1l-0.4,0l-0.3-4.7l0.4,0c0,0.5,0.2,0.9,0.4,1.1
		c0.3,0.2,0.8,0.4,1.8,0.3l29.3-1.4c0.9,0,1.5-0.2,1.8-0.5c0.3-0.3,0.4-0.6,0.3-1.1l0.4,0l0.2,4.8l-0.4,0c0-0.5-0.2-0.9-0.5-1.2
		c-0.2-0.3-0.9-0.4-1.9-0.3L1360.6,1010.2L1360.6,1010.2z"/>
	<path d="M1393,1034.8c-0.1,2.4-0.6,4.5-1.7,6.6c-1,2.1-2.4,3.8-4.1,5.2c-1.7,1.5-3.6,2.6-5.8,3.4c-2.2,0.8-4.5,1.1-7,1
		c-2.5-0.1-4.7-0.7-6.8-1.6c-2.1-0.9-3.9-2.3-5.4-3.9c-1.5-1.6-2.7-3.4-3.6-5.6s-1.2-4.3-1.1-6.7s0.7-4.6,1.7-6.6c1-2,2.4-3.8,4-5.3
		c1.7-1.5,3.6-2.7,5.7-3.5c2.2-0.8,4.5-1.1,7-1c2.5,0.1,4.7,0.7,6.8,1.6c2.1,0.9,3.9,2.3,5.5,3.9c1.5,1.6,2.7,3.5,3.6,5.7
		C1392.7,1030.2,1393.1,1032.4,1393,1034.8z M1361,1027c-1,2.1-1.8,4.2-1.9,6.3c-0.2,2.1,0,4.3,0.5,6.2c0.6,1.9,1.5,3.8,2.9,5.4
		c1.3,1.6,3,3,4.9,4c2,1,4,1.5,6.2,1.6c2.2,0.1,4.2-0.2,6.2-0.9c2-0.8,3.9-1.8,5.6-3.2c1.7-1.5,3-3.2,4.2-5.2c1-2.1,1.8-4.2,1.9-6.3
		c0.2-2.2,0-4.3-0.5-6.2c-0.6-1.9-1.6-3.8-2.9-5.4c-1.3-1.6-3-3-5-3.9c-1.9-1-3.9-1.5-6.1-1.6c-2.2-0.1-4.2,0.2-6.2,0.9
		c-2,0.8-3.9,1.8-5.6,3.2C1363.5,1023.2,1362,1024.9,1361,1027z"/>
	<path d="M1354.9,1078.2c-0.7,0.3-1.2,0.7-1.8,1.1s-0.8,0.9-0.9,1.5l-0.4-0.1l0.5-3.2l0.1-0.1l-0.1,0l0.3-1.7l0.4,0.1
		c0,0.5,0.1,0.9,0.5,0.9c0.4,0.1,0.9,0,1.5-0.3l11.6-4.7l2.1-12.3l-10.2-1.8c-1-0.2-1.7-0.2-2,0s-0.5,0.6-0.6,1.1l-0.4-0.1l0.8-4.5
		l0.4,0.1c0,0.5-0.1,0.9,0.2,1.2c0.2,0.3,0.7,0.5,1.6,0.7l29.4,5.2c0.8,0.1,1.4,0.1,1.7-0.1c0.3-0.2,0.5-0.6,0.6-1.1l0.4,0.1
		l-0.5,2.7l-2.6,14.5c-0.2,1.5-0.7,2.8-1.6,4c-0.8,1.2-1.7,2.2-2.9,3c-1.2,0.8-2.4,1.3-3.7,1.7c-1.4,0.3-2.8,0.4-4.3,0.1
		c-1.5-0.2-2.8-0.8-3.9-1.6c-1.2-0.8-2.2-1.7-3-2.9c-0.8-1.1-1.4-2.4-1.7-3.7c-0.3-1.4-0.4-2.7-0.2-4.2L1354.9,1078.2L1354.9,1078.2
		z M1367.3,1072.6c-0.2,1.4-0.2,2.8,0.1,4.1c0.3,1.4,0.8,2.5,1.5,3.6c0.7,1.1,1.7,2,2.8,2.7s2.3,1.2,3.7,1.4c1.4,0.2,2.8,0.2,4-0.1
		c1.4-0.3,2.4-0.8,3.5-1.6s2-1.7,2.7-2.8s1.2-2.3,1.5-3.8l2.3-13l-20-3.5L1367.3,1072.6z"/>
	<path d="M1345.4,1110.1l-0.2,0.6l-1.5-1.8l6.4-21.5l0.6-1.9l0.4,0.1c-0.1,0.5-0.2,0.9,0,1.3c0.2,0.4,0.7,0.6,1.6,0.9l28.4,8.5
		c0.8,0.2,1.4,0.2,1.6,0.1c0.3-0.1,0.6-0.5,0.7-0.9l0.4,0.1l-0.7,2.2l-6.3,21.2l-2.3,0.7l0.2-0.6c0.4-0.2,0.6-0.3,0.8-0.4
		s0.4-0.2,0.5-0.3s0.3-0.3,0.5-0.5c0.2-0.3,0.3-0.5,0.5-1l5.5-18.3l-16.1-4.8l-4.2,14c-0.3,1-0.4,1.6-0.2,1.9s0.5,0.6,1,0.7
		l-0.1,0.4l-3.4-1l0.1-0.4c0.5,0.1,0.9,0.2,1.3,0c0.4-0.2,0.6-0.7,0.9-1.7l4.2-14l-15.6-4.7l-5.5,18.4c-0.1,0.4-0.1,0.8-0.1,1
		c0,0.3,0,0.5,0.1,0.7c0,0.2,0.2,0.4,0.3,0.5C1345.1,1109.6,1345.2,1109.9,1345.4,1110.1L1345.4,1110.1z"/>
	<path d="M1366,1124.7c-1.7-0.7-3.2-0.8-4.7-0.1c-1.4,0.6-2.9,1.5-4.2,2.8c-1.3,1.3-2.7,2.7-3.9,4.4c-1.3,1.6-2.6,3-3.9,4.4
		c-1.3,1.3-2.7,2.2-4.1,2.8c-1.4,0.6-2.9,0.6-4.5-0.1c-2.6-1.1-4.2-2.9-4.9-5.6c-0.7-2.7-0.1-6.2,1.6-10.4c0.8-2,1.6-3.5,2.4-4.7
		s1.5-2.3,2.3-3c0.8-0.9,1.5-1.6,2.3-2.1l1.3,1.6c-0.3-0.1-0.5-0.1-0.8-0.1c-0.2-0.1-0.5,0-0.8,0.1c-0.2,0.1-0.6,0.2-0.9,0.5
		c-0.8,0.7-1.6,1.6-2.5,2.8c-0.9,1.2-1.8,2.8-2.6,5c-0.8,2-1.3,3.8-1.6,5.2c-0.2,1.5-0.2,2.8,0.1,3.8s0.9,1.9,1.6,2.7
		c0.7,0.6,1.7,1.2,2.7,1.8c1.6,0.7,2.9,0.7,4.3,0c1.2-0.7,2.5-1.6,3.6-2.8s2.4-2.6,3.4-4.2c1.2-1.5,2.3-2.9,3.6-4.1
		c1.3-1.2,2.7-2,4.2-2.6c1.5-0.5,3.2-0.4,5.1,0.4c1.5,0.7,2.7,1.4,3.6,2.4c0.9,1,1.4,2,1.8,3c0.3,1,0.5,2.1,0.5,3.2
		c0,1-0.1,2.2-0.3,3c-0.2,1-0.4,1.8-0.6,2.4c-0.2,0.7-0.4,1.1-0.5,1.4c-0.5,1.3-1.1,2.3-1.8,3.1c-0.6,0.7-1.2,1.4-1.7,1.9
		c-0.6,0.6-1.2,0.9-1.8,1.1l-0.9-1c0.7-0.2,1.4-0.6,2.2-1c0.7-0.4,1.2-1,1.8-1.6c0.6-0.7,1.2-1.5,1.6-2.6c0.2-0.5,0.4-1.1,0.7-1.9
		c0.2-0.8,0.5-1.5,0.5-2.5c0.2-0.9,0.2-1.7,0.2-2.7c0-0.9-0.2-1.8-0.5-2.6c-0.3-0.8-0.7-1.7-1.4-2.4
		C1367.9,1125.7,1367.1,1125.1,1366,1124.7L1366,1124.7z"/>
</g>
<text class="st0 st1"> </text>
<g>
	<g>
		<path d="M862.8,784c-1.3-4-2.7-7.8-4.3-11.4c-3.5-7.9-7.8-13.5-12.8-16.6s-9.9-3.9-14.6-2.4c-4,1.3-7.4,4.3-10.1,8.8
			c-5.7,10.7-8.7,30.6-9.4,59.6c-0.6,20.5,0.1,45.8,2.2,75.7c-10.8,0.2-22.1-2.9-34.1-9.3s-27-15.9-45.3-28.6
			c-17.2-11.8-31.4-20.9-42.6-27.3c-11.2-6.5-23.2-11.2-36-14.3c-12.7-3.1-25.1-2.7-37,1.3c-13.7,4.5-26.9,14.3-39.5,29.4
			c0.7,0.6,1.2,1.4,1.5,2.2c12.2-14.7,25.1-24.4,38.9-28.8c11.9-3.9,24.2-4.4,36.8-1.4c12.6,3,24.5,7.8,35.8,14.4
			c11.3,6.5,25.3,15.5,42,27c18.3,12.7,33.3,22.3,45.3,28.6s23.4,9.6,34.4,9.6c0.9,14.3,2.1,28.3,3.5,42.1
			c1.7,16.9,3.8,36.6,6.5,59.1c0.4,2.5,1,5.3,2,8.3c1.1,3.6,2.5,6.4,4.3,8.7c2.4,2.9,5.2,3.7,8.6,2.7c2.5-0.9,4.8-2.5,6.7-4.9
			c3.8-5.4,7-15.2,9.8-29.4c2.8-14.2,4.5-33.2,5.3-57.2c0-0.5-0.2-0.9-0.6-1.4c-0.4-0.4-0.7-0.6-0.9-0.5l-0.2,0.8
			c-0.8,29.2-3.2,51-7.1,65.5c-3.8,14.5-8.1,22.6-12.8,24.2c-2.4,0.8-4.7-0.2-6.7-2.8c-1.1-1.5-2.1-3.8-3.1-6.8
			c-0.8-2.3-1.3-4.8-1.6-7.3c-4.1-33.3-7.3-66.4-9.3-99.6c7.8,2.4,14.9,2.5,21.2,0.4c12.2-4,20.9-16,25.9-35.9
			c2.8-11.1,4.1-24.4,3.7-39.9C869.1,811.2,866.8,797,862.8,784z M867.8,825.9c0.3,15.1-0.8,28-3.5,38.8
			c-4.8,19.5-13.3,31.3-25.5,35.3c-5.9,2-12.7,1.7-20.4-0.7c-1.5-22.1-2.4-43.9-2.6-65.1c-0.3-35,2-58.1,6.8-69
			c2.2-5.1,5.3-8.4,9.4-9.7c4.3-1.4,8.8-0.6,13.5,2.6c4.7,3.1,8.6,8.3,11.8,15.6c1.5,3.4,2.9,7,4.1,10.8
			C865.3,797,867.4,810.7,867.8,825.9z"/>
		<path d="M1157.5,826.9c-0.1-0.1-0.4-0.2-0.6-0.2c-0.2,0-0.4,0.1-0.5,0.2c-9.7,11.3-21.4,18.7-35,22.2c-8.6,2.2-17.4,3.1-26.4,2.6
			c-9.1-0.4-20.7-1.7-34.9-3.6c-13-1.8-23.6-3-31.6-3.4c-8-0.4-15.7,0.3-23,2.2c-11.1,2.9-20.3,8.9-27.5,17.9
			c-3.2,4.5-7.8,13.2-13.9,26.2c-1.6,3.3-3.1,6.4-4.5,9.2c0.3,0.7,0.5,1.4,0.7,2.1c1.9-3.7,3.9-7.7,5.9-12.1
			c3.2-6.7,5.7-12,7.6-15.8c1.9-3.8,3.7-6.8,5.6-8.9c6.8-8.5,15.6-14.2,26.4-17c7.3-1.9,15-2.6,23.1-2.2c8.1,0.4,18.5,1.5,31.1,3.3
			c14.3,1.9,26,3.1,35.1,3.5c9.1,0.4,18.1-0.4,26.8-2.7c13.9-3.7,25.8-11.2,35.5-22.6C1157.8,827.6,1157.7,827.3,1157.5,826.9z"/>
	</g>
	<path d="M957.2,905c-5.6,10.8-11.6,21.1-18.1,30.7c-6.4,9.7-11.9,16.3-16.4,19.8c-1.3,1-2.8,1.8-4.7,2.2c-1.6,0.4-3,0.1-4.2-0.8
		c-1.9-1.7-3.6-5.5-5-11.7c-2.5-10.7-4.2-27.7-5.2-51.1c13.9-27,25.3-53.2,34.1-78.7c8.3-24.4,11.2-41.8,8.7-52.3
		c-1-4.3-3-7.4-6.1-9.1c-2.4-1.3-5.3-1.6-8.8-0.9c-2.9,0.7-5.4,2-7.3,4c-4.5,4.3-8.5,11.8-12,22.7c-3.5,10.8-6.3,23.7-8.3,38.6
		c-3.9,26-5.4,52.9-4.6,80.4c-10.8,20.6-18.1,32.9-21.8,36.7c-1.5,1.7-3.1,2.7-4.7,3.1c-1.4,0.3-2.9,0-4.2-1
		c-2.6-2.1-4.6-6.2-6-12.4c-0.7-3-1-5.6-0.9-7.5c0.1-7.1,1.1-12.8,3.2-17c1.9-3.9,4.9-6.3,8.9-7.2c2.5-0.6,5.2-0.5,8,0.2
		c4.3,1.3,7.5,3,9.5,5.2c0.4,0.3,0.9,0.3,1.4,0c0.1-0.2,0.2-0.5,0.2-0.8c0.1-0.3-0.1-0.5-0.3-0.7c-2.9-2.5-6.3-4.4-10.4-5.6
		c-2.7-0.9-6-0.9-9.7,0c-5.6,1.3-9.5,4.1-11.8,8.5c-1,1.6-1.6,3.1-2.1,4.5c-0.9,3.3-1.5,7.8-1.7,13.8c-0.1,1.9,0.2,4.4,0.9,7.5
		c0.7,3.1,1.8,6,3.2,8.7c1.4,2.7,3,4.7,4.8,5.8c1.8,1.1,3.7,1.4,6,0.9c2.5-0.6,4.9-2.1,7.2-4.5c4-4.2,10.8-15.5,20.4-34.1
		c0.1,3.8,0.5,10.2,1.3,19.1c0.9,9.7,2,17.3,3.3,23c1.9,8.1,4.2,13,6.8,14.7c1.8,1.1,3.9,1.4,6.2,0.8c2.2-0.5,4.3-1.7,6.6-3.5
		c4.7-3.5,10.3-10.2,16.9-19.9c6.5-9.7,12.7-20,18.4-31.1c5.7-10.9,9.6-19.5,11.8-25.7C970.2,880.3,962.8,894.3,957.2,905z
		 M909.7,811.2c1.4-9.6,3.5-19.3,6.3-29c2.8-9.7,6.3-17.1,10.4-22.3c2.2-2.8,4.5-4.5,6.9-5c1.8-0.4,3.9-0.1,6.2,0.8
		c2.5,1.1,4.3,3.8,5.3,7.9c2.3,9.9-0.6,27-8.8,51.2c-8,23.2-18.7,48.2-32.1,75.1C903.6,862.2,905.5,836,909.7,811.2z"/>
</g>
<g>
	<path class="st2" d="M826.1,1125.2h49.1v1.5h-50.8V1049h1.8V1125.2z"/>
	<path class="st2" d="M898.7,1049h51.3v1.5h-49.5v38.1h44.9v1.5h-44.9v34.9h51.5v1.5h-53.3V1049z"/>
	<path class="st2" d="M1033.3,1050.6h-29.8v76.1h-1.8v-76.1h-29.8v-1.5h61.3V1050.6z"/>
	<path class="st2" d="M1062.2,1126.7h-1.8V1049h1.8V1126.7z M1070,1021.9h1.8l-8.8,17.4h-1.8L1070,1021.9z"/>
	<path class="st2" d="M1133.5,1047c12.8,0,24.1,5.9,31.5,14.9l-1.4,1.2c-7.2-8.7-17.9-14.2-30.1-14.2c-21.5,0-38.8,17.3-38.8,38.9
		c0,21.6,17.3,38.9,38.8,38.9c12.2,0,22.9-5.5,30.1-14.2l1.4,1.2c-7.4,9.2-18.8,14.9-31.5,14.9c-22.6,0-40.7-18.2-40.7-40.8
		S1111,1047,1133.5,1047z"/>
	<path class="st2" d="M1200.7,1126.7h-1.8V1049h1.8V1126.7z"/>
	<path class="st2" d="M1258.9,1049h2l32,77.6h-1.9l-11.2-27.1h-39.9l-11.2,27.1h-1.9L1258.9,1049z M1279.1,1098.1l-17.2-41.6l-2-5.4
		l-2,5.3l-17.3,41.8H1279.1z"/>
	<path class="st2" d="M889.9,1196.8c0,22.7-13.1,40-38.2,40h-27.4v-77.6h27.4C876.9,1159.1,889.9,1175.6,889.9,1196.8z
		 M851.7,1235.2c23.9,0,36.5-16.8,36.5-38.5c0-20.1-12.6-36.1-36.5-36.1h-25.6v74.6H851.7z"/>
	<path class="st2" d="M939.2,1159.1h2l32,77.6h-1.9l-11.2-27.1h-39.9l-11.2,27.1h-1.9L939.2,1159.1z M959.5,1208.2l-17.2-41.6
		l-2-5.4l-2,5.3l-17.3,41.8H959.5z"/>
	<path class="st2" d="M1040.6,1160.6h-29.8v76.1h-1.8v-76.1h-29.8v-1.5h61.3V1160.6z"/>
	<path class="st2" d="M1118.4,1160.6h-29.8v76.1h-1.8v-76.1h-29.8v-1.5h61.3V1160.6z"/>
	<path class="st2" d="M1147.2,1236.7h-1.8v-77.6h1.8V1236.7z"/>
	<path class="st2" d="M1185.3,1235.2h49.1v1.5h-50.8v-77.6h1.8V1235.2z"/>
	<path class="st2" d="M1288.3,1157.1c22.7,0,40.8,18.2,40.8,40.8s-18.2,40.8-40.8,40.8s-40.7-18.2-40.7-40.8
		S1265.8,1157.1,1288.3,1157.1z M1288.3,1236.9c21.5,0,38.9-17.4,38.9-38.9c0-21.5-17.4-38.9-38.9-38.9c-21.4,0-38.9,17.4-38.9,38.9
		C1249.3,1219.5,1266.9,1236.9,1288.3,1236.9z"/>
</g>
</svg>
