<?xml version="1.0" encoding="utf-8"?>
<!-- Generator: Adobe Illustrator 25.2.1, SVG Export Plug-In . SVG Version: 6.00 Build 0)  -->
<svg version="1.1" id="Camada_1" xmlns="http://www.w3.org/2000/svg" xmlns:xlink="http://www.w3.org/1999/xlink" x="0px" y="0px"
	 viewBox="0 0 2000 2000" style="enable-background:new 0 0 2000 2000;" xml:space="preserve">
<style type="text/css">
	.st0{stroke:#1D1D1B;stroke-width:2;stroke-miterlimit:10;}
</style>
<g>
	<path class="st0" d="M280.6,1083.3h62.5v2h-64.8v-99h2.2V1083.3z"/>
	<path class="st0" d="M373.1,986.3h65.4v2h-63.1v48.6h57.3v2h-57.3v44.5h65.7v2h-67.9V986.3z"/>
	<path class="st0" d="M544.9,988.2h-37.9v97h-2.2v-97h-37.9v-2h78.1V988.2z"/>
	<path class="st0" d="M581.6,1085.3h-2.2v-99h2.2V1085.3z M591.7,951.6h2.2l-11.2,22.2h-2.2L591.7,951.6z"/>
	<path class="st0" d="M672.5,983.7c16.3,0,30.7,7.5,40.2,19l-1.8,1.5c-9.1-11.1-22.8-18.1-38.4-18.1c-27.4,0-49.5,22-49.5,49.6
		c0,27.6,22,49.6,49.5,49.6c15.6,0,29.2-7,38.4-18.1l1.8,1.5c-9.4,11.7-24,19-40.2,19c-28.8,0-51.9-23.2-51.9-52
		C620.6,1007,643.9,983.7,672.5,983.7z"/>
	<path class="st0" d="M758.3,1085.3h-2.2v-99h2.2V1085.3z"/>
	<path class="st0" d="M832.4,986.3h2.5l40.8,99h-2.4l-14.2-34.5h-50.8l-14.2,34.5h-2.4L832.4,986.3z M858.2,1048.8l-21.9-53.1
		l-2.5-6.9l-2.5,6.8l-22,53.2H858.2z"/>
	<path class="st0" d="M1160.2,1034.3c0,28.9-16.6,51-48.7,51h-34.9v-99h34.9C1143.6,986.3,1160.2,1007.3,1160.2,1034.3z
		 M1111.5,1083.3c30.4,0,46.5-21.4,46.5-49c0-25.6-16-46-46.5-46h-32.7v95.1H1111.5z"/>
	<path class="st0" d="M1223.1,986.3h2.5l40.8,99h-2.4l-14.2-34.5h-50.8l-14.2,34.5h-2.4L1223.1,986.3z M1248.9,1048.8l-21.9-53.1
		l-2.5-6.9l-2.5,6.8l-22,53.2H1248.9z"/>
	<path class="st0" d="M1352.4,988.2h-37.9v97h-2.2v-97h-37.9v-2h78.1V988.2z"/>
	<path class="st0" d="M1451.5,988.2h-37.9v97h-2.2v-97h-37.9v-2h78.1V988.2z"/>
	<path class="st0" d="M1488.3,1085.3h-2.2v-99h2.2V1085.3z"/>
	<path class="st0" d="M1536.9,1083.3h62.5v2h-64.8v-99h2.2V1083.3z"/>
	<path class="st0" d="M1668.1,983.7c28.9,0,52,23.2,52,52c0,28.8-23.2,52-52,52s-51.9-23.2-51.9-52
		C1616.2,1007,1639.5,983.7,1668.1,983.7z M1668.1,1085.4c27.4,0,49.6-22.2,49.6-49.6c0-27.4-22.2-49.6-49.6-49.6
		c-27.3,0-49.6,22.2-49.6,49.6C1618.5,1063.2,1640.8,1085.4,1668.1,1085.4z"/>
</g>
<g>
	<path d="M524.8,1162c0.3,0.6,0.7,1.1,1.2,1.3c0.4,0.2,0.9,0.3,1.3,0.3v0.4h-5.4v-0.4c0.7,0,1.2-0.2,1.4-0.6l-5.5-14.8h-20.3
		c-0.6,1.8-0.9,3.2-0.9,4.3c0,3,0.9,5.4,2.7,7.2c0.4,0.5,1,0.9,1.7,1.3c0.7,0.4,1.5,0.8,2.5,1.2c1,0.4,2.1,0.7,3.5,0.9
		c1.3,0.2,2.9,0.3,4.6,0.3h0.3c0.8,0,1.4-0.2,1.9-0.7c0.5-0.4,0.9-0.8,1.2-1h0.6l-1.6,2.3H512h-0.2h-0.1c-1.8,0-3.4-0.1-4.7-0.4
		c-1.4-0.3-2.6-0.6-3.6-0.9c-1-0.4-1.9-0.8-2.6-1.3c-0.7-0.5-1.3-0.9-1.7-1.4c-1.9-1.9-2.9-4.4-2.9-7.5c0-1.2,0.3-2.7,0.9-4.5
		c0.6-1.8,1.4-3.7,2.3-5.8s2-4.1,3-6.1c1.1-2,2.1-3.9,3.1-5.6c1-1.7,1.8-3.1,2.4-4.1c0.7-1.1,1-1.7,1.1-1.9h0.1h3.8v0.5
		c-0.3,0-0.6,0-0.9,0.1c-0.3,0.1-0.5,0.3-0.6,0.6l13.1,35.2l0.4,1V1162z M517.5,1147.6l-8.2-22.3c-0.3,0.4-0.6,1-1.2,1.9
		c-0.5,0.9-1.1,1.9-1.9,3.1c-0.7,1.2-1.5,2.5-2.3,4c-0.8,1.5-1.6,3-2.4,4.5c-0.8,1.5-1.5,3-2.2,4.5c-0.7,1.5-1.2,2.9-1.7,4.3H517.5z
		"/>
	<path d="M564.7,1161.2c0.5,0.7,1,1.3,1.6,1.8c0.6,0.5,1.2,0.7,1.8,0.7v0.4h-3.6l-0.1-0.1v0.1h-1.9v-0.4c0.6,0,0.9-0.2,0.9-0.7
		c0-0.4-0.2-1-0.7-1.7l-7.5-12.1h-14.3v11.9c0,1.2,0.1,1.9,0.4,2.2c0.3,0.3,0.7,0.5,1.3,0.5v0.4h-5.3v-0.4c0.6,0,1-0.1,1.3-0.4
		c0.3-0.3,0.4-0.9,0.5-1.9v-34c0-1-0.2-1.6-0.5-1.9c-0.3-0.3-0.7-0.4-1.3-0.4v-0.4h3.1h16.8c1.7,0,3.3,0.3,4.8,1
		c1.5,0.6,2.8,1.5,3.9,2.6c1.1,1.1,2,2.4,2.6,3.9c0.6,1.5,1,3.1,1,4.8c0,1.7-0.3,3.3-1,4.7c-0.6,1.5-1.5,2.8-2.6,3.9
		c-1.1,1.1-2.4,2-3.8,2.6c-1.5,0.6-3,1-4.7,1L564.7,1161.2L564.7,1161.2z M556,1148.4c1.6,0,3.1-0.3,4.5-0.9
		c1.4-0.6,2.7-1.4,3.7-2.5c1-1,1.9-2.3,2.5-3.7c0.6-1.4,0.9-2.9,0.9-4.5c0-1.6-0.3-3.1-0.9-4.5c-0.6-1.4-1.4-2.6-2.5-3.7
		c-1-1-2.3-1.9-3.7-2.5c-1.4-0.6-2.9-0.9-4.6-0.9h-15v23.2H556z"/>
	<path d="M606,1163.9c0.7,1,1.3,2,2,2.9c0.6,0.9,1.3,1.7,2.1,2.4c0.7,0.7,1.6,1.2,2.5,1.5c0.9,0.3,2,0.3,3.3,0.1l0.1,0.6
		c-1.4,0.3-2.7,0.2-3.9-0.1c-1.2-0.3-2.3-0.8-3.4-1.5c-1-0.7-2-1.5-2.9-2.4c-0.9-0.9-1.7-1.9-2.3-2.9c-0.5,0.1-0.9,0.1-1.4,0.2
		c-0.5,0-1,0.1-1.5,0.1c-2.7,0-5.3-0.5-7.7-1.6c-2.4-1.1-4.5-2.5-6.2-4.4c-1.8-1.8-3.2-4-4.2-6.4c-1-2.4-1.5-5.1-1.5-7.9
		c0-2.8,0.5-5.4,1.5-7.9c1-2.5,2.4-4.6,4.2-6.5c1.8-1.8,3.9-3.3,6.2-4.4s4.9-1.6,7.7-1.6c2.7,0,5.2,0.5,7.6,1.6
		c2.4,1.1,4.4,2.5,6.2,4.4c1.8,1.8,3.2,4,4.2,6.5c1,2.5,1.5,5.1,1.5,7.9c0,2.3-0.4,4.5-1.1,6.6c-0.7,2.1-1.7,4-2.9,5.7
		c-1.3,1.7-2.7,3.2-4.5,4.4C609.8,1162.3,608,1163.2,606,1163.9z M605.1,1162.6c2.8-0.5,5.3-1.7,7.6-3.4c2.2-1.7,4-3.9,5.2-6.7
		c1-2.3,1.5-4.7,1.5-7.1s-0.4-4.8-1.3-7.1s-2.2-4.3-4-6.2c-1.7-1.9-3.8-3.4-6.2-4.5c-2.4-1.1-4.8-1.8-7.3-1.9
		c-2.5-0.1-4.8,0.2-7.1,0.9c-2.2,0.8-4.2,2-6.1,3.5c-1.8,1.6-3.2,3.5-4.2,5.8c-1,2.3-1.5,4.7-1.5,7.1s0.4,4.8,1.3,7.1
		c0.9,2.3,2.2,4.3,4,6.2c1.7,1.9,3.8,3.4,6.2,4.5c3,1.5,6.1,2.1,9.4,1.9c-0.5-0.8-1.1-1.6-1.6-2.4c-0.5-0.8-1-1.4-1.6-1.9
		c-0.6-0.5-1.3-0.9-2-1.2c-0.8-0.2-1.7-0.2-2.8,0l-0.1-0.6c1.2-0.2,2.3-0.2,3.4,0c1,0.2,2,0.6,2.8,1.2c0.9,0.6,1.7,1.2,2.4,2
		C603.7,1160.9,604.4,1161.7,605.1,1162.6L605.1,1162.6z"/>
	<path d="M666,1124.5v0.4c-0.7,0-1.2,0.2-1.4,0.5c-0.3,0.3-0.4,1.1-0.4,2.2v23.8c0,1.8-0.3,3.4-1,4.9c-0.7,1.5-1.6,2.9-2.9,4
		c-1.2,1.1-2.6,2-4.3,2.7c-1.6,0.7-3.4,1-5.2,1h-4c-1.8,0-3.6-0.3-5.2-1c-1.6-0.7-3.1-1.6-4.3-2.7c-1.2-1.1-2.2-2.5-2.9-4
		c-0.7-1.5-1.1-3.2-1.1-4.9V1127c-0.1-0.9-0.3-1.4-0.5-1.7c-0.3-0.2-0.7-0.4-1.3-0.4v-0.4h5.7v0.4c-0.5,0-0.9,0.1-1.2,0.3
		c-0.3,0.2-0.5,0.6-0.6,1.3l0.3,24.9c0,1.7,0.4,3.2,1.2,4.6c0.8,1.4,1.7,2.6,2.9,3.6c1.1,1,2.3,1.8,3.6,2.4c1.3,0.6,2.4,0.8,3.4,0.8
		l4,0.1c1.8,0,3.4-0.3,5-0.8c1.6-0.6,2.9-1.3,4.1-2.4c1.2-1,2.1-2.2,2.7-3.6c0.7-1.4,1-2.9,1-4.6v-24.3c-0.1-0.9-0.3-1.5-0.6-1.7
		c-0.3-0.3-0.7-0.4-1.3-0.4v-0.4L666,1124.5z"/>
	<path d="M681.1,1161c0,1.1,0.1,1.9,0.4,2.2c0.3,0.3,0.7,0.5,1.3,0.5v0.4h-5.3v-0.4c0.6,0,1-0.1,1.3-0.4c0.3-0.3,0.4-1,0.5-2.1
		v-33.6c0-1.1-0.1-1.8-0.4-2.1c-0.3-0.3-0.7-0.5-1.3-0.5v-0.4h5.4v0.4c-0.6,0-1,0.2-1.3,0.5c-0.3,0.3-0.4,1-0.4,2.1L681.1,1161
		L681.1,1161z"/>
	<path d="M724.8,1124.6v2.4h-0.4c0-0.6-0.1-1-0.4-1.3c-0.3-0.3-1-0.4-2.2-0.4h-12v35.8c0,1.1,0.1,1.9,0.4,2.2
		c0.3,0.3,0.7,0.5,1.3,0.5v0.4h-5.4v-0.4c0.6,0,1-0.1,1.3-0.4c0.3-0.3,0.4-1,0.5-2v-36h-11.9c-1.1,0-1.9,0.1-2.2,0.4
		c-0.3,0.3-0.5,0.7-0.5,1.3h-0.4v-2.4H724.8z"/>
	<path d="M763.5,1161.9h0.7l-1.4,2.3h-25.6h-2.3v-0.4c0.6,0,1-0.1,1.3-0.4c0.3-0.3,0.5-1,0.5-2.1v-33.9c0-1-0.2-1.6-0.5-1.9
		c-0.3-0.3-0.7-0.4-1.3-0.4v-0.4h2.6h25.2l1.4,2.3h-0.7c-0.3-0.3-0.5-0.5-0.7-0.8c-0.1-0.2-0.3-0.4-0.5-0.5
		c-0.2-0.1-0.4-0.2-0.7-0.3c-0.3-0.1-0.7-0.1-1.3-0.2h-21.8v19.2h16.6c1.1,0,1.9-0.1,2.2-0.4c0.3-0.3,0.5-0.7,0.5-1.3h0.4v4.1h-0.4
		c0-0.6-0.2-1-0.5-1.3c-0.3-0.3-1-0.4-2.2-0.4h-16.6v18.6h21.9c0.5,0,0.9-0.1,1.2-0.2c0.3-0.1,0.5-0.2,0.7-0.3
		c0.2-0.1,0.4-0.3,0.5-0.5C762.9,1162.3,763.2,1162.1,763.5,1161.9L763.5,1161.9z"/>
	<path d="M804.3,1124.6v2.4h-0.4c0-0.6-0.1-1-0.4-1.3c-0.3-0.3-1-0.4-2.2-0.4h-12v35.8c0,1.1,0.1,1.9,0.4,2.2
		c0.3,0.3,0.7,0.5,1.3,0.5v0.4h-5.4v-0.4c0.6,0,1-0.1,1.3-0.4c0.3-0.3,0.4-1,0.5-2v-36h-11.9c-1.1,0-1.9,0.1-2.2,0.4
		c-0.3,0.3-0.5,0.7-0.5,1.3h-0.4v-2.4H804.3z"/>
	<path d="M848.4,1124.5v0.4c-0.7,0-1.2,0.2-1.4,0.5c-0.3,0.3-0.4,1.1-0.4,2.2v23.8c0,1.8-0.3,3.4-1,4.9c-0.7,1.5-1.6,2.9-2.9,4
		c-1.2,1.1-2.6,2-4.3,2.7c-1.6,0.7-3.4,1-5.2,1h-4c-1.8,0-3.6-0.3-5.2-1c-1.6-0.7-3.1-1.6-4.3-2.7c-1.2-1.1-2.2-2.5-2.9-4
		c-0.7-1.5-1.1-3.2-1.1-4.9V1127c-0.1-0.9-0.3-1.4-0.5-1.7c-0.3-0.2-0.7-0.4-1.3-0.4v-0.4h5.7v0.4c-0.5,0-0.9,0.1-1.2,0.3
		c-0.3,0.2-0.5,0.6-0.6,1.3l0.3,24.9c0,1.7,0.4,3.2,1.2,4.6c0.8,1.4,1.7,2.6,2.9,3.6c1.1,1,2.3,1.8,3.6,2.4c1.3,0.6,2.4,0.8,3.4,0.8
		l4,0.1c1.8,0,3.4-0.3,5-0.8c1.6-0.6,2.9-1.3,4.1-2.4c1.2-1,2.1-2.2,2.7-3.6c0.7-1.4,1-2.9,1-4.6v-24.3c-0.1-0.9-0.3-1.5-0.6-1.7
		c-0.3-0.3-0.7-0.4-1.3-0.4v-0.4L848.4,1124.5z"/>
	<path d="M887.2,1161.2c0.5,0.7,1,1.3,1.6,1.8c0.6,0.5,1.2,0.7,1.8,0.7v0.4H887l-0.1-0.1v0.1H885v-0.4c0.6,0,0.9-0.2,0.9-0.7
		c0-0.4-0.2-1-0.7-1.7l-7.5-12.1h-14.3v11.9c0,1.2,0.1,1.9,0.4,2.2c0.3,0.3,0.7,0.5,1.3,0.5v0.4h-5.3v-0.4c0.6,0,1-0.1,1.3-0.4
		c0.3-0.3,0.4-0.9,0.5-1.9v-34c0-1-0.2-1.6-0.5-1.9c-0.3-0.3-0.7-0.4-1.3-0.4v-0.4h3.1h16.8c1.7,0,3.3,0.3,4.8,1
		c1.5,0.6,2.8,1.5,3.9,2.6c1.1,1.1,2,2.4,2.6,3.9c0.6,1.5,1,3.1,1,4.8c0,1.7-0.3,3.3-1,4.7c-0.6,1.5-1.5,2.8-2.6,3.9
		c-1.1,1.1-2.4,2-3.8,2.6c-1.5,0.6-3,1-4.7,1L887.2,1161.2L887.2,1161.2z M878.5,1148.4c1.6,0,3.1-0.3,4.5-0.9
		c1.4-0.6,2.7-1.4,3.7-2.5c1-1,1.9-2.3,2.5-3.7c0.6-1.4,0.9-2.9,0.9-4.5c0-1.6-0.3-3.1-0.9-4.5c-0.6-1.4-1.4-2.6-2.5-3.7
		c-1-1-2.3-1.9-3.7-2.5c-1.4-0.6-2.9-0.9-4.6-0.9h-15v23.2H878.5z"/>
	<path d="M930.6,1162c0.3,0.6,0.7,1.1,1.2,1.3c0.4,0.2,0.9,0.3,1.3,0.3v0.4h-5.4v-0.4c0.7,0,1.2-0.2,1.4-0.6l-5.5-14.8h-20.3
		c-0.6,1.8-0.9,3.2-0.9,4.3c0,3,0.9,5.4,2.7,7.2c0.4,0.5,1,0.9,1.7,1.3c0.7,0.4,1.5,0.8,2.5,1.2c1,0.4,2.1,0.7,3.5,0.9
		c1.3,0.2,2.9,0.3,4.6,0.3h0.3c0.8,0,1.4-0.2,1.9-0.7c0.5-0.4,0.9-0.8,1.2-1h0.6l-1.6,2.3h-2.2h-0.2h-0.1c-1.8,0-3.4-0.1-4.7-0.4
		c-1.4-0.3-2.6-0.6-3.6-0.9c-1-0.4-1.9-0.8-2.6-1.3c-0.7-0.5-1.3-0.9-1.7-1.4c-1.9-1.9-2.9-4.4-2.9-7.5c0-1.2,0.3-2.7,0.9-4.5
		c0.6-1.8,1.4-3.7,2.3-5.8c0.9-2,2-4.1,3-6.1c1.1-2,2.1-3.9,3.1-5.6c1-1.7,1.8-3.1,2.4-4.1c0.7-1.1,1-1.7,1.1-1.9h0.1h3.8v0.5
		c-0.3,0-0.6,0-0.9,0.1c-0.3,0.1-0.5,0.3-0.6,0.6l13.1,35.2l0.4,1V1162z M923.3,1147.6l-8.2-22.3c-0.3,0.4-0.6,1-1.2,1.9
		c-0.5,0.9-1.1,1.9-1.9,3.1c-0.7,1.2-1.5,2.5-2.3,4c-0.8,1.5-1.6,3-2.4,4.5c-0.8,1.5-1.5,3-2.2,4.5c-0.7,1.5-1.2,2.9-1.7,4.3H923.3z
		"/>
	<path d="M997.3,1161.9h0.7l-1.4,2.3H971h-2.3v-0.4c0.6,0,1-0.1,1.3-0.4c0.3-0.3,0.5-1,0.5-2.1v-33.9c0-1-0.2-1.6-0.5-1.9
		c-0.3-0.3-0.7-0.4-1.3-0.4v-0.4h2.6h25.2l1.4,2.3h-0.7c-0.3-0.3-0.5-0.5-0.7-0.8c-0.1-0.2-0.3-0.4-0.5-0.5
		c-0.2-0.1-0.4-0.2-0.7-0.3c-0.3-0.1-0.7-0.1-1.3-0.2h-21.8v19.2H989c1.1,0,1.9-0.1,2.2-0.4c0.3-0.3,0.5-0.7,0.5-1.3h0.4v4.1h-0.4
		c0-0.6-0.2-1-0.5-1.3c-0.3-0.3-1-0.4-2.2-0.4h-16.6v18.6h21.9c0.5,0,0.9-0.1,1.2-0.2c0.3-0.1,0.5-0.2,0.7-0.3
		c0.2-0.1,0.4-0.3,0.5-0.5C996.8,1162.3,997,1162.1,997.3,1161.9L997.3,1161.9z"/>
	<path d="M1037.8,1161c0,1.1,0.1,1.9,0.4,2.2c0.3,0.3,0.7,0.5,1.3,0.5v0.4h-5.3v-0.4c0.6,0,1-0.1,1.3-0.4c0.3-0.3,0.4-1,0.5-2.1
		v-33.6c0-1.1-0.1-1.8-0.4-2.1c-0.3-0.3-0.7-0.5-1.3-0.5v-0.4h5.4v0.4c-0.6,0-1,0.2-1.3,0.5c-0.3,0.3-0.4,1-0.4,2.1L1037.8,1161
		L1037.8,1161z"/>
	<path d="M1087.5,1124.6v0.4c-0.6,0-1,0.1-1.3,0.4c-0.3,0.3-0.5,1-0.5,2.1v36.6h-2.5l-27.8-37.5c-0.1-0.1-0.2-0.2-0.3-0.3
		c-0.1-0.1-0.2-0.2-0.3-0.3v35c0,1.1,0.1,1.9,0.4,2.2c0.3,0.3,0.7,0.5,1.3,0.5v0.4h-4.1v-0.4c0.6,0,1-0.1,1.3-0.4
		c0.3-0.3,0.4-0.9,0.5-1.9v-35.6c-0.7-0.2-1.2-0.4-1.7-0.5c-0.3,0-0.5-0.1-0.8-0.1v-0.4h4.6l28.8,38.8v-35.9c0-1.1-0.2-1.8-0.5-2.1
		c-0.3-0.3-0.7-0.4-1.3-0.4v-0.4H1087.5z"/>
	<path d="M1129.3,1124.6v2.4h-0.4c0-0.6-0.1-1-0.4-1.3c-0.3-0.3-1-0.4-2.2-0.4h-12v35.8c0,1.1,0.1,1.9,0.4,2.2
		c0.3,0.3,0.7,0.5,1.3,0.5v0.4h-5.4v-0.4c0.6,0,1-0.1,1.3-0.4c0.3-0.3,0.4-1,0.5-2v-36h-11.9c-1.1,0-1.9,0.1-2.2,0.4
		c-0.3,0.3-0.5,0.7-0.5,1.3h-0.4v-2.4H1129.3z"/>
	<path d="M1167.9,1161.9h0.7l-1.4,2.3h-25.6h-2.3v-0.4c0.6,0,1-0.1,1.3-0.4c0.3-0.3,0.5-1,0.5-2.1v-33.9c0-1-0.2-1.6-0.5-1.9
		s-0.7-0.4-1.3-0.4v-0.4h2.6h25.2l1.4,2.3h-0.7c-0.3-0.3-0.5-0.5-0.7-0.8c-0.1-0.2-0.3-0.4-0.5-0.5c-0.2-0.1-0.4-0.2-0.7-0.3
		c-0.3-0.1-0.7-0.1-1.3-0.2H1143v19.2h16.6c1.1,0,1.9-0.1,2.2-0.4c0.3-0.3,0.5-0.7,0.5-1.3h0.4v4.1h-0.4c0-0.6-0.2-1-0.5-1.3
		c-0.3-0.3-1-0.4-2.2-0.4H1143v18.6h21.9c0.5,0,0.9-0.1,1.2-0.2c0.3-0.1,0.5-0.2,0.7-0.3c0.2-0.1,0.4-0.3,0.5-0.5
		C1167.4,1162.3,1167.7,1162.1,1167.9,1161.9L1167.9,1161.9z"/>
	<path d="M1206.7,1161.2c0.5,0.7,1,1.3,1.6,1.8c0.6,0.5,1.2,0.7,1.8,0.7v0.4h-3.6l-0.1-0.1v0.1h-1.9v-0.4c0.6,0,0.9-0.2,0.9-0.7
		s-0.2-1-0.7-1.7l-7.5-12.1h-14.3v11.9c0,1.2,0.1,1.9,0.4,2.2c0.3,0.3,0.7,0.5,1.3,0.5v0.4h-5.3v-0.4c0.6,0,1-0.1,1.3-0.4
		c0.3-0.3,0.4-0.9,0.5-1.9v-34c0-1-0.2-1.6-0.5-1.9c-0.3-0.3-0.7-0.4-1.3-0.4v-0.4h3.1h16.8c1.7,0,3.3,0.3,4.8,1
		c1.5,0.6,2.8,1.5,3.9,2.6c1.1,1.1,2,2.4,2.6,3.9c0.6,1.5,1,3.1,1,4.8c0,1.7-0.3,3.3-1,4.7c-0.6,1.5-1.5,2.8-2.6,3.9
		c-1.1,1.1-2.4,2-3.8,2.6c-1.5,0.6-3,1-4.7,1L1206.7,1161.2L1206.7,1161.2z M1198,1148.4c1.6,0,3.1-0.3,4.5-0.9s2.7-1.4,3.7-2.5
		c1-1,1.9-2.3,2.5-3.7c0.6-1.4,0.9-2.9,0.9-4.5c0-1.6-0.3-3.1-0.9-4.5c-0.6-1.4-1.4-2.6-2.5-3.7c-1-1-2.3-1.9-3.7-2.5
		c-1.4-0.6-2.9-0.9-4.6-0.9h-15v23.2H1198z"/>
	<path d="M1226.9,1161c0,1.1,0.1,1.9,0.4,2.2c0.3,0.3,0.7,0.5,1.3,0.5v0.4h-5.3v-0.4c0.6,0,1-0.1,1.3-0.4c0.3-0.3,0.4-1,0.5-2.1
		v-33.6c0-1.1-0.1-1.8-0.4-2.1c-0.3-0.3-0.7-0.5-1.3-0.5v-0.4h5.4v0.4c-0.6,0-1,0.2-1.3,0.5c-0.3,0.3-0.4,1-0.4,2.1L1226.9,1161
		L1226.9,1161z"/>
	<path d="M1260.3,1124.1c2.7,0,5.2,0.5,7.6,1.6c2.4,1.1,4.5,2.5,6.2,4.4c1.8,1.8,3.1,4,4.2,6.4c1,2.4,1.5,5.1,1.5,7.9
		c0,2.8-0.5,5.4-1.5,7.9c-1,2.4-2.4,4.6-4.2,6.4c-1.8,1.8-3.8,3.3-6.2,4.3c-2.4,1.1-4.9,1.6-7.6,1.6c-2.7,0-5.3-0.5-7.7-1.6
		c-2.4-1.1-4.5-2.5-6.2-4.3c-1.8-1.8-3.2-4-4.2-6.4c-1-2.4-1.5-5.1-1.5-7.9c0-2.8,0.5-5.4,1.5-7.9c1-2.4,2.4-4.6,4.2-6.4
		c1.8-1.8,3.9-3.3,6.2-4.4C1255,1124.6,1257.6,1124.1,1260.3,1124.1z M1253,1160.9c2.4,1.1,4.8,1.8,7.3,1.9c2.5,0.1,4.8-0.2,7.1-0.9
		c2.2-0.8,4.2-1.9,6.1-3.5c1.8-1.6,3.2-3.5,4.2-5.8c1-2.3,1.5-4.7,1.5-7.1s-0.4-4.8-1.3-7.1c-0.9-2.3-2.2-4.3-3.9-6.2
		c-1.7-1.9-3.8-3.4-6.1-4.5c-2.4-1.1-4.8-1.8-7.3-1.9s-4.9,0.2-7.1,0.9c-2.2,0.8-4.2,1.9-6.1,3.5c-1.8,1.6-3.2,3.5-4.2,5.8
		c-1,2.3-1.5,4.6-1.5,7.1s0.5,4.8,1.4,7.1c0.9,2.3,2.2,4.3,4,6.2C1248.5,1158.3,1250.6,1159.8,1253,1160.9z"/>
	<path d="M1319.2,1161.2c0.5,0.7,1,1.3,1.6,1.8c0.6,0.5,1.2,0.7,1.8,0.7v0.4h-3.6l-0.1-0.1v0.1h-1.9v-0.4c0.6,0,0.9-0.2,0.9-0.7
		s-0.2-1-0.7-1.7l-7.5-12.1h-14.3v11.9c0,1.2,0.1,1.9,0.4,2.2c0.3,0.3,0.7,0.5,1.3,0.5v0.4h-5.3v-0.4c0.6,0,1-0.1,1.3-0.4
		c0.3-0.3,0.4-0.9,0.5-1.9v-34c0-1-0.2-1.6-0.5-1.9c-0.3-0.3-0.7-0.4-1.3-0.4v-0.4h3.1h16.8c1.7,0,3.3,0.3,4.8,1
		c1.5,0.6,2.8,1.5,3.9,2.6c1.1,1.1,2,2.4,2.6,3.9c0.6,1.5,1,3.1,1,4.8c0,1.7-0.3,3.3-1,4.7c-0.6,1.5-1.5,2.8-2.6,3.9
		c-1.1,1.1-2.4,2-3.8,2.6c-1.5,0.6-3,1-4.7,1L1319.2,1161.2L1319.2,1161.2z M1310.5,1148.4c1.6,0,3.1-0.3,4.5-0.9s2.7-1.4,3.7-2.5
		c1-1,1.9-2.3,2.5-3.7c0.6-1.4,0.9-2.9,0.9-4.5c0-1.6-0.3-3.1-0.9-4.5c-0.6-1.4-1.4-2.6-2.5-3.7c-1-1-2.3-1.9-3.7-2.5
		c-1.4-0.6-2.9-0.9-4.6-0.9h-15v23.2H1310.5z"/>
	<path d="M1364.4,1161.9h0.7l-1.4,2.3h-25.6h-2.3v-0.4c0.6,0,1-0.1,1.3-0.4c0.3-0.3,0.5-1,0.5-2.1v-33.9c0-1-0.2-1.6-0.5-1.9
		c-0.3-0.3-0.7-0.4-1.3-0.4v-0.4h2.6h25.2l1.4,2.3h-0.7c-0.3-0.3-0.5-0.5-0.7-0.8c-0.1-0.2-0.3-0.4-0.5-0.5
		c-0.2-0.1-0.4-0.2-0.7-0.3c-0.3-0.1-0.7-0.1-1.3-0.2h-21.8v19.2h16.6c1.1,0,1.9-0.1,2.2-0.4c0.3-0.3,0.5-0.7,0.5-1.3h0.4v4.1h-0.4
		c0-0.6-0.2-1-0.5-1.3c-0.3-0.3-1-0.4-2.2-0.4h-16.6v18.6h21.9c0.5,0,0.9-0.1,1.2-0.2c0.3-0.1,0.5-0.2,0.7-0.3
		c0.2-0.1,0.4-0.3,0.5-0.5C1363.9,1162.3,1364.1,1162.1,1364.4,1161.9L1364.4,1161.9z"/>
	<path d="M1377.7,1133.9c0,2.1,0.6,3.7,1.9,5c1.3,1.3,2.9,2.3,4.8,3.2c1.9,0.9,4,1.6,6.3,2.2c2.2,0.6,4.3,1.3,6.3,2.2
		c1.9,0.8,3.6,1.8,4.8,3c1.3,1.2,1.9,2.8,1.9,4.8c0,3.2-1.3,5.7-3.8,7.6c-2.6,1.9-6.4,2.8-11.7,2.8c-2.4,0-4.4-0.1-6.1-0.4
		c-1.7-0.3-3-0.6-4.1-1c-1.3-0.4-2.4-0.9-3.2-1.4l1.1-2.1c0,0.3,0.1,0.6,0.2,0.9c0.1,0.3,0.2,0.5,0.5,0.8c0.2,0.3,0.5,0.5,0.9,0.7
		c1.1,0.5,2.4,1,4.1,1.4c1.6,0.4,3.8,0.6,6.4,0.6c2.5,0,4.5-0.2,6.2-0.7c1.7-0.4,3-1.1,4-1.9c1-0.8,1.7-1.7,2.1-2.9
		c0.4-1.1,0.6-2.3,0.6-3.7c0-1.9-0.6-3.4-1.8-4.5c-1.2-1.1-2.7-1.9-4.5-2.6c-1.8-0.7-3.8-1.3-5.9-1.8c-2.1-0.5-4.1-1.2-5.9-2
		c-1.8-0.8-3.3-1.9-4.5-3.3c-1.2-1.4-1.8-3.2-1.8-5.6c0-1.9,0.3-3.5,0.9-4.8c0.6-1.3,1.4-2.4,2.4-3.2c1-0.8,2-1.5,3.2-1.9
		c1.1-0.5,2.3-0.8,3.4-1c1.1-0.2,2-0.3,2.9-0.4c0.8,0,1.4-0.1,1.7-0.1c1.6,0,2.9,0.1,4,0.4c1.1,0.3,2,0.6,2.7,0.9
		c0.8,0.4,1.5,0.9,2,1.4l-0.7,1.4c-0.6-0.7-1.3-1.3-2-1.8c-0.7-0.5-1.6-0.9-2.6-1.3c-1-0.4-2.2-0.6-3.5-0.6c-0.6,0-1.4,0-2.3,0.1
		c-0.9,0.1-1.8,0.3-2.8,0.5c-1,0.3-1.9,0.6-2.9,1c-1,0.4-1.8,1-2.6,1.7c-0.8,0.7-1.4,1.6-1.9,2.5
		C1377.9,1131.4,1377.7,1132.5,1377.7,1133.9L1377.7,1133.9z"/>
</g>
<g>
	<path d="M963.5,854.8c-1-4-2.1-7.8-3.5-11.5c-3-8-6.8-13.7-11.4-17.1c-4.7-3.4-9.4-4.5-14-3.3c-4,1-7.5,3.7-10.4,7.9
		c-6.2,10.1-10.5,29.3-13,57.7c-1.9,20-2.8,44.7-2.7,74.1c-10.5-0.5-21.4-4.3-32.6-11.2c-11.2-7-25.4-17.2-42.3-30.8
		c-16-12.6-29.3-22.4-39.9-29.4c-10.5-7-21.9-12.4-34.2-16.3c-12.2-3.8-24.3-4.2-36.2-1.1c-13.7,3.5-27.1,12.3-40.4,26.2
		c0.7,0.6,1.1,1.4,1.3,2.3c12.9-13.5,26.1-22.1,39.8-25.7c11.9-3.1,23.9-2.7,36,1c12.1,3.8,23.5,9.2,34.1,16.3
		c10.6,7.1,23.7,16.8,39.2,29c17,13.6,31.1,23.9,42.3,30.8c11.2,7,22.2,10.8,32.9,11.5c0,14,0.3,27.8,0.8,41.4
		c0.5,16.6,1.4,36,2.5,58.2c0.2,2.5,0.6,5.2,1.4,8.3c0.9,3.5,2.1,6.5,3.6,8.8c2.1,2.9,4.9,4,8.2,3.1c2.5-0.7,4.8-2.1,6.8-4.4
		c4-5,7.9-14.4,11.5-28.1c3.6-13.7,6.6-32.2,8.8-55.5c0-0.5-0.1-1-0.4-1.4c-0.3-0.4-0.6-0.6-0.9-0.5l-0.2,0.8
		c-2.7,28.4-6.4,49.6-11.1,63.5c-4.7,13.9-9.4,21.5-14.1,22.7c-2.4,0.6-4.5-0.5-6.3-3.2c-0.9-1.5-1.8-3.8-2.5-6.8
		c-0.6-2.3-0.9-4.7-1.1-7.2c-1.9-32.7-2.8-65.3-2.6-97.8c7.5,2.8,14.4,3.4,20.7,1.8c12.2-3.1,21.4-14.3,27.7-33.4
		c3.5-10.6,5.6-23.5,6.2-38.7C967.9,881.7,966.6,867.7,963.5,854.8z M965.7,896c-0.6,14.8-2.6,27.3-5.9,37.7
		c-5.9,18.8-15,29.7-27.2,32.9c-5.9,1.5-12.5,0.9-19.9-2c-0.1-21.7,0.5-43,1.7-63.7c2-34.2,5.7-56.5,11.1-66.9
		c2.5-4.9,5.8-7.9,9.8-8.9c4.3-1.1,8.6,0,13,3.4c4.4,3.4,7.9,8.7,10.5,16c1.3,3.4,2.4,7,3.3,10.8C965.1,867.6,966.3,881.2,965.7,896
		z"/>
	<path d="M1248.5,915.7c-0.2-0.1-0.3-0.2-0.5-0.2c-0.2,0-0.4,0-0.5,0.2c-10.2,10.4-22.1,16.8-35.6,19.4c-8.5,1.6-17.2,1.9-26,0.9
		c-8.8-1-20.1-3-33.8-5.8c-12.6-2.6-22.8-4.4-30.6-5.4c-7.9-0.9-15.4-0.7-22.6,0.6c-11,2.1-20.3,7.3-28,15.7
		c-3.4,4.2-8.5,12.4-15.2,24.7c-1.8,3.1-3.4,6-5,8.7c0.2,0.7,0.4,1.4,0.5,2.1c2.1-3.5,4.3-7.3,6.6-11.4c3.5-6.4,6.4-11.4,8.4-14.9
		c2.1-3.6,4.1-6.4,6-8.4c7.2-7.9,16.1-12.9,26.9-14.9c7.2-1.4,14.8-1.6,22.7-0.7s18,2.7,30.1,5.3c13.8,2.8,25.2,4.7,34.1,5.7
		c8.9,1,17.6,0.7,26.3-0.9c13.9-2.6,25.9-9.2,36.1-19.7C1248.7,916.4,1248.7,916,1248.5,915.7z"/>
</g>
<path d="M1047.9,979.1c-6.2,10.2-12.7,19.8-19.6,28.8c-6.9,9-12.7,15.1-17.3,18.3c-1.3,0.9-2.9,1.6-4.7,1.9c-1.6,0.3-3-0.1-4-1
	c-1.8-1.7-3.1-5.7-4.1-11.7c-1.7-10.6-2.3-27.3-1.8-50.2c15.3-25.5,28.1-50.4,38.3-74.6c9.6-23.3,13.6-40.1,11.9-50.5
	c-0.7-4.3-2.5-7.4-5.4-9.3c-2.3-1.5-5.1-1.9-8.5-1.4c-2.9,0.5-5.3,1.6-7.4,3.4c-4.7,3.9-9.1,11-13.2,21.3
	c-4.1,10.3-7.7,22.7-10.6,37.2c-5.5,25.2-8.7,51.2-9.6,78.2c-11.9,19.4-19.8,30.9-23.6,34.5c-1.6,1.5-3.2,2.4-4.8,2.7
	c-1.4,0.2-2.8-0.2-4.1-1.3c-2.4-2.2-4.1-6.3-5.1-12.4c-0.5-3-0.6-5.5-0.4-7.4c0.5-6.9,1.9-12.4,4.2-16.4c2.2-3.7,5.2-5.8,9.2-6.5
	c2.5-0.4,5.1-0.2,7.8,0.7c4.1,1.5,7.1,3.4,8.9,5.7c0.4,0.3,0.9,0.3,1.4,0.1c0.1-0.2,0.2-0.5,0.3-0.7c0-0.3,0-0.5-0.2-0.7
	c-2.6-2.7-5.9-4.7-9.8-6.1c-2.6-1.1-5.7-1.3-9.5-0.7c-5.6,0.9-9.6,3.4-12,7.5c-1.1,1.5-1.8,2.9-2.3,4.2c-1.1,3.1-2,7.6-2.5,13.4
	c-0.2,1.9-0.1,4.3,0.4,7.4c0.5,3,1.3,5.9,2.5,8.7c1.2,2.8,2.6,4.7,4.3,5.9c1.7,1.2,3.6,1.6,5.7,1.3c2.5-0.4,5-1.7,7.4-4
	c4.2-3.8,11.5-14.5,22.1-32c-0.1,3.7-0.1,10,0,18.8c0.3,9.5,0.8,17.1,1.7,22.6c1.3,8.1,3.2,13,5.7,14.8c1.7,1.2,3.7,1.6,6,1.2
	c2.2-0.3,4.4-1.4,6.7-3c4.8-3.2,10.7-9.3,17.7-18.3c7-9,13.6-18.8,19.9-29.2c6.2-10.3,10.6-18.4,13.2-24.3
	C1062.2,955.7,1054,968.9,1047.9,979.1z M1007.5,884.4c2-9.3,4.6-18.6,8-27.9c3.4-9.3,7.2-16.3,11.6-21.1c2.3-2.6,4.7-4.1,7-4.4
	c1.8-0.3,3.8,0.1,6,1.2c2.4,1.3,4,4,4.6,8.1c1.6,9.9-2.3,26.3-11.8,49.4c-9.3,22.1-21.3,45.9-36.1,71.2
	C998.3,933.8,1001.9,908.3,1007.5,884.4z"/>
<path d="M1427,1142.7c5.3-6.6,10.3-13.4,15.6-20c5.6,6.8,11.1,13.8,16.7,20.6c0.4,0.5,1.3,1.3,0.6,2c-5.7,7.2-11.3,14.5-17.2,21.7
	c-6-7.1-11.8-14.3-17.7-21.5C1425.5,1144.4,1426.3,1143.6,1427,1142.7 M1427,1145.5c5.4,6.2,10.3,12.8,15.8,18.9
	c1.3-1.1,2.2-2.6,3.3-3.9c4.1-5.3,8.3-10.5,12.4-15.8c-5.4-6.4-10.5-13-15.8-19.5C1437.4,1131.9,1432.2,1138.6,1427,1145.5z"/>
<path d="M1442.3,1131c0.2,0,0.6,0.1,0.7,0.1c3.4,4.2,6.8,8.4,10.2,12.6c0.6,0.6,0.9,1.4,0.1,2c-3.4,4.4-6.9,8.7-10.3,13.1l-0.4,0.1
	c-3.8-4.3-7.2-8.8-10.9-13.1c-0.7-0.7,0.1-1.5,0.6-2C1435.7,1139.6,1439,1135.3,1442.3,1131 M1441.1,1134.5
	c-2.7,3.7-5.7,7.1-8.3,10.9c3.5,3.8,6.5,8.1,10,11.8c3.6-3.8,6.5-8.3,9.9-12.2c-2.7-3.7-5.7-7.1-8.5-10.7c-0.5-0.5-0.8-1.3-1.5-1.5
	C1442,1133.1,1441.6,1133.9,1441.1,1134.5z"/>
<path d="M442.8,1142.1c5.3-6.6,10.3-13.4,15.6-20c5.6,6.8,11.1,13.8,16.7,20.6c0.4,0.5,1.3,1.3,0.6,2c-5.7,7.2-11.3,14.5-17.2,21.7
	c-6-7.1-11.8-14.3-17.7-21.5C441.3,1143.8,442.1,1143,442.8,1142.1 M442.8,1144.8c5.4,6.2,10.3,12.8,15.8,18.9
	c1.3-1.1,2.2-2.6,3.3-3.9c4.1-5.3,8.3-10.5,12.4-15.8c-5.4-6.4-10.5-13-15.8-19.5C453.2,1131.3,448,1138,442.8,1144.8z"/>
<path d="M458.2,1130.4c0.2,0,0.6,0.1,0.7,0.1c3.4,4.2,6.8,8.4,10.2,12.6c0.6,0.6,0.9,1.4,0.1,2c-3.4,4.4-6.9,8.7-10.3,13.1l-0.4,0.1
	c-3.8-4.3-7.2-8.8-10.9-13.1c-0.7-0.7,0.1-1.5,0.6-2C451.5,1139,454.9,1134.7,458.2,1130.4 M456.9,1133.9c-2.7,3.7-5.7,7.1-8.3,10.9
	c3.5,3.8,6.5,8.1,10,11.8c3.6-3.8,6.5-8.3,9.9-12.2c-2.7-3.7-5.7-7.1-8.5-10.7c-0.5-0.5-0.8-1.3-1.5-1.5
	C457.8,1132.5,457.4,1133.3,456.9,1133.9z"/>
</svg>
