<?xml version="1.0" encoding="utf-8"?>
<!-- Generator: Adobe Illustrator 25.2.1, SVG Export Plug-In . SVG Version: 6.00 Build 0)  -->
<svg version="1.1" id="Camada_1" xmlns="http://www.w3.org/2000/svg" xmlns:xlink="http://www.w3.org/1999/xlink" x="0px" y="0px"
	 viewBox="0 0 2000 2000" style="enable-background:new 0 0 2000 2000;" xml:space="preserve">
<style type="text/css">
	.st0{display:none;}
	.st1{fill:none;stroke:#000000;stroke-miterlimit:10;}
</style>
<path class="st0" d="M871.5,961.1c2.8-1.8,5.6-3.6,8.5-5.4c1.2,3.3,2.3,6.6,3.5,9.9c0.1,0.3,0.3,0.7-0.1,0.8
	c-3.1,1.9-6.2,3.9-9.3,5.8c-1.3-3.4-2.5-6.9-3.8-10.4C870.7,961.5,871.1,961.3,871.5,961.1 M871.1,962.1c1.2,3,2.2,6.1,3.4,9.1
	c0.6-0.2,1.2-0.7,1.8-1c2.2-1.4,4.5-2.8,6.7-4.3c-1.2-3.1-2.2-6.2-3.3-9.4C876.8,958.4,873.9,960.2,871.1,962.1z"/>
<path class="st0" d="M873.5,962.1c1.8-1.2,3.6-2.3,5.4-3.5c0.8,2.1,1.5,4.3,2.3,6.4c0,0.2,0.2,0.4,0,0.5c-2,1.2-3.9,2.5-5.9,3.7
	c-0.8-2.2-1.6-4.4-2.4-6.7C873,962.4,873.3,962.2,873.5,962.1 M873.3,962.7c0.8,1.9,1.4,3.9,2.2,5.9c0.4-0.1,0.7-0.4,1.1-0.7
	c1.5-0.9,2.9-1.8,4.3-2.7c-0.7-2-1.4-4-2.1-6C876.9,960.4,875.1,961.5,873.3,962.7z"/>
<g>
	<g>
		<path d="M985.9,963c-1-3.3-2.2-6.3-3.5-9.3c-2.9-6.4-6.3-10.9-10.4-13.5c-4.1-2.6-8-3.2-11.8-1.9c-3.3,1-6,3.4-8.2,7.1
			c-4.6,8.7-7.1,24.8-7.6,48.2c-0.5,16.6,0.1,37,1.8,61.3c-8.7,0.1-17.9-2.4-27.6-7.5c-9.7-5.1-21.9-12.9-36.6-23.1
			c-13.9-9.5-25.4-16.9-34.5-22.1c-9.1-5.2-18.8-9.1-29.1-11.6c-10.3-2.5-20.3-2.2-29.9,1c-11.1,3.7-21.7,11.6-31.9,23.8
			c0.6,0.5,1,1.1,1.2,1.8c9.9-11.9,20.3-19.7,31.5-23.3c9.7-3.2,19.6-3.6,29.8-1.1s19.8,6.3,29,11.6c9.2,5.3,20.5,12.6,33.9,21.8
			c14.8,10.3,27,18,36.6,23.1c9.7,5.1,18.9,7.7,27.8,7.8c0.8,11.5,1.7,22.9,2.9,34.1c1.3,13.7,3.1,29.6,5.3,47.8
			c0.3,2,0.8,4.3,1.6,6.7c0.9,2.9,2.1,5.2,3.5,7c1.9,2.3,4.2,3,7,2.1c2.1-0.7,3.9-2,5.4-4c3-4.4,5.7-12.3,7.9-23.8
			c2.2-11.5,3.7-26.9,4.3-46.3c0-0.4-0.2-0.8-0.5-1.1c-0.3-0.3-0.5-0.5-0.7-0.4l-0.1,0.7c-0.7,23.6-2.6,41.3-5.7,53
			c-3.1,11.7-6.6,18.3-10.4,19.5c-2,0.6-3.8-0.1-5.4-2.3c-0.9-1.2-1.7-3-2.5-5.5c-0.6-1.9-1-3.9-1.3-5.9
			c-3.3-26.9-5.9-53.7-7.5-80.6c6.3,1.9,12.1,2,17.2,0.4c9.9-3.3,16.9-12.9,21-29c2.3-9,3.3-19.7,3-32.3
			C991,985,989.2,973.5,985.9,963z M990,996.8c0.3,12.2-0.7,22.7-2.8,31.4c-3.9,15.8-10.7,25.3-20.6,28.6
			c-4.8,1.6-10.3,1.4-16.5-0.6c-1.2-17.9-2-35.5-2.1-52.7c-0.2-28.3,1.6-47,5.5-55.8c1.8-4.2,4.3-6.8,7.6-7.9
			c3.5-1.1,7.1-0.5,10.9,2.1c3.8,2.5,7,6.7,9.5,12.6c1.2,2.7,2.3,5.7,3.3,8.7C987.9,973.5,989.7,984.6,990,996.8z"/>
		<path d="M1224.3,997.7c-0.1-0.1-0.3-0.1-0.5-0.1s-0.3,0.1-0.4,0.2c-7.9,9.1-17.3,15.1-28.3,18c-6.9,1.8-14.1,2.5-21.4,2.1
			c-7.3-0.3-16.7-1.3-28.2-2.9c-10.5-1.5-19.1-2.4-25.6-2.7s-12.7,0.2-18.6,1.8c-8.9,2.3-16.4,7.2-22.2,14.5
			c-2.6,3.6-6.3,10.7-11.2,21.2c-1.3,2.6-2.5,5.2-3.7,7.5c0.3,0.6,0.4,1.1,0.6,1.7c1.5-3,3.1-6.3,4.8-9.8c2.6-5.4,4.6-9.7,6.1-12.8
			c1.5-3.1,3-5.5,4.5-7.2c5.5-6.9,12.6-11.5,21.4-13.8c5.9-1.6,12.1-2.1,18.7-1.8c6.6,0.3,14.9,1.2,25.1,2.7
			c11.6,1.6,21,2.5,28.4,2.8s14.6-0.4,21.6-2.2c11.3-3,20.9-9,28.7-18.3C1224.5,998.3,1224.5,998,1224.3,997.7z"/>
	</g>
	<path d="M1062.3,1060.9c-4.5,8.7-9.4,17-14.6,24.9c-5.2,7.8-9.6,13.2-13.3,16c-1.1,0.8-2.3,1.4-3.8,1.8c-1.3,0.3-2.4,0.1-3.4-0.6
		c-1.5-1.3-2.9-4.5-4.1-9.4c-2-8.6-3.4-22.4-4.2-41.3c11.3-21.9,20.4-43.1,27.6-63.7c6.7-19.7,9-33.8,7.1-42.3
		c-0.8-3.5-2.4-6-4.9-7.4c-2-1.1-4.3-1.3-7.1-0.7c-2.3,0.5-4.3,1.6-5.9,3.2c-3.7,3.5-6.9,9.6-9.7,18.3c-2.8,8.7-5.1,19.1-6.8,31.2
		c-3.2,21.1-4.4,42.8-3.7,65.1c-8.8,16.7-14.7,26.6-17.6,29.7c-1.2,1.4-2.5,2.2-3.8,2.5c-1.1,0.2-2.3,0-3.4-0.8
		c-2.1-1.7-3.7-5-4.8-10c-0.6-2.5-0.8-4.5-0.7-6.1c0.1-5.7,0.9-10.3,2.6-13.8c1.6-3.2,4-5.1,7.2-5.8c2-0.5,4.2-0.4,6.5,0.1
		c3.5,1,6,2.4,7.7,4.2c0.3,0.3,0.7,0.2,1.2,0c0.1-0.2,0.2-0.4,0.2-0.6c0-0.2-0.1-0.4-0.3-0.5c-2.4-2.1-5.1-3.6-8.5-4.5
		c-2.2-0.7-4.8-0.7-7.9,0c-4.5,1-7.7,3.3-9.5,6.8c-0.8,1.3-1.3,2.5-1.7,3.6c-0.8,2.7-1.2,6.3-1.4,11.2c-0.1,1.6,0.1,3.6,0.7,6.1
		c0.6,2.5,1.4,4.8,2.6,7c1.1,2.2,2.4,3.8,3.9,4.7c1.4,0.9,3,1.1,4.8,0.7c2-0.5,4-1.7,5.9-3.7c3.2-3.4,8.7-12.6,16.5-27.6
		c0.1,3,0.4,8.2,1,15.5c0.7,7.8,1.6,14,2.7,18.6c1.5,6.6,3.4,10.5,5.5,11.9c1.4,0.9,3.1,1.1,5,0.7c1.7-0.4,3.5-1.3,5.4-2.8
		c3.8-2.9,8.3-8.3,13.6-16.1c5.2-7.8,10.2-16.2,14.9-25.2c4.6-8.8,7.8-15.8,9.6-20.8C1072.8,1040.8,1066.8,1052.1,1062.3,1060.9z
		 M1023.8,985c1.1-7.8,2.8-15.6,5.1-23.5c2.3-7.9,5.1-13.8,8.4-18c1.8-2.3,3.6-3.6,5.6-4c1.5-0.3,3.2-0.1,5,0.7
		c2.1,0.9,3.5,3,4.3,6.4c1.9,8-0.5,21.8-7.1,41.4c-6.5,18.7-15.1,39-25.9,60.7C1018.9,1026.3,1020.5,1005,1023.8,985z"/>
</g>
<g>
	<path d="M880.3,986.5c0.3,0,0.6-0.1,0.7-0.3c0.2-0.2,0.3-0.3,0.3-0.5l0.2,0.1l-0.8,2.3l-0.2-0.1c0.1-0.3,0.1-0.5,0-0.7l-7.1,0.1
		l-3.1,8.6c0.7,0.5,1.2,0.8,1.7,1c1.3,0.4,2.4,0.4,3.4-0.1c0.3-0.1,0.5-0.3,0.8-0.5c0.3-0.2,0.6-0.5,0.9-0.9
		c0.3-0.4,0.6-0.8,0.9-1.3c0.3-0.5,0.6-1.2,0.8-1.9l0-0.1c0.1-0.3,0.1-0.6,0-0.9c-0.1-0.3-0.2-0.5-0.3-0.7l0.1-0.3l0.7,1l-0.3,0.9
		l0,0.1l0,0.1c-0.3,0.8-0.6,1.4-0.9,1.9c-0.3,0.5-0.6,1-0.9,1.4c-0.3,0.4-0.6,0.7-0.9,0.9c-0.3,0.2-0.6,0.4-0.8,0.5
		c-1.1,0.5-2.3,0.6-3.6,0.1c-0.5-0.2-1.1-0.5-1.8-1.1c-0.7-0.5-1.4-1.1-2.1-1.8c-0.7-0.7-1.4-1.4-2.1-2.2c-0.7-0.8-1.3-1.5-1.9-2.1
		c-0.6-0.7-1-1.2-1.4-1.7c-0.4-0.4-0.6-0.7-0.6-0.8l0,0l0.6-1.6l0.2,0.1c-0.1,0.1-0.1,0.3-0.1,0.4c0,0.1,0,0.2,0.2,0.4l16.8-0.2
		L880.3,986.5L880.3,986.5z M873.1,987.4l-10.7,0.1c0.1,0.2,0.3,0.4,0.6,0.8c0.3,0.4,0.6,0.8,1,1.3c0.4,0.5,0.8,1,1.3,1.6
		c0.5,0.6,1,1.1,1.5,1.7c0.5,0.6,1.1,1.1,1.6,1.6c0.5,0.5,1.1,1,1.5,1.4L873.1,987.4z"/>
	<path d="M886.3,973.2c0.4,0,0.7-0.1,1-0.3s0.5-0.3,0.7-0.6l0.2,0.1l-0.7,1.5h-0.1l0.1,0l-0.4,0.8l-0.2-0.1c0.1-0.2,0.1-0.4-0.1-0.5
		c-0.2-0.1-0.4-0.1-0.8-0.1l-6.4,0.6l-2.9,5.7l4.7,2.4c0.5,0.2,0.8,0.3,1,0.3c0.2-0.1,0.3-0.2,0.5-0.4l0.2,0.1l-1.1,2.1l-0.2-0.1
		c0.1-0.2,0.1-0.4,0.1-0.6c-0.1-0.2-0.3-0.4-0.7-0.6l-13.6-6.8c-0.4-0.2-0.7-0.2-0.8-0.2s-0.3,0.2-0.4,0.4l-0.2-0.1l0.6-1.2l3.4-6.7
		c0.3-0.7,0.8-1.3,1.4-1.7c0.6-0.5,1.2-0.8,1.8-1c0.7-0.2,1.4-0.3,2.1-0.3c0.7,0,1.4,0.2,2.1,0.6c0.7,0.3,1.2,0.8,1.7,1.3
		c0.5,0.6,0.8,1.2,1,1.8c0.2,0.7,0.3,1.3,0.3,2.1c0,0.7-0.2,1.4-0.5,2.1L886.3,973.2L886.3,973.2z M879.5,974.1
		c0.3-0.6,0.5-1.3,0.5-2c0-0.7,0-1.4-0.2-2c-0.2-0.6-0.5-1.2-1-1.7c-0.4-0.5-1-1-1.6-1.3c-0.6-0.3-1.3-0.5-2-0.5c-0.7,0-1.3,0-2,0.3
		c-0.6,0.2-1.2,0.5-1.7,1c-0.5,0.4-1,1-1.3,1.6l-3,6l9.3,4.7L879.5,974.1z"/>
	<path d="M895.5,961.1c0.5,0,1.1,0,1.6,0c0.5,0,1-0.1,1.4-0.2c0.4-0.1,0.8-0.3,1.2-0.5c0.4-0.3,0.6-0.7,0.9-1.2l0.2,0.1
		c-0.3,0.6-0.6,1-1,1.4c-0.4,0.4-0.9,0.7-1.4,0.9c-0.5,0.2-1.1,0.4-1.6,0.4c-0.6,0.1-1.1,0.1-1.7,0.1c-0.1,0.2-0.2,0.4-0.3,0.6
		c-0.1,0.2-0.2,0.4-0.4,0.6c-0.7,1-1.5,1.8-2.5,2.4c-1,0.6-2.1,1-3.2,1.2c-1.1,0.2-2.3,0.2-3.4-0.1s-2.3-0.7-3.3-1.4
		c-1-0.7-1.9-1.6-2.5-2.6c-0.6-1-1.1-2.1-1.3-3.2c-0.2-1.1-0.2-2.3,0-3.4c0.2-1.2,0.7-2.2,1.4-3.2c0.7-1,1.5-1.8,2.5-2.4
		c1-0.6,2.1-1,3.2-1.2c1.1-0.2,2.3-0.1,3.5,0.1c1.2,0.3,2.3,0.7,3.3,1.5c0.8,0.6,1.6,1.3,2.2,2.1c0.6,0.8,1,1.6,1.3,2.5
		c0.3,0.9,0.5,1.8,0.5,2.8C896,959.3,895.8,960.2,895.5,961.1z M894.9,961.1c0.5-1.2,0.7-2.4,0.7-3.6c-0.1-1.3-0.4-2.5-1.1-3.6
		c-0.6-1-1.3-1.7-2.2-2.4c-0.9-0.6-1.9-1.1-2.9-1.3c-1.1-0.2-2.2-0.3-3.3-0.1c-1.1,0.2-2.2,0.5-3.2,1.1c-1,0.6-1.9,1.3-2.6,2.2
		c-0.7,0.9-1.2,1.8-1.5,2.8c-0.3,1-0.4,2.1-0.2,3.1c0.1,1.1,0.5,2.1,1.1,3.1c0.6,1,1.3,1.7,2.2,2.4c0.9,0.6,1.9,1.1,2.9,1.3
		c1.1,0.2,2.2,0.3,3.3,0.1c1.1-0.2,2.2-0.5,3.2-1.1c1.3-0.7,2.3-1.7,3.1-3c-0.4,0-0.9,0-1.3,0c-0.4,0-0.8,0-1.1,0.1
		c-0.3,0.1-0.7,0.2-0.9,0.5c-0.3,0.2-0.5,0.6-0.7,1l-0.2-0.1c0.2-0.5,0.5-0.9,0.9-1.2c0.3-0.3,0.7-0.6,1.2-0.7
		c0.4-0.2,0.9-0.3,1.4-0.4C893.9,961.2,894.4,961.2,894.9,961.1L894.9,961.1z"/>
	<path d="M897.9,931.4l0.1,0.1c-0.2,0.2-0.3,0.4-0.3,0.6c0,0.2,0.2,0.5,0.6,0.8l7.8,7.3c0.6,0.5,1,1.2,1.3,1.8
		c0.3,0.7,0.4,1.4,0.4,2.2c0,0.7-0.1,1.5-0.4,2.2c-0.3,0.7-0.7,1.4-1.3,2l-1.2,1.3c-0.6,0.6-1.2,1.1-1.9,1.4
		c-0.7,0.3-1.4,0.5-2.2,0.6c-0.7,0.1-1.5,0-2.2-0.3c-0.7-0.2-1.4-0.6-1.9-1.2l-8-7.5c-0.3-0.2-0.6-0.4-0.7-0.3s-0.3,0.1-0.5,0.3
		l-0.1-0.1l1.7-1.9l0.1,0.1c-0.2,0.2-0.2,0.3-0.3,0.5c0,0.2,0.1,0.4,0.3,0.6l8.2,7.5c0.5,0.5,1.2,0.9,1.9,1c0.7,0.2,1.4,0.2,2,0.2
		c0.7-0.1,1.3-0.2,1.9-0.5s1-0.5,1.3-0.9l1.2-1.3c0.5-0.6,1-1.2,1.2-1.9c0.3-0.7,0.5-1.4,0.5-2.1c0-0.7-0.1-1.3-0.3-2
		c-0.3-0.6-0.7-1.2-1.2-1.7l-8-7.4c-0.3-0.2-0.6-0.4-0.7-0.3c-0.2,0-0.4,0.1-0.5,0.3l-0.1-0.1L897.9,931.4z"/>
	<path d="M912.7,940.2c0.3,0.4,0.6,0.6,0.8,0.6c0.2,0,0.4-0.1,0.6-0.2l0.1,0.1l-1.8,1.6l-0.1-0.1c0.2-0.2,0.3-0.4,0.3-0.5
		c0-0.2-0.2-0.5-0.5-0.8L902,929.7c-0.3-0.4-0.6-0.5-0.8-0.6c-0.2,0-0.4,0.1-0.6,0.2l-0.1-0.1l1.8-1.6l0.1,0.1
		c-0.2,0.2-0.3,0.4-0.3,0.6c0,0.2,0.2,0.5,0.5,0.8L912.7,940.2L912.7,940.2z"/>
	<path d="M915.5,916.9l0.7,0.8l-0.2,0.1c-0.2-0.2-0.3-0.3-0.5-0.3c-0.2,0-0.5,0.1-0.9,0.4l-4.2,3.3l9.8,12.7
		c0.3,0.4,0.6,0.6,0.7,0.6c0.2,0,0.4,0,0.6-0.2l0.1,0.2l-1.9,1.5l-0.1-0.2c0.2-0.2,0.3-0.3,0.3-0.5c0-0.2-0.1-0.5-0.4-0.8l-9.9-12.8
		l-4.2,3.3c-0.4,0.3-0.6,0.6-0.6,0.8c0,0.2,0,0.4,0.2,0.6l-0.2,0.1l-0.7-0.8L915.5,916.9z"/>
	<path d="M937.8,922.8l0.3-0.2l0,1.2l-9.8,6l-0.9,0.5l-0.1-0.2c0.2-0.1,0.4-0.3,0.4-0.5c0-0.2-0.1-0.5-0.3-0.9l-7.9-13
		c-0.2-0.4-0.4-0.6-0.6-0.6c-0.2,0-0.4,0-0.6,0.1l-0.1-0.2l1-0.6l9.7-5.9l1.1,0.6l-0.3,0.2c-0.2,0-0.3-0.1-0.4-0.1
		c-0.1,0-0.2-0.1-0.3-0.1c-0.1,0-0.2,0-0.4,0c-0.1,0-0.3,0.1-0.5,0.2l-8.3,5.1l4.5,7.4l6.4-3.9c0.4-0.3,0.7-0.5,0.7-0.7
		c0.1-0.2,0-0.4-0.1-0.6l0.2-0.1l1,1.6l-0.2,0.1c-0.1-0.2-0.3-0.4-0.5-0.4c-0.2,0-0.5,0.1-0.9,0.3l-6.4,3.9l4.3,7.1l8.4-5.1
		c0.2-0.1,0.3-0.2,0.4-0.3c0.1-0.1,0.2-0.2,0.2-0.3c0-0.1,0.1-0.2,0.1-0.3C937.7,923.1,937.8,922.9,937.8,922.8L937.8,922.8z"/>
	<path d="M944.5,901.2l0.4,1l-0.2,0.1c-0.1-0.2-0.3-0.4-0.4-0.5c-0.2-0.1-0.5,0-1,0.2l-4.9,2.2l6.7,14.6c0.2,0.5,0.4,0.7,0.6,0.8
		c0.2,0.1,0.4,0.1,0.6-0.1l0.1,0.2l-2.2,1l-0.1-0.2c0.2-0.1,0.4-0.2,0.4-0.4c0.1-0.2,0-0.5-0.2-0.9l-6.7-14.7l-4.9,2.2
		c-0.5,0.2-0.7,0.4-0.8,0.6s-0.1,0.4,0.1,0.6l-0.2,0.1l-0.4-1L944.5,901.2z"/>
	<path d="M962.1,895.4l0.1,0.2c-0.3,0.1-0.5,0.2-0.6,0.4c-0.1,0.2,0,0.5,0.1,1l3.2,10.2c0.2,0.8,0.3,1.5,0.2,2.2
		c-0.1,0.7-0.3,1.4-0.7,2.1c-0.4,0.6-0.9,1.2-1.5,1.7c-0.6,0.5-1.3,0.9-2.1,1.1l-1.7,0.5c-0.8,0.2-1.6,0.3-2.4,0.3
		c-0.8-0.1-1.5-0.3-2.2-0.6c-0.7-0.3-1.3-0.8-1.8-1.3c-0.5-0.6-0.9-1.2-1.1-2l-3.3-10.4c-0.2-0.4-0.3-0.6-0.5-0.7
		c-0.2-0.1-0.4-0.1-0.6,0l-0.1-0.2l2.4-0.8l0.1,0.2c-0.2,0.1-0.4,0.2-0.5,0.3c-0.1,0.1-0.1,0.3-0.1,0.6l3.5,10.6
		c0.2,0.7,0.6,1.3,1.1,1.8c0.5,0.5,1.1,0.9,1.7,1.1c0.6,0.3,1.2,0.5,1.9,0.5c0.6,0.1,1.1,0,1.6-0.1l1.7-0.5c0.8-0.2,1.4-0.6,2-1
		c0.6-0.5,1.1-1,1.4-1.6c0.4-0.6,0.6-1.2,0.7-1.9c0.1-0.7,0-1.4-0.2-2.1l-3.3-10.4c-0.2-0.4-0.3-0.6-0.5-0.7c-0.2-0.1-0.4-0.1-0.6,0
		l-0.1-0.2L962.1,895.4z"/>
	<path d="M996.6,907.8c0.3,0.5,0.7,0.7,1.2,0.6l0,0.2l-2.4,0.3l0-0.2c0.3,0,0.5-0.2,0.6-0.4l-3.2-6.3l-9,1.1
		c-0.1,0.4-0.1,0.7-0.2,1.1c0,0.3,0,0.6,0,0.9c0.2,1.3,0.7,2.3,1.6,3.1c0.2,0.2,0.5,0.4,0.8,0.5s0.7,0.3,1.2,0.4
		c0.5,0.1,1,0.2,1.6,0.2c0.6,0,1.3,0,2.1-0.1l0.1,0c0.4,0,0.6-0.2,0.8-0.4c0.2-0.2,0.4-0.4,0.5-0.5l0.3,0l-0.5,1.1l-1,0.1l0,0
		l-0.1,0c-0.1,0-0.3,0-0.4,0c-0.1,0-0.2,0-0.4,0l0,0c-1.9,0.2-3.5,0.3-4.7,0.2c-1.2-0.1-2.2-0.4-3-0.7c-0.8-0.3-1.4-0.7-1.8-1.2
		c-0.4-0.5-0.8-0.9-1.1-1.3c-0.2-0.3-0.4-0.5-0.6-0.8c-0.2-0.3-0.4-0.5-0.6-0.7c-0.2-0.2-0.5-0.3-0.9-0.4c-0.3-0.1-0.8-0.1-1.3-0.1
		l-6.6,0.8l0.6,5.3c0.1,0.5,0.2,0.8,0.3,0.9c0.1,0.1,0.3,0.2,0.6,0.1l0,0.2l-0.9,0.1l-0.7,0.1l-0.9,0.1l0-0.2c0.3,0,0.4-0.1,0.6-0.3
		c0.1-0.2,0.1-0.5,0.1-1l-1.8-14.9c-0.1-0.5-0.2-0.8-0.3-0.9c-0.1-0.1-0.4-0.2-0.6-0.1l0-0.2l0.8-0.1l8-1c0.8-0.1,1.5,0,2.2,0.2
		c0.7,0.2,1.3,0.5,1.9,0.9c0.5,0.4,1,1,1.4,1.6c0.4,0.6,0.6,1.3,0.7,2.1c0.1,0.7,0,1.4-0.1,2c-0.2,0.6-0.4,1.2-0.8,1.8
		c-0.4,0.5-0.8,1-1.3,1.4c-0.5,0.4-1.1,0.7-1.8,0.8c0.7,0.1,1.3,0.4,1.8,0.7c0.5,0.4,0.9,0.8,1.2,1.2c0.3,0.4,0.5,0.8,0.8,1.2
		c0.3,0.4,0.7,0.8,1.2,1.1c0.5,0.3,1.2,0.6,2,0.7c0.8,0.2,1.9,0.2,3.3,0.2c-0.7-0.1-1.2-0.2-1.7-0.4c-0.5-0.2-0.8-0.4-1.1-0.7
		c-1-0.8-1.5-1.8-1.7-3.2c-0.1-0.5,0-1.2,0.2-2.1c0.2-0.8,0.4-1.7,0.7-2.7c0.3-0.9,0.7-1.9,1-2.9c0.4-1,0.7-1.9,1.1-2.7
		c0.3-0.8,0.6-1.5,0.9-2c0.2-0.5,0.4-0.8,0.4-0.9l0,0l1.7-0.2l0,0.2c-0.3,0-0.5,0.2-0.6,0.4l7.7,15L996.6,907.8L996.6,907.8z
		 M976.3,904.1c0.7-0.1,1.4-0.3,1.9-0.6c0.6-0.3,1.1-0.8,1.5-1.3c0.4-0.5,0.7-1.1,0.9-1.8c0.2-0.7,0.2-1.4,0.2-2.1
		c-0.1-0.7-0.3-1.4-0.6-1.9c-0.3-0.6-0.8-1.1-1.3-1.5c-0.5-0.4-1.1-0.7-1.7-0.9c-0.6-0.2-1.3-0.2-2-0.2l-6.7,0.8l1.2,10.3
		L976.3,904.1z M992.6,901.8l-4.9-9.5c-0.1,0.2-0.2,0.5-0.4,0.9s-0.4,0.9-0.6,1.5c-0.2,0.6-0.5,1.2-0.8,1.9
		c-0.3,0.7-0.5,1.4-0.8,2.1c-0.3,0.7-0.5,1.4-0.7,2.2c-0.2,0.7-0.4,1.4-0.5,2L992.6,901.8z"/>
	<path d="M1020,909.6l0.3,0l-0.8,1l-11.4-1.4l-1-0.1l0-0.2c0.3,0,0.5,0,0.6-0.1c0.1-0.1,0.3-0.4,0.3-0.9l1.8-15.1
		c0-0.4,0-0.7-0.1-0.9c-0.1-0.1-0.3-0.2-0.5-0.3l0-0.2l1.1,0.1l11.2,1.3l0.5,1.1l-0.3,0c-0.1-0.1-0.2-0.3-0.3-0.4
		c-0.1-0.1-0.1-0.2-0.2-0.2s-0.2-0.1-0.3-0.2c-0.1-0.1-0.3-0.1-0.5-0.2l-9.7-1.2l-1,8.5l7.4,0.9c0.5,0.1,0.8,0,1-0.1
		s0.2-0.3,0.3-0.6l0.2,0l-0.2,1.8l-0.2,0c0-0.3,0-0.5-0.1-0.6c-0.1-0.1-0.4-0.2-0.9-0.3l-7.4-0.9l-1,8.3l9.7,1.2c0.2,0,0.4,0,0.5,0
		c0.1,0,0.2-0.1,0.3-0.1c0.1,0,0.2-0.1,0.2-0.2S1019.8,909.6,1020,909.6L1020,909.6z"/>
	<path d="M1031.7,912c-0.1,0.5-0.2,0.8-0.1,1c0.1,0.2,0.3,0.3,0.5,0.4l-0.1,0.2l-2.3-0.6l0.1-0.2c0.3,0.1,0.5,0.1,0.6,0
		s0.3-0.4,0.4-0.8l3.9-14.5c0.1-0.5,0.1-0.8,0.1-1c-0.1-0.2-0.3-0.3-0.5-0.4l0.1-0.2l2.3,0.6l-0.1,0.2c-0.3-0.1-0.5-0.1-0.6,0.1
		c-0.2,0.1-0.3,0.4-0.4,0.9L1031.7,912L1031.7,912z"/>
	<path d="M1055.5,902.8l-0.1,0.2c-0.2-0.1-0.5-0.1-0.6,0c-0.2,0.1-0.3,0.3-0.5,0.8l-5.7,15.4l-1.1-0.4l-5.9-20.1
		c0,0-0.1-0.1-0.1-0.2c0-0.1-0.1-0.1-0.1-0.2L1036,913c-0.2,0.5-0.2,0.8-0.2,1c0.1,0.2,0.2,0.3,0.5,0.4l-0.1,0.2l-1.7-0.6l0.1-0.2
		c0.2,0.1,0.4,0.1,0.6,0c0.2-0.1,0.3-0.3,0.5-0.7l5.5-15c-0.2-0.2-0.5-0.4-0.6-0.5c-0.1-0.1-0.2-0.1-0.3-0.2l0.1-0.2l2,0.7l6.1,20.8
		l5.6-15.1c0.2-0.5,0.2-0.8,0.1-0.9c-0.1-0.2-0.2-0.3-0.5-0.4l0.1-0.2L1055.5,902.8z"/>
	<path d="M1071.1,910.8l-0.5,0.9l-0.2-0.1c0.1-0.2,0.2-0.4,0.1-0.6c-0.1-0.2-0.3-0.4-0.8-0.6l-4.8-2.5l-7.5,14.2
		c-0.2,0.4-0.3,0.8-0.3,1c0.1,0.2,0.2,0.3,0.4,0.5l-0.1,0.2l-2.1-1.1l0.1-0.2c0.2,0.1,0.4,0.2,0.6,0.1c0.2-0.1,0.4-0.3,0.6-0.7
		l7.5-14.3l-4.7-2.5c-0.4-0.2-0.8-0.3-1-0.3c-0.2,0.1-0.3,0.2-0.5,0.4l-0.2-0.1l0.5-0.9L1071.1,910.8z"/>
	<path d="M1075,933.5l0.3,0.2l-1.1,0.5l-9.5-6.5l-0.9-0.6l0.1-0.2c0.2,0.1,0.4,0.2,0.6,0.2c0.2,0,0.4-0.2,0.7-0.6l8.5-12.6
		c0.2-0.4,0.3-0.6,0.3-0.8c0-0.2-0.2-0.3-0.4-0.5l0.1-0.2l1,0.6l9.3,6.4l0,1.2l-0.3-0.2c0-0.2-0.1-0.3-0.1-0.4c0-0.1,0-0.2-0.1-0.3
		s-0.1-0.2-0.2-0.3c-0.1-0.1-0.2-0.2-0.4-0.4l-8.1-5.5l-4.8,7.1l6.2,4.2c0.4,0.3,0.7,0.4,0.9,0.4c0.2,0,0.4-0.2,0.5-0.4l0.2,0.1
		l-1,1.5l-0.2-0.1c0.1-0.2,0.2-0.4,0.2-0.6c0-0.2-0.3-0.4-0.7-0.7l-6.2-4.2l-4.7,6.9l8.1,5.5c0.2,0.1,0.4,0.2,0.5,0.2
		c0.1,0,0.2,0.1,0.3,0.1s0.2,0,0.3-0.1C1074.7,933.6,1074.9,933.5,1075,933.5L1075,933.5z"/>
	<path d="M1086,942.5c-0.1,0.4,0,0.7,0,1.1c0.1,0.3,0.2,0.6,0.4,0.8l-0.1,0.1l-1.2-1.1l0-0.1l0,0l-0.7-0.6l0.1-0.1
		c0.2,0.2,0.4,0.2,0.5,0c0.1-0.1,0.2-0.4,0.3-0.8l1-6.3l-4.8-4.2l-3.5,4c-0.3,0.4-0.5,0.7-0.5,0.9c0,0.2,0.1,0.4,0.3,0.5l-0.1,0.1
		l-1.8-1.6l0.1-0.1c0.2,0.2,0.4,0.2,0.6,0.2c0.2,0,0.4-0.2,0.7-0.5l10-11.5c0.3-0.3,0.4-0.6,0.4-0.8c0-0.2-0.1-0.4-0.3-0.5l0.1-0.1
		l1,0.9l5.7,5c0.6,0.5,1,1.1,1.3,1.7c0.3,0.7,0.5,1.3,0.6,2c0,0.7-0.1,1.4-0.3,2.1s-0.6,1.3-1.1,1.9c-0.5,0.6-1.1,1-1.7,1.3
		c-0.7,0.3-1.3,0.5-2,0.5c-0.7,0.1-1.4,0-2.1-0.2c-0.7-0.2-1.3-0.6-1.9-1L1086,942.5L1086,942.5z M1086.8,935.6
		c0.5,0.5,1.1,0.8,1.8,1s1.3,0.3,2,0.3c0.7,0,1.3-0.2,1.9-0.5c0.6-0.3,1.2-0.7,1.6-1.3c0.5-0.5,0.8-1.1,1-1.8c0.2-0.7,0.3-1.3,0.2-2
		s-0.2-1.3-0.5-1.9c-0.3-0.6-0.7-1.2-1.3-1.7l-5.1-4.4l-6.8,7.8L1086.8,935.6z"/>
	<path d="M1090.1,946.7c-0.4,0.4-0.6,0.6-0.6,0.8c0,0.2,0.1,0.4,0.3,0.6l-0.1,0.1l-1.7-1.7l0.1-0.1c0.2,0.2,0.4,0.3,0.5,0.3
		c0.2,0,0.5-0.2,0.8-0.5l10.8-10.5c0.3-0.3,0.5-0.6,0.5-0.8s-0.1-0.4-0.3-0.6l0.1-0.1l1.7,1.7l-0.1,0.1c-0.2-0.2-0.4-0.3-0.6-0.3
		c-0.2,0-0.5,0.2-0.8,0.5L1090.1,946.7L1090.1,946.7z"/>
	<path d="M1110.9,945.3c0.7,0.9,1.3,2,1.6,3.1c0.3,1.1,0.4,2.3,0.2,3.4s-0.5,2.2-1.1,3.3c-0.6,1-1.3,2-2.3,2.7s-2,1.3-3.2,1.7
		c-1.1,0.3-2.3,0.4-3.4,0.3c-1.1-0.1-2.2-0.4-3.3-1c-1-0.5-1.9-1.3-2.7-2.2c-0.8-1-1.3-2-1.6-3.1c-0.3-1.1-0.4-2.3-0.2-3.4
		c0.1-1.1,0.5-2.2,1.1-3.3c0.6-1,1.3-2,2.3-2.7c1-0.8,2-1.3,3.2-1.7c1.1-0.3,2.3-0.4,3.4-0.3c1.1,0.1,2.2,0.4,3.3,1
		C1109.2,943.6,1110.1,944.4,1110.9,945.3z M1095.9,953c0.3,1.2,0.7,2.2,1.4,3.1c0.6,0.9,1.4,1.6,2.3,2.2c0.9,0.6,1.9,0.9,2.9,1.1
		s2.1,0.2,3.2-0.1c1.1-0.3,2.1-0.8,2.9-1.5c0.9-0.7,1.6-1.5,2.1-2.4c0.5-0.9,0.9-2,1.1-3.1s0.1-2.3-0.1-3.4
		c-0.3-1.2-0.7-2.2-1.4-3.1c-0.7-0.9-1.4-1.7-2.3-2.2c-0.9-0.6-1.9-0.9-2.9-1.1c-1.1-0.2-2.1-0.1-3.2,0.1c-1.1,0.3-2,0.8-2.9,1.4
		c-0.9,0.7-1.6,1.5-2.1,2.5c-0.5,1-0.9,2-1.1,3.1S1095.7,951.9,1095.9,953z"/>
	<path d="M1110.7,974.9c-0.2,0.3-0.3,0.7-0.3,1c0,0.4,0,0.6,0.1,0.9l-0.2,0.1l-0.8-1.4l0-0.1l0,0l-0.4-0.8l0.2-0.1
		c0.1,0.2,0.3,0.3,0.5,0.2s0.3-0.3,0.5-0.6l3-5.7l-3.3-5.5l-4.6,2.7c-0.5,0.3-0.7,0.5-0.8,0.7c-0.1,0.2,0,0.4,0.1,0.6l-0.2,0.1
		l-1.2-2.1l0.2-0.1c0.1,0.2,0.3,0.4,0.5,0.4c0.2,0,0.5,0,0.8-0.2l13.1-7.7c0.4-0.2,0.6-0.4,0.6-0.6c0-0.2,0-0.4-0.1-0.6l0.2-0.1
		l0.7,1.2l3.8,6.5c0.4,0.7,0.6,1.4,0.7,2.1c0.1,0.7,0,1.4-0.1,2.1c-0.2,0.7-0.5,1.3-0.9,1.9c-0.4,0.6-1,1.1-1.6,1.5
		c-0.6,0.4-1.3,0.6-2,0.7c-0.7,0.1-1.4,0-2.1-0.1c-0.7-0.2-1.3-0.5-1.9-0.9c-0.6-0.4-1.1-0.9-1.5-1.6L1110.7,974.9L1110.7,974.9z
		 M1113.6,968.6c0.4,0.6,0.8,1.1,1.4,1.5c0.6,0.4,1.2,0.7,1.8,0.9c0.6,0.2,1.3,0.2,2,0.1c0.7-0.1,1.3-0.3,2-0.7
		c0.6-0.4,1.1-0.8,1.5-1.4c0.4-0.6,0.7-1.2,0.9-1.8c0.2-0.6,0.2-1.3,0.1-2c-0.1-0.7-0.3-1.3-0.7-2l-3.4-5.8l-8.9,5.3L1113.6,968.6z"
		/>
	<path d="M1117.5,990.5l0.1,0.3l-1.2-0.2l-4.6-10.5l-0.4-1l0.2-0.1c0.1,0.2,0.2,0.4,0.4,0.5c0.2,0.1,0.5,0,0.9-0.2l13.9-6.1
		c0.4-0.2,0.6-0.4,0.7-0.5s0.1-0.4,0-0.6l0.2-0.1l0.5,1.1l4.5,10.4l-0.7,1l-0.1-0.3c0.1-0.2,0.1-0.3,0.2-0.4
		c0.1-0.1,0.1-0.2,0.1-0.3c0-0.1,0-0.2,0-0.4c0-0.1-0.1-0.3-0.1-0.5l-3.9-8.9l-7.9,3.4l3,6.8c0.2,0.5,0.4,0.7,0.6,0.8s0.4,0.1,0.6,0
		l0.1,0.2l-1.7,0.7l-0.1-0.2c0.2-0.1,0.4-0.2,0.5-0.4s0-0.5-0.2-1l-3-6.8l-7.6,3.3l3.9,9c0.1,0.2,0.2,0.4,0.3,0.5
		c0.1,0.1,0.2,0.2,0.3,0.2c0.1,0.1,0.2,0.1,0.3,0.1C1117.2,990.4,1117.3,990.4,1117.5,990.5L1117.5,990.5z"/>
	<path d="M1130.3,989.4c-0.9,0.3-1.5,0.8-1.9,1.5c-0.4,0.7-0.6,1.5-0.7,2.5c-0.1,0.9-0.2,1.9-0.1,3c0,1,0,2-0.1,3
		c-0.1,0.9-0.3,1.8-0.7,2.5c-0.4,0.7-1,1.2-1.8,1.4c-1.4,0.4-2.6,0.2-3.8-0.6s-2.1-2.4-2.7-4.6c-0.3-1-0.5-1.9-0.6-2.7
		c-0.1-0.7-0.1-1.4-0.1-1.9c0-0.6,0.1-1.1,0.2-1.6l1,0.2c-0.1,0-0.2,0.1-0.3,0.2c-0.1,0.1-0.2,0.2-0.3,0.3c-0.1,0.1-0.1,0.3-0.2,0.5
		c-0.1,0.5-0.1,1.2-0.1,1.9c0,0.8,0.2,1.7,0.6,2.8c0.3,1.1,0.7,1.9,1.1,2.6c0.4,0.7,0.8,1.1,1.3,1.5c0.5,0.3,1,0.5,1.5,0.5
		s1.1,0,1.7-0.2c0.8-0.3,1.4-0.7,1.7-1.4c0.3-0.7,0.5-1.4,0.5-2.3c0-0.9,0-1.8,0-2.8c-0.1-1,0-1.9,0.1-2.8c0.1-0.9,0.4-1.7,0.8-2.4
		c0.4-0.7,1.1-1.2,2.1-1.5c0.8-0.2,1.5-0.3,2.2-0.2c0.6,0.1,1.2,0.3,1.7,0.6c0.5,0.3,0.9,0.7,1.2,1.1s0.6,0.9,0.9,1.3
		c0.2,0.4,0.4,0.8,0.5,1.2c0.1,0.3,0.2,0.6,0.3,0.7c0.2,0.7,0.3,1.3,0.3,1.8c0,0.5,0,0.9-0.1,1.3c-0.1,0.4-0.2,0.7-0.3,1l-0.7-0.1
		c0.2-0.3,0.4-0.7,0.5-1.1c0.1-0.4,0.2-0.8,0.2-1.3s0-1-0.2-1.6c-0.1-0.3-0.2-0.6-0.3-1s-0.3-0.7-0.6-1.1c-0.2-0.4-0.5-0.7-0.8-1.1
		c-0.3-0.4-0.7-0.7-1.1-0.9c-0.4-0.2-0.9-0.4-1.3-0.5C1131.4,989.2,1130.9,989.2,1130.3,989.4L1130.3,989.4z"/>
</g>
<path d="M1129.8,1028.2c2-2.7,4-5.4,6.1-8c2.3,2.7,4.5,5.4,6.8,8.1c0.2,0.2,0.5,0.5,0.2,0.8c-2.2,2.9-4.4,5.8-6.6,8.7
	c-2.4-2.8-4.8-5.6-7.1-8.4C1129.2,1028.9,1129.5,1028.6,1129.8,1028.2 M1129.8,1029.3c2.2,2.4,4.2,5,6.4,7.4c0.5-0.4,0.9-1,1.3-1.6
	c1.6-2.1,3.2-4.2,4.8-6.3c-2.2-2.5-4.3-5.1-6.4-7.6C1133.8,1023.9,1131.8,1026.6,1129.8,1029.3z"/>
<path d="M1132,1028.5c1.3-1.7,2.6-3.5,3.9-5.1c1.5,1.7,2.9,3.5,4.4,5.2c0.1,0.1,0.3,0.3,0.2,0.5c-1.4,1.8-2.8,3.7-4.3,5.6
	c-1.6-1.8-3.1-3.6-4.6-5.4C1131.7,1028.9,1131.9,1028.7,1132,1028.5 M1132,1029.2c1.4,1.5,2.7,3.2,4.1,4.8c0.3-0.3,0.5-0.7,0.8-1
	c1-1.4,2.1-2.7,3.1-4.1c-1.4-1.6-2.7-3.2-4.1-4.9C1134.6,1025.7,1133.3,1027.4,1132,1029.2z"/>
<path class="st1" d="M867.9,1044.1c2.1,15.4,9.5,69.7,56.3,103.7c31.9,23.2,65.2,24.7,73.5,24.9c7.4,0.2,37,0.2,68.3-17.8
	c40.9-23.4,56.3-61,61.2-73.4c7.4-18.8,9.4-37,9.7-39.9"/>
<path d="M861.7,1030c2-2.7,4-5.4,6.1-8c2.3,2.7,4.5,5.4,6.8,8.1c0.2,0.2,0.5,0.5,0.2,0.8c-2.2,2.9-4.4,5.8-6.6,8.7
	c-2.4-2.8-4.8-5.6-7.1-8.4C861.1,1030.7,861.4,1030.4,861.7,1030 M861.7,1031.1c2.2,2.4,4.2,5,6.4,7.4c0.5-0.4,0.9-1,1.3-1.6
	c1.6-2.1,3.2-4.2,4.8-6.3c-2.2-2.5-4.3-5.1-6.4-7.6C865.7,1025.6,863.7,1028.4,861.7,1031.1z"/>
<path d="M863.9,1030.3c1.3-1.7,2.6-3.5,3.9-5.1c1.5,1.7,2.9,3.5,4.4,5.2c0.1,0.1,0.3,0.3,0.2,0.5c-1.4,1.8-2.8,3.7-4.3,5.6
	c-1.6-1.8-3.1-3.6-4.6-5.4C863.5,1030.7,863.7,1030.5,863.9,1030.3 M863.9,1031c1.4,1.5,2.7,3.2,4.1,4.8c0.3-0.3,0.5-0.7,0.8-1
	c1-1.4,2.1-2.7,3.1-4.1c-1.4-1.6-2.7-3.2-4.1-4.9C866.5,1027.5,865.2,1029.2,863.9,1031z"/>
</svg>
