<?xml version="1.0" encoding="utf-8"?>
<!-- Generator: Adobe Illustrator 25.2.1, SVG Export Plug-In . SVG Version: 6.00 Build 0)  -->
<svg version="1.1" id="Camada_1" xmlns="http://www.w3.org/2000/svg" xmlns:xlink="http://www.w3.org/1999/xlink" x="0px" y="0px"
	 viewBox="0 0 2000 2000" style="enable-background:new 0 0 2000 2000;" xml:space="preserve">
<style type="text/css">
	.st0{display:none;}
	.st1{display:inline;stroke:#1D1D1B;stroke-width:2;stroke-miterlimit:10;}
	.st2{display:inline;}
</style>
<g class="st0">
	<path class="st1" d="M280.6,1083.3h62.5v2h-64.8v-99h2.2V1083.3z"/>
	<path class="st1" d="M373.1,986.3h65.4v2h-63.1v48.6h57.3v2h-57.3v44.5h65.7v2h-67.9V986.3z"/>
	<path class="st1" d="M544.9,988.2h-37.9v97h-2.2v-97h-37.9v-2h78.1V988.2z"/>
	<path class="st1" d="M581.6,1085.3h-2.2v-99h2.2V1085.3z M591.7,951.6h2.2l-11.2,22.2h-2.2L591.7,951.6z"/>
	<path class="st1" d="M672.5,983.7c16.3,0,30.7,7.5,40.2,19l-1.8,1.5c-9.1-11.1-22.8-18.1-38.4-18.1c-27.4,0-49.5,22-49.5,49.6
		c0,27.6,22,49.6,49.5,49.6c15.6,0,29.2-7,38.4-18.1l1.8,1.5c-9.4,11.7-24,19-40.2,19c-28.8,0-51.9-23.2-51.9-52
		C620.6,1007,643.9,983.7,672.5,983.7z"/>
	<path class="st1" d="M758.3,1085.3h-2.2v-99h2.2V1085.3z"/>
	<path class="st1" d="M832.4,986.3h2.5l40.8,99h-2.4l-14.2-34.5h-50.8l-14.2,34.5h-2.4L832.4,986.3z M858.2,1048.8l-21.9-53.1
		l-2.5-6.9l-2.5,6.8l-22,53.2H858.2z"/>
	<path class="st1" d="M1160.2,1034.3c0,28.9-16.6,51-48.7,51h-34.9v-99h34.9C1143.6,986.3,1160.2,1007.3,1160.2,1034.3z
		 M1111.5,1083.3c30.4,0,46.5-21.4,46.5-49c0-25.6-16-46-46.5-46h-32.7v95.1H1111.5z"/>
	<path class="st1" d="M1223.1,986.3h2.5l40.8,99h-2.4l-14.2-34.5h-50.8l-14.2,34.5h-2.4L1223.1,986.3z M1248.9,1048.8l-21.9-53.1
		l-2.5-6.9l-2.5,6.8l-22,53.2H1248.9z"/>
	<path class="st1" d="M1352.4,988.2h-37.9v97h-2.2v-97h-37.9v-2h78.1V988.2z"/>
	<path class="st1" d="M1451.5,988.2h-37.9v97h-2.2v-97h-37.9v-2h78.1V988.2z"/>
	<path class="st1" d="M1488.3,1085.3h-2.2v-99h2.2V1085.3z"/>
	<path class="st1" d="M1536.9,1083.3h62.5v2h-64.8v-99h2.2V1083.3z"/>
	<path class="st1" d="M1668.1,983.7c28.9,0,52,23.2,52,52c0,28.8-23.2,52-52,52s-51.9-23.2-51.9-52
		C1616.2,1007,1639.5,983.7,1668.1,983.7z M1668.1,1085.4c27.4,0,49.6-22.2,49.6-49.6c0-27.4-22.2-49.6-49.6-49.6
		c-27.3,0-49.6,22.2-49.6,49.6C1618.5,1063.2,1640.8,1085.4,1668.1,1085.4z"/>
</g>
<g class="st0">
	<path class="st2" d="M524.8,1162c0.3,0.6,0.7,1.1,1.2,1.3c0.4,0.2,0.9,0.3,1.3,0.3v0.4h-5.4v-0.4c0.7,0,1.2-0.2,1.4-0.6l-5.5-14.8
		h-20.3c-0.6,1.8-0.9,3.2-0.9,4.3c0,3,0.9,5.4,2.7,7.2c0.4,0.5,1,0.9,1.7,1.3c0.7,0.4,1.5,0.8,2.5,1.2c1,0.4,2.1,0.7,3.5,0.9
		c1.3,0.2,2.9,0.3,4.6,0.3h0.3c0.8,0,1.4-0.2,1.9-0.7c0.5-0.4,0.9-0.8,1.2-1h0.6l-1.6,2.3H512h-0.2h-0.1c-1.8,0-3.4-0.1-4.7-0.4
		c-1.4-0.3-2.6-0.6-3.6-0.9c-1-0.4-1.9-0.8-2.6-1.3c-0.7-0.5-1.3-0.9-1.7-1.4c-1.9-1.9-2.9-4.4-2.9-7.5c0-1.2,0.3-2.7,0.9-4.5
		c0.6-1.8,1.4-3.7,2.3-5.8s2-4.1,3-6.1c1.1-2,2.1-3.9,3.1-5.6c1-1.7,1.8-3.1,2.4-4.1c0.7-1.1,1-1.7,1.1-1.9h0.1h3.8v0.5
		c-0.3,0-0.6,0-0.9,0.1c-0.3,0.1-0.5,0.3-0.6,0.6l13.1,35.2l0.4,1V1162z M517.5,1147.6l-8.2-22.3c-0.3,0.4-0.6,1-1.2,1.9
		c-0.5,0.9-1.1,1.9-1.9,3.1c-0.7,1.2-1.5,2.5-2.3,4c-0.8,1.5-1.6,3-2.4,4.5c-0.8,1.5-1.5,3-2.2,4.5c-0.7,1.5-1.2,2.9-1.7,4.3H517.5z
		"/>
	<path class="st2" d="M564.7,1161.2c0.5,0.7,1,1.3,1.6,1.8c0.6,0.5,1.2,0.7,1.8,0.7v0.4h-3.6l-0.1-0.1v0.1h-1.9v-0.4
		c0.6,0,0.9-0.2,0.9-0.7c0-0.4-0.2-1-0.7-1.7l-7.5-12.1h-14.3v11.9c0,1.2,0.1,1.9,0.4,2.2c0.3,0.3,0.7,0.5,1.3,0.5v0.4h-5.3v-0.4
		c0.6,0,1-0.1,1.3-0.4c0.3-0.3,0.4-0.9,0.5-1.9v-34c0-1-0.2-1.6-0.5-1.9c-0.3-0.3-0.7-0.4-1.3-0.4v-0.4h3.1h16.8
		c1.7,0,3.3,0.3,4.8,1c1.5,0.6,2.8,1.5,3.9,2.6c1.1,1.1,2,2.4,2.6,3.9c0.6,1.5,1,3.1,1,4.8c0,1.7-0.3,3.3-1,4.7
		c-0.6,1.5-1.5,2.8-2.6,3.9c-1.1,1.1-2.4,2-3.8,2.6c-1.5,0.6-3,1-4.7,1L564.7,1161.2L564.7,1161.2z M556,1148.4
		c1.6,0,3.1-0.3,4.5-0.9c1.4-0.6,2.7-1.4,3.7-2.5c1-1,1.9-2.3,2.5-3.7c0.6-1.4,0.9-2.9,0.9-4.5c0-1.6-0.3-3.1-0.9-4.5
		c-0.6-1.4-1.4-2.6-2.5-3.7c-1-1-2.3-1.9-3.7-2.5c-1.4-0.6-2.9-0.9-4.6-0.9h-15v23.2H556z"/>
	<path class="st2" d="M606,1163.9c0.7,1,1.3,2,2,2.9c0.6,0.9,1.3,1.7,2.1,2.4c0.7,0.7,1.6,1.2,2.5,1.5c0.9,0.3,2,0.3,3.3,0.1
		l0.1,0.6c-1.4,0.3-2.7,0.2-3.9-0.1c-1.2-0.3-2.3-0.8-3.4-1.5c-1-0.7-2-1.5-2.9-2.4c-0.9-0.9-1.7-1.9-2.3-2.9
		c-0.5,0.1-0.9,0.1-1.4,0.2c-0.5,0-1,0.1-1.5,0.1c-2.7,0-5.3-0.5-7.7-1.6c-2.4-1.1-4.5-2.5-6.2-4.4c-1.8-1.8-3.2-4-4.2-6.4
		c-1-2.4-1.5-5.1-1.5-7.9c0-2.8,0.5-5.4,1.5-7.9c1-2.5,2.4-4.6,4.2-6.5c1.8-1.8,3.9-3.3,6.2-4.4s4.9-1.6,7.7-1.6
		c2.7,0,5.2,0.5,7.6,1.6c2.4,1.1,4.4,2.5,6.2,4.4c1.8,1.8,3.2,4,4.2,6.5c1,2.5,1.5,5.1,1.5,7.9c0,2.3-0.4,4.5-1.1,6.6
		c-0.7,2.1-1.7,4-2.9,5.7c-1.3,1.7-2.7,3.2-4.5,4.4C609.8,1162.3,608,1163.2,606,1163.9z M605.1,1162.6c2.8-0.5,5.3-1.7,7.6-3.4
		c2.2-1.7,4-3.9,5.2-6.7c1-2.3,1.5-4.7,1.5-7.1s-0.4-4.8-1.3-7.1s-2.2-4.3-4-6.2c-1.7-1.9-3.8-3.4-6.2-4.5c-2.4-1.1-4.8-1.8-7.3-1.9
		c-2.5-0.1-4.8,0.2-7.1,0.9c-2.2,0.8-4.2,2-6.1,3.5c-1.8,1.6-3.2,3.5-4.2,5.8c-1,2.3-1.5,4.7-1.5,7.1s0.4,4.8,1.3,7.1
		c0.9,2.3,2.2,4.3,4,6.2c1.7,1.9,3.8,3.4,6.2,4.5c3,1.5,6.1,2.1,9.4,1.9c-0.5-0.8-1.1-1.6-1.6-2.4c-0.5-0.8-1-1.4-1.6-1.9
		c-0.6-0.5-1.3-0.9-2-1.2c-0.8-0.2-1.7-0.2-2.8,0l-0.1-0.6c1.2-0.2,2.3-0.2,3.4,0c1,0.2,2,0.6,2.8,1.2c0.9,0.6,1.7,1.2,2.4,2
		C603.7,1160.9,604.4,1161.7,605.1,1162.6L605.1,1162.6z"/>
	<path class="st2" d="M666,1124.5v0.4c-0.7,0-1.2,0.2-1.4,0.5c-0.3,0.3-0.4,1.1-0.4,2.2v23.8c0,1.8-0.3,3.4-1,4.9
		c-0.7,1.5-1.6,2.9-2.9,4c-1.2,1.1-2.6,2-4.3,2.7c-1.6,0.7-3.4,1-5.2,1h-4c-1.8,0-3.6-0.3-5.2-1c-1.6-0.7-3.1-1.6-4.3-2.7
		c-1.2-1.1-2.2-2.5-2.9-4c-0.7-1.5-1.1-3.2-1.1-4.9V1127c-0.1-0.9-0.3-1.4-0.5-1.7c-0.3-0.2-0.7-0.4-1.3-0.4v-0.4h5.7v0.4
		c-0.5,0-0.9,0.1-1.2,0.3c-0.3,0.2-0.5,0.6-0.6,1.3l0.3,24.9c0,1.7,0.4,3.2,1.2,4.6c0.8,1.4,1.7,2.6,2.9,3.6c1.1,1,2.3,1.8,3.6,2.4
		c1.3,0.6,2.4,0.8,3.4,0.8l4,0.1c1.8,0,3.4-0.3,5-0.8c1.6-0.6,2.9-1.3,4.1-2.4c1.2-1,2.1-2.2,2.7-3.6c0.7-1.4,1-2.9,1-4.6v-24.3
		c-0.1-0.9-0.3-1.5-0.6-1.7c-0.3-0.3-0.7-0.4-1.3-0.4v-0.4L666,1124.5z"/>
	<path class="st2" d="M681.1,1161c0,1.1,0.1,1.9,0.4,2.2c0.3,0.3,0.7,0.5,1.3,0.5v0.4h-5.3v-0.4c0.6,0,1-0.1,1.3-0.4
		c0.3-0.3,0.4-1,0.5-2.1v-33.6c0-1.1-0.1-1.8-0.4-2.1c-0.3-0.3-0.7-0.5-1.3-0.5v-0.4h5.4v0.4c-0.6,0-1,0.2-1.3,0.5
		c-0.3,0.3-0.4,1-0.4,2.1L681.1,1161L681.1,1161z"/>
	<path class="st2" d="M724.8,1124.6v2.4h-0.4c0-0.6-0.1-1-0.4-1.3c-0.3-0.3-1-0.4-2.2-0.4h-12v35.8c0,1.1,0.1,1.9,0.4,2.2
		c0.3,0.3,0.7,0.5,1.3,0.5v0.4h-5.4v-0.4c0.6,0,1-0.1,1.3-0.4c0.3-0.3,0.4-1,0.5-2v-36h-11.9c-1.1,0-1.9,0.1-2.2,0.4
		c-0.3,0.3-0.5,0.7-0.5,1.3h-0.4v-2.4H724.8z"/>
	<path class="st2" d="M763.5,1161.9h0.7l-1.4,2.3h-25.6h-2.3v-0.4c0.6,0,1-0.1,1.3-0.4c0.3-0.3,0.5-1,0.5-2.1v-33.9
		c0-1-0.2-1.6-0.5-1.9c-0.3-0.3-0.7-0.4-1.3-0.4v-0.4h2.6h25.2l1.4,2.3h-0.7c-0.3-0.3-0.5-0.5-0.7-0.8c-0.1-0.2-0.3-0.4-0.5-0.5
		c-0.2-0.1-0.4-0.2-0.7-0.3c-0.3-0.1-0.7-0.1-1.3-0.2h-21.8v19.2h16.6c1.1,0,1.9-0.1,2.2-0.4c0.3-0.3,0.5-0.7,0.5-1.3h0.4v4.1h-0.4
		c0-0.6-0.2-1-0.5-1.3c-0.3-0.3-1-0.4-2.2-0.4h-16.6v18.6h21.9c0.5,0,0.9-0.1,1.2-0.2c0.3-0.1,0.5-0.2,0.7-0.3
		c0.2-0.1,0.4-0.3,0.5-0.5C762.9,1162.3,763.2,1162.1,763.5,1161.9L763.5,1161.9z"/>
	<path class="st2" d="M804.3,1124.6v2.4h-0.4c0-0.6-0.1-1-0.4-1.3c-0.3-0.3-1-0.4-2.2-0.4h-12v35.8c0,1.1,0.1,1.9,0.4,2.2
		c0.3,0.3,0.7,0.5,1.3,0.5v0.4h-5.4v-0.4c0.6,0,1-0.1,1.3-0.4c0.3-0.3,0.4-1,0.5-2v-36h-11.9c-1.1,0-1.9,0.1-2.2,0.4
		c-0.3,0.3-0.5,0.7-0.5,1.3h-0.4v-2.4H804.3z"/>
	<path class="st2" d="M848.4,1124.5v0.4c-0.7,0-1.2,0.2-1.4,0.5c-0.3,0.3-0.4,1.1-0.4,2.2v23.8c0,1.8-0.3,3.4-1,4.9
		c-0.7,1.5-1.6,2.9-2.9,4c-1.2,1.1-2.6,2-4.3,2.7c-1.6,0.7-3.4,1-5.2,1h-4c-1.8,0-3.6-0.3-5.2-1c-1.6-0.7-3.1-1.6-4.3-2.7
		c-1.2-1.1-2.2-2.5-2.9-4c-0.7-1.5-1.1-3.2-1.1-4.9V1127c-0.1-0.9-0.3-1.4-0.5-1.7c-0.3-0.2-0.7-0.4-1.3-0.4v-0.4h5.7v0.4
		c-0.5,0-0.9,0.1-1.2,0.3c-0.3,0.2-0.5,0.6-0.6,1.3l0.3,24.9c0,1.7,0.4,3.2,1.2,4.6c0.8,1.4,1.7,2.6,2.9,3.6c1.1,1,2.3,1.8,3.6,2.4
		c1.3,0.6,2.4,0.8,3.4,0.8l4,0.1c1.8,0,3.4-0.3,5-0.8c1.6-0.6,2.9-1.3,4.1-2.4c1.2-1,2.1-2.2,2.7-3.6c0.7-1.4,1-2.9,1-4.6v-24.3
		c-0.1-0.9-0.3-1.5-0.6-1.7c-0.3-0.3-0.7-0.4-1.3-0.4v-0.4L848.4,1124.5z"/>
	<path class="st2" d="M887.2,1161.2c0.5,0.7,1,1.3,1.6,1.8c0.6,0.5,1.2,0.7,1.8,0.7v0.4H887l-0.1-0.1v0.1H885v-0.4
		c0.6,0,0.9-0.2,0.9-0.7c0-0.4-0.2-1-0.7-1.7l-7.5-12.1h-14.3v11.9c0,1.2,0.1,1.9,0.4,2.2c0.3,0.3,0.7,0.5,1.3,0.5v0.4h-5.3v-0.4
		c0.6,0,1-0.1,1.3-0.4c0.3-0.3,0.4-0.9,0.5-1.9v-34c0-1-0.2-1.6-0.5-1.9c-0.3-0.3-0.7-0.4-1.3-0.4v-0.4h3.1h16.8
		c1.7,0,3.3,0.3,4.8,1c1.5,0.6,2.8,1.5,3.9,2.6c1.1,1.1,2,2.4,2.6,3.9c0.6,1.5,1,3.1,1,4.8c0,1.7-0.3,3.3-1,4.7
		c-0.6,1.5-1.5,2.8-2.6,3.9c-1.1,1.1-2.4,2-3.8,2.6c-1.5,0.6-3,1-4.7,1L887.2,1161.2L887.2,1161.2z M878.5,1148.4
		c1.6,0,3.1-0.3,4.5-0.9c1.4-0.6,2.7-1.4,3.7-2.5c1-1,1.9-2.3,2.5-3.7c0.6-1.4,0.9-2.9,0.9-4.5c0-1.6-0.3-3.1-0.9-4.5
		c-0.6-1.4-1.4-2.6-2.5-3.7c-1-1-2.3-1.9-3.7-2.5c-1.4-0.6-2.9-0.9-4.6-0.9h-15v23.2H878.5z"/>
	<path class="st2" d="M930.6,1162c0.3,0.6,0.7,1.1,1.2,1.3c0.4,0.2,0.9,0.3,1.3,0.3v0.4h-5.4v-0.4c0.7,0,1.2-0.2,1.4-0.6l-5.5-14.8
		h-20.3c-0.6,1.8-0.9,3.2-0.9,4.3c0,3,0.9,5.4,2.7,7.2c0.4,0.5,1,0.9,1.7,1.3c0.7,0.4,1.5,0.8,2.5,1.2c1,0.4,2.1,0.7,3.5,0.9
		c1.3,0.2,2.9,0.3,4.6,0.3h0.3c0.8,0,1.4-0.2,1.9-0.7c0.5-0.4,0.9-0.8,1.2-1h0.6l-1.6,2.3h-2.2h-0.2h-0.1c-1.8,0-3.4-0.1-4.7-0.4
		c-1.4-0.3-2.6-0.6-3.6-0.9c-1-0.4-1.9-0.8-2.6-1.3c-0.7-0.5-1.3-0.9-1.7-1.4c-1.9-1.9-2.9-4.4-2.9-7.5c0-1.2,0.3-2.7,0.9-4.5
		c0.6-1.8,1.4-3.7,2.3-5.8c0.9-2,2-4.1,3-6.1c1.1-2,2.1-3.9,3.1-5.6c1-1.7,1.8-3.1,2.4-4.1c0.7-1.1,1-1.7,1.1-1.9h0.1h3.8v0.5
		c-0.3,0-0.6,0-0.9,0.1c-0.3,0.1-0.5,0.3-0.6,0.6l13.1,35.2l0.4,1V1162z M923.3,1147.6l-8.2-22.3c-0.3,0.4-0.6,1-1.2,1.9
		c-0.5,0.9-1.1,1.9-1.9,3.1c-0.7,1.2-1.5,2.5-2.3,4c-0.8,1.5-1.6,3-2.4,4.5c-0.8,1.5-1.5,3-2.2,4.5c-0.7,1.5-1.2,2.9-1.7,4.3H923.3z
		"/>
	<path class="st2" d="M997.3,1161.9h0.7l-1.4,2.3H971h-2.3v-0.4c0.6,0,1-0.1,1.3-0.4c0.3-0.3,0.5-1,0.5-2.1v-33.9
		c0-1-0.2-1.6-0.5-1.9c-0.3-0.3-0.7-0.4-1.3-0.4v-0.4h2.6h25.2l1.4,2.3h-0.7c-0.3-0.3-0.5-0.5-0.7-0.8c-0.1-0.2-0.3-0.4-0.5-0.5
		c-0.2-0.1-0.4-0.2-0.7-0.3c-0.3-0.1-0.7-0.1-1.3-0.2h-21.8v19.2H989c1.1,0,1.9-0.1,2.2-0.4c0.3-0.3,0.5-0.7,0.5-1.3h0.4v4.1h-0.4
		c0-0.6-0.2-1-0.5-1.3c-0.3-0.3-1-0.4-2.2-0.4h-16.6v18.6h21.9c0.5,0,0.9-0.1,1.2-0.2c0.3-0.1,0.5-0.2,0.7-0.3
		c0.2-0.1,0.4-0.3,0.5-0.5C996.8,1162.3,997,1162.1,997.3,1161.9L997.3,1161.9z"/>
	<path class="st2" d="M1037.8,1161c0,1.1,0.1,1.9,0.4,2.2c0.3,0.3,0.7,0.5,1.3,0.5v0.4h-5.3v-0.4c0.6,0,1-0.1,1.3-0.4
		c0.3-0.3,0.4-1,0.5-2.1v-33.6c0-1.1-0.1-1.8-0.4-2.1c-0.3-0.3-0.7-0.5-1.3-0.5v-0.4h5.4v0.4c-0.6,0-1,0.2-1.3,0.5
		c-0.3,0.3-0.4,1-0.4,2.1L1037.8,1161L1037.8,1161z"/>
	<path class="st2" d="M1087.5,1124.6v0.4c-0.6,0-1,0.1-1.3,0.4c-0.3,0.3-0.5,1-0.5,2.1v36.6h-2.5l-27.8-37.5
		c-0.1-0.1-0.2-0.2-0.3-0.3c-0.1-0.1-0.2-0.2-0.3-0.3v35c0,1.1,0.1,1.9,0.4,2.2c0.3,0.3,0.7,0.5,1.3,0.5v0.4h-4.1v-0.4
		c0.6,0,1-0.1,1.3-0.4c0.3-0.3,0.4-0.9,0.5-1.9v-35.6c-0.7-0.2-1.2-0.4-1.7-0.5c-0.3,0-0.5-0.1-0.8-0.1v-0.4h4.6l28.8,38.8v-35.9
		c0-1.1-0.2-1.8-0.5-2.1c-0.3-0.3-0.7-0.4-1.3-0.4v-0.4H1087.5z"/>
	<path class="st2" d="M1129.3,1124.6v2.4h-0.4c0-0.6-0.1-1-0.4-1.3c-0.3-0.3-1-0.4-2.2-0.4h-12v35.8c0,1.1,0.1,1.9,0.4,2.2
		c0.3,0.3,0.7,0.5,1.3,0.5v0.4h-5.4v-0.4c0.6,0,1-0.1,1.3-0.4c0.3-0.3,0.4-1,0.5-2v-36h-11.9c-1.1,0-1.9,0.1-2.2,0.4
		c-0.3,0.3-0.5,0.7-0.5,1.3h-0.4v-2.4H1129.3z"/>
	<path class="st2" d="M1167.9,1161.9h0.7l-1.4,2.3h-25.6h-2.3v-0.4c0.6,0,1-0.1,1.3-0.4c0.3-0.3,0.5-1,0.5-2.1v-33.9
		c0-1-0.2-1.6-0.5-1.9s-0.7-0.4-1.3-0.4v-0.4h2.6h25.2l1.4,2.3h-0.7c-0.3-0.3-0.5-0.5-0.7-0.8c-0.1-0.2-0.3-0.4-0.5-0.5
		c-0.2-0.1-0.4-0.2-0.7-0.3c-0.3-0.1-0.7-0.1-1.3-0.2H1143v19.2h16.6c1.1,0,1.9-0.1,2.2-0.4c0.3-0.3,0.5-0.7,0.5-1.3h0.4v4.1h-0.4
		c0-0.6-0.2-1-0.5-1.3c-0.3-0.3-1-0.4-2.2-0.4H1143v18.6h21.9c0.5,0,0.9-0.1,1.2-0.2c0.3-0.1,0.5-0.2,0.7-0.3
		c0.2-0.1,0.4-0.3,0.5-0.5C1167.4,1162.3,1167.7,1162.1,1167.9,1161.9L1167.9,1161.9z"/>
	<path class="st2" d="M1206.7,1161.2c0.5,0.7,1,1.3,1.6,1.8c0.6,0.5,1.2,0.7,1.8,0.7v0.4h-3.6l-0.1-0.1v0.1h-1.9v-0.4
		c0.6,0,0.9-0.2,0.9-0.7s-0.2-1-0.7-1.7l-7.5-12.1h-14.3v11.9c0,1.2,0.1,1.9,0.4,2.2c0.3,0.3,0.7,0.5,1.3,0.5v0.4h-5.3v-0.4
		c0.6,0,1-0.1,1.3-0.4c0.3-0.3,0.4-0.9,0.5-1.9v-34c0-1-0.2-1.6-0.5-1.9c-0.3-0.3-0.7-0.4-1.3-0.4v-0.4h3.1h16.8
		c1.7,0,3.3,0.3,4.8,1c1.5,0.6,2.8,1.5,3.9,2.6c1.1,1.1,2,2.4,2.6,3.9c0.6,1.5,1,3.1,1,4.8c0,1.7-0.3,3.3-1,4.7
		c-0.6,1.5-1.5,2.8-2.6,3.9c-1.1,1.1-2.4,2-3.8,2.6c-1.5,0.6-3,1-4.7,1L1206.7,1161.2L1206.7,1161.2z M1198,1148.4
		c1.6,0,3.1-0.3,4.5-0.9s2.7-1.4,3.7-2.5c1-1,1.9-2.3,2.5-3.7c0.6-1.4,0.9-2.9,0.9-4.5c0-1.6-0.3-3.1-0.9-4.5
		c-0.6-1.4-1.4-2.6-2.5-3.7c-1-1-2.3-1.9-3.7-2.5c-1.4-0.6-2.9-0.9-4.6-0.9h-15v23.2H1198z"/>
	<path class="st2" d="M1226.9,1161c0,1.1,0.1,1.9,0.4,2.2c0.3,0.3,0.7,0.5,1.3,0.5v0.4h-5.3v-0.4c0.6,0,1-0.1,1.3-0.4
		c0.3-0.3,0.4-1,0.5-2.1v-33.6c0-1.1-0.1-1.8-0.4-2.1c-0.3-0.3-0.7-0.5-1.3-0.5v-0.4h5.4v0.4c-0.6,0-1,0.2-1.3,0.5
		c-0.3,0.3-0.4,1-0.4,2.1L1226.9,1161L1226.9,1161z"/>
	<path class="st2" d="M1260.3,1124.1c2.7,0,5.2,0.5,7.6,1.6c2.4,1.1,4.5,2.5,6.2,4.4c1.8,1.8,3.1,4,4.2,6.4c1,2.4,1.5,5.1,1.5,7.9
		c0,2.8-0.5,5.4-1.5,7.9c-1,2.4-2.4,4.6-4.2,6.4c-1.8,1.8-3.8,3.3-6.2,4.3c-2.4,1.1-4.9,1.6-7.6,1.6c-2.7,0-5.3-0.5-7.7-1.6
		c-2.4-1.1-4.5-2.5-6.2-4.3c-1.8-1.8-3.2-4-4.2-6.4c-1-2.4-1.5-5.1-1.5-7.9c0-2.8,0.5-5.4,1.5-7.9c1-2.4,2.4-4.6,4.2-6.4
		c1.8-1.8,3.9-3.3,6.2-4.4C1255,1124.6,1257.6,1124.1,1260.3,1124.1z M1253,1160.9c2.4,1.1,4.8,1.8,7.3,1.9c2.5,0.1,4.8-0.2,7.1-0.9
		c2.2-0.8,4.2-1.9,6.1-3.5c1.8-1.6,3.2-3.5,4.2-5.8c1-2.3,1.5-4.7,1.5-7.1s-0.4-4.8-1.3-7.1c-0.9-2.3-2.2-4.3-3.9-6.2
		c-1.7-1.9-3.8-3.4-6.1-4.5c-2.4-1.1-4.8-1.8-7.3-1.9s-4.9,0.2-7.1,0.9c-2.2,0.8-4.2,1.9-6.1,3.5c-1.8,1.6-3.2,3.5-4.2,5.8
		c-1,2.3-1.5,4.6-1.5,7.1s0.5,4.8,1.4,7.1c0.9,2.3,2.2,4.3,4,6.2C1248.5,1158.3,1250.6,1159.8,1253,1160.9z"/>
	<path class="st2" d="M1319.2,1161.2c0.5,0.7,1,1.3,1.6,1.8c0.6,0.5,1.2,0.7,1.8,0.7v0.4h-3.6l-0.1-0.1v0.1h-1.9v-0.4
		c0.6,0,0.9-0.2,0.9-0.7s-0.2-1-0.7-1.7l-7.5-12.1h-14.3v11.9c0,1.2,0.1,1.9,0.4,2.2c0.3,0.3,0.7,0.5,1.3,0.5v0.4h-5.3v-0.4
		c0.6,0,1-0.1,1.3-0.4c0.3-0.3,0.4-0.9,0.5-1.9v-34c0-1-0.2-1.6-0.5-1.9c-0.3-0.3-0.7-0.4-1.3-0.4v-0.4h3.1h16.8
		c1.7,0,3.3,0.3,4.8,1c1.5,0.6,2.8,1.5,3.9,2.6c1.1,1.1,2,2.4,2.6,3.9c0.6,1.5,1,3.1,1,4.8c0,1.7-0.3,3.3-1,4.7
		c-0.6,1.5-1.5,2.8-2.6,3.9c-1.1,1.1-2.4,2-3.8,2.6c-1.5,0.6-3,1-4.7,1L1319.2,1161.2L1319.2,1161.2z M1310.5,1148.4
		c1.6,0,3.1-0.3,4.5-0.9s2.7-1.4,3.7-2.5c1-1,1.9-2.3,2.5-3.7c0.6-1.4,0.9-2.9,0.9-4.5c0-1.6-0.3-3.1-0.9-4.5
		c-0.6-1.4-1.4-2.6-2.5-3.7c-1-1-2.3-1.9-3.7-2.5c-1.4-0.6-2.9-0.9-4.6-0.9h-15v23.2H1310.5z"/>
	<path class="st2" d="M1364.4,1161.9h0.7l-1.4,2.3h-25.6h-2.3v-0.4c0.6,0,1-0.1,1.3-0.4c0.3-0.3,0.5-1,0.5-2.1v-33.9
		c0-1-0.2-1.6-0.5-1.9c-0.3-0.3-0.7-0.4-1.3-0.4v-0.4h2.6h25.2l1.4,2.3h-0.7c-0.3-0.3-0.5-0.5-0.7-0.8c-0.1-0.2-0.3-0.4-0.5-0.5
		c-0.2-0.1-0.4-0.2-0.7-0.3c-0.3-0.1-0.7-0.1-1.3-0.2h-21.8v19.2h16.6c1.1,0,1.9-0.1,2.2-0.4c0.3-0.3,0.5-0.7,0.5-1.3h0.4v4.1h-0.4
		c0-0.6-0.2-1-0.5-1.3c-0.3-0.3-1-0.4-2.2-0.4h-16.6v18.6h21.9c0.5,0,0.9-0.1,1.2-0.2c0.3-0.1,0.5-0.2,0.7-0.3
		c0.2-0.1,0.4-0.3,0.5-0.5C1363.9,1162.3,1364.1,1162.1,1364.4,1161.9L1364.4,1161.9z"/>
	<path class="st2" d="M1377.7,1133.9c0,2.1,0.6,3.7,1.9,5c1.3,1.3,2.9,2.3,4.8,3.2c1.9,0.9,4,1.6,6.3,2.2c2.2,0.6,4.3,1.3,6.3,2.2
		c1.9,0.8,3.6,1.8,4.8,3c1.3,1.2,1.9,2.8,1.9,4.8c0,3.2-1.3,5.7-3.8,7.6c-2.6,1.9-6.4,2.8-11.7,2.8c-2.4,0-4.4-0.1-6.1-0.4
		c-1.7-0.3-3-0.6-4.1-1c-1.3-0.4-2.4-0.9-3.2-1.4l1.1-2.1c0,0.3,0.1,0.6,0.2,0.9c0.1,0.3,0.2,0.5,0.5,0.8c0.2,0.3,0.5,0.5,0.9,0.7
		c1.1,0.5,2.4,1,4.1,1.4c1.6,0.4,3.8,0.6,6.4,0.6c2.5,0,4.5-0.2,6.2-0.7c1.7-0.4,3-1.1,4-1.9c1-0.8,1.7-1.7,2.1-2.9
		c0.4-1.1,0.6-2.3,0.6-3.7c0-1.9-0.6-3.4-1.8-4.5c-1.2-1.1-2.7-1.9-4.5-2.6c-1.8-0.7-3.8-1.3-5.9-1.8c-2.1-0.5-4.1-1.2-5.9-2
		c-1.8-0.8-3.3-1.9-4.5-3.3c-1.2-1.4-1.8-3.2-1.8-5.6c0-1.9,0.3-3.5,0.9-4.8c0.6-1.3,1.4-2.4,2.4-3.2c1-0.8,2-1.5,3.2-1.9
		c1.1-0.5,2.3-0.8,3.4-1c1.1-0.2,2-0.3,2.9-0.4c0.8,0,1.4-0.1,1.7-0.1c1.6,0,2.9,0.1,4,0.4c1.1,0.3,2,0.6,2.7,0.9
		c0.8,0.4,1.5,0.9,2,1.4l-0.7,1.4c-0.6-0.7-1.3-1.3-2-1.8c-0.7-0.5-1.6-0.9-2.6-1.3c-1-0.4-2.2-0.6-3.5-0.6c-0.6,0-1.4,0-2.3,0.1
		c-0.9,0.1-1.8,0.3-2.8,0.5c-1,0.3-1.9,0.6-2.9,1c-1,0.4-1.8,1-2.6,1.7c-0.8,0.7-1.4,1.6-1.9,2.5
		C1377.9,1131.4,1377.7,1132.5,1377.7,1133.9L1377.7,1133.9z"/>
</g>
<g>
	<path d="M994.4,845.9c-1.5-6-3.2-11.7-5.2-17.1c-4.4-11.9-10.1-20.4-17.1-25.5c-7-5.1-14-6.7-21-4.9c-6,1.5-11.2,5.5-15.6,11.9
		c-9.3,15.1-15.7,43.8-19.4,86.1c-2.9,29.8-4.3,66.8-4.1,110.7c-15.7-0.8-32-6.4-48.8-16.8c-16.8-10.4-37.9-25.8-63.3-46.1
		c-23.9-18.8-43.8-33.5-59.5-44c-15.7-10.5-32.8-18.6-51.1-24.3c-18.3-5.7-36.3-6.3-54.1-1.7c-20.4,5.3-40.6,18.3-60.4,39.1
		c1,0.9,1.6,2.1,2,3.4c19.2-20.2,39-33.1,59.5-38.3c17.8-4.6,35.7-4.1,53.8,1.5c18.1,5.6,35,13.7,50.9,24.4
		c15.9,10.6,35.4,25.1,58.6,43.4c25.4,20.3,46.5,35.7,63.3,46.1c16.8,10.4,33.2,16.2,49.2,17.3c0,20.9,0.4,41.5,1.1,61.8
		c0.8,24.8,2,53.8,3.8,86.9c0.3,3.7,1,7.8,2.1,12.3c1.3,5.3,3.1,9.6,5.5,13.1c3.2,4.4,7.3,5.9,12.3,4.7c3.8-1,7.2-3.2,10.2-6.5
		c6-7.5,11.7-21.5,17.1-41.9c5.4-20.4,9.8-48,13.2-82.9c0-0.7-0.2-1.4-0.7-2.1c-0.5-0.6-0.9-0.9-1.3-0.8l-0.3,1.2
		c-4,42.5-9.6,74.1-16.6,94.9c-7,20.8-14,32.2-21,34c-3.6,0.9-6.8-0.7-9.5-4.8c-1.4-2.3-2.7-5.7-3.8-10.2c-0.9-3.5-1.4-7.1-1.7-10.8
		c-2.8-48.9-4.2-97.6-3.9-146.2c11.2,4.2,21.5,5.1,30.9,2.7c18.2-4.7,32-21.3,41.3-49.8c5.2-15.9,8.3-35.2,9.3-57.8
		C1001,886.1,999.1,865.2,994.4,845.9z M997.7,907.4c-1,22.1-3.9,40.8-8.8,56.3c-8.9,28-22.4,44.4-40.6,49.1
		c-8.8,2.3-18.7,1.3-29.7-3c-0.1-32.4,0.7-64.2,2.5-95.2c3-51.1,8.5-84.5,16.6-100c3.7-7.3,8.6-11.7,14.6-13.3
		c6.4-1.6,12.9,0,19.4,5.1c6.5,5,11.8,13,15.7,23.9c1.9,5.1,3.5,10.5,4.9,16.1C996.8,865,998.6,885.3,997.7,907.4z"/>
	<path d="M1420.2,936.8c-0.2-0.2-0.5-0.3-0.8-0.3c-0.3,0-0.6,0.1-0.7,0.3c-15.3,15.5-33,25.2-53.2,29c-12.7,2.4-25.7,2.9-38.8,1.3
		c-13.2-1.5-30-4.4-50.5-8.6c-18.8-3.9-34.1-6.6-45.8-8c-11.7-1.4-23-1.1-33.7,1c-16.4,3.1-30.4,11-41.8,23.5
		c-5.1,6.2-12.7,18.5-22.8,36.9c-2.6,4.6-5.1,9-7.5,13c0.4,1.1,0.6,2.1,0.8,3.2c3.1-5.2,6.4-10.9,9.8-17.1c5.3-9.5,9.5-17,12.6-22.3
		c3.1-5.4,6.1-9.5,9-12.5c10.7-11.8,24.1-19.2,40.2-22.3c10.8-2.1,22.1-2.4,33.9-1c11.8,1.4,26.8,4,45,7.8c20.7,4.2,37.6,7,50.9,8.5
		c13.3,1.5,26.4,1.1,39.3-1.4c20.7-4,38.7-13.8,54-29.5C1420.5,937.9,1420.5,937.4,1420.2,936.8z"/>
</g>
<path d="M1120.5,1031.5c-9.2,15.2-19,29.6-29.3,43.1c-10.3,13.5-18.9,22.6-25.9,27.3c-2,1.4-4.3,2.3-7,2.8c-2.4,0.4-4.4-0.1-6-1.5
	c-2.6-2.6-4.7-8.4-6.2-17.5c-2.6-15.8-3.5-40.8-2.7-75c22.9-38.1,42-75.2,57.3-111.5c14.4-34.8,20.3-59.9,17.8-75.4
	c-1-6.4-3.7-11.1-8-13.9c-3.4-2.2-7.6-2.9-12.7-2.1c-4.3,0.7-8,2.4-11.1,5.1c-7,5.8-13.6,16.4-19.7,31.9
	c-6.1,15.4-11.4,33.9-15.9,55.5c-8.2,37.6-13,76.6-14.4,116.9c-17.8,29-29.6,46.2-35.3,51.5c-2.4,2.3-4.8,3.7-7.2,4.1
	c-2.1,0.3-4.2-0.3-6.1-1.9c-3.6-3.3-6.1-9.5-7.5-18.6c-0.7-4.5-0.9-8.2-0.6-11c0.8-10.3,2.9-18.5,6.3-24.5c3.2-5.5,7.8-8.7,13.7-9.6
	c3.7-0.6,7.6-0.3,11.7,1c6.1,2.3,10.6,5.1,13.3,8.5c0.6,0.5,1.3,0.5,2.1,0.1c0.2-0.3,0.4-0.7,0.4-1.1c0.1-0.4-0.1-0.7-0.4-1
	c-4-4-8.8-7.1-14.7-9.2c-3.8-1.6-8.6-1.9-14.2-1c-8.3,1.3-14.3,5.1-18,11.2c-1.6,2.2-2.7,4.3-3.5,6.3c-1.7,4.7-3,11.3-3.8,20
	c-0.4,2.8-0.2,6.5,0.6,11c0.7,4.6,2,8.9,3.8,13c1.8,4.1,3.9,7.1,6.4,8.9c2.5,1.8,5.3,2.4,8.6,1.9c3.7-0.6,7.4-2.6,11-5.9
	c6.2-5.7,17.2-21.6,33-47.8c-0.2,5.5-0.2,14.9,0,28c0.4,14.2,1.3,25.5,2.6,33.8c2,12,4.8,19.4,8.5,22.1c2.5,1.8,5.5,2.4,9,1.8
	c3.2-0.5,6.5-2,10-4.5c7.2-4.7,16-13.9,26.5-27.4c10.4-13.5,20.4-28,29.8-43.6c9.3-15.4,15.9-27.5,19.7-36.3
	C1141.8,996.6,1129.7,1016.3,1120.5,1031.5z M1060.2,890.1c2.9-13.9,6.9-27.8,12-41.7c5-13.9,10.8-24.3,17.3-31.5
	c3.5-3.9,7-6.1,10.5-6.6c2.7-0.4,5.7,0.2,9,1.8c3.6,1.9,5.9,5.9,6.9,12.1c2.4,14.7-3.5,39.3-17.7,73.8c-13.9,33-31.9,68.5-54,106.4
	C1046.4,963.9,1051.7,925.8,1060.2,890.1z"/>
<path class="st0" d="M1427,1142.7c5.3-6.6,10.3-13.4,15.6-20c5.6,6.8,11.1,13.8,16.7,20.6c0.4,0.5,1.3,1.3,0.6,2
	c-5.7,7.2-11.3,14.5-17.2,21.7c-6-7.1-11.8-14.3-17.7-21.5C1425.5,1144.4,1426.3,1143.6,1427,1142.7 M1427,1145.5
	c5.4,6.2,10.3,12.8,15.8,18.9c1.3-1.1,2.2-2.6,3.3-3.9c4.1-5.3,8.3-10.5,12.4-15.8c-5.4-6.4-10.5-13-15.8-19.5
	C1437.4,1131.9,1432.2,1138.6,1427,1145.5z"/>
<path class="st0" d="M1442.3,1131c0.2,0,0.6,0.1,0.7,0.1c3.4,4.2,6.8,8.4,10.2,12.6c0.6,0.6,0.9,1.4,0.1,2
	c-3.4,4.4-6.9,8.7-10.3,13.1l-0.4,0.1c-3.8-4.3-7.2-8.8-10.9-13.1c-0.7-0.7,0.1-1.5,0.6-2C1435.7,1139.6,1439,1135.3,1442.3,1131
	 M1441.1,1134.5c-2.7,3.7-5.7,7.1-8.3,10.9c3.5,3.8,6.5,8.1,10,11.8c3.6-3.8,6.5-8.3,9.9-12.2c-2.7-3.7-5.7-7.1-8.5-10.7
	c-0.5-0.5-0.8-1.3-1.5-1.5C1442,1133.1,1441.6,1133.9,1441.1,1134.5z"/>
<path class="st0" d="M442.8,1142.1c5.3-6.6,10.3-13.4,15.6-20c5.6,6.8,11.1,13.8,16.7,20.6c0.4,0.5,1.3,1.3,0.6,2
	c-5.7,7.2-11.3,14.5-17.2,21.7c-6-7.1-11.8-14.3-17.7-21.5C441.3,1143.8,442.1,1143,442.8,1142.1 M442.8,1144.8
	c5.4,6.2,10.3,12.8,15.8,18.9c1.3-1.1,2.2-2.6,3.3-3.9c4.1-5.3,8.3-10.5,12.4-15.8c-5.4-6.4-10.5-13-15.8-19.5
	C453.2,1131.3,448,1138,442.8,1144.8z"/>
<path class="st0" d="M458.2,1130.4c0.2,0,0.6,0.1,0.7,0.1c3.4,4.2,6.8,8.4,10.2,12.6c0.6,0.6,0.9,1.4,0.1,2
	c-3.4,4.4-6.9,8.7-10.3,13.1l-0.4,0.1c-3.8-4.3-7.2-8.8-10.9-13.1c-0.7-0.7,0.1-1.5,0.6-2C451.5,1139,454.9,1134.7,458.2,1130.4
	 M456.9,1133.9c-2.7,3.7-5.7,7.1-8.3,10.9c3.5,3.8,6.5,8.1,10,11.8c3.6-3.8,6.5-8.3,9.9-12.2c-2.7-3.7-5.7-7.1-8.5-10.7
	c-0.5-0.5-0.8-1.3-1.5-1.5C457.8,1132.5,457.4,1133.3,456.9,1133.9z"/>
</svg>
